<svg width="30" height="33" viewBox="0 0 30 33" fill="none" xmlns="http://www.w3.org/2000/svg">
<path d="M28.1448 15.2189C29.8348 13.2989 30.2048 10.4389 28.8448 8.09887C27.4848 5.75887 24.8148 4.63887 22.3148 5.14887C21.6548 5.28887 21.0248 4.90887 20.8148 4.26887C20.0048 1.84887 17.7048 0.0888672 14.9948 0.0888672C12.2848 0.0888672 10.0048 1.84887 9.18484 4.26887C8.95484 4.90887 8.34484 5.28887 7.68484 5.14887C5.17484 4.64887 2.50484 5.74887 1.15484 8.09887C-0.195158 10.4389 0.164842 13.2989 1.85484 15.2189C2.30484 15.7289 2.30484 16.4589 1.85484 16.9789C0.164842 18.9089 -0.205158 21.7589 1.15484 24.0989C2.50484 26.4389 5.18484 27.5589 7.68484 27.0489C8.34484 26.9089 8.96484 27.2889 9.18484 27.9289C10.0048 30.3589 12.2948 32.1089 14.9948 32.1089C17.6948 32.1089 19.9948 30.3689 20.8148 27.9289C21.0248 27.2889 21.6548 26.9089 22.3148 27.0489C24.8248 27.5589 27.4948 26.4489 28.8448 24.0989C30.1948 21.7489 29.8348 18.8989 28.1448 16.9789C27.6948 16.4689 27.6948 15.7389 28.1448 15.2189ZM14.9948 22.2389C11.6048 22.2389 8.86484 19.4889 8.86484 16.0989C8.86484 12.7089 11.6148 9.95887 14.9948 9.95887C18.3748 9.95887 21.1348 12.7189 21.1348 16.0989C21.1348 19.4789 18.3848 22.2389 14.9948 22.2389Z" fill="#FFBE02"/>
</svg>
