<svg width="33" height="25" viewBox="0 0 33 25" fill="none" xmlns="http://www.w3.org/2000/svg">
<path d="M25.5117 6.65333C25.0984 6.65333 24.6943 6.69424 24.2993 6.75786C23.7482 3.23125 20.6759 0.527222 16.9561 0.527222C12.9836 0.527222 9.74595 3.613 9.5347 7.49408C9.16271 7.43955 8.78613 7.39865 8.40037 7.39865C4.28556 7.39865 0.956055 10.6935 0.956055 14.7609C0.956055 18.8283 4.28556 22.1231 8.39578 22.1231C9.33263 22.1231 10.2236 21.9459 11.0502 21.6323C12.4096 23.3865 14.545 24.5272 16.9515 24.5272C19.6243 24.5272 21.9572 23.132 23.2706 21.0415C23.9779 21.2642 24.731 21.3824 25.5117 21.3824C29.622 21.3824 32.9515 18.0875 32.9515 14.0201C32.9515 9.95271 29.622 6.65788 25.5117 6.65788V6.65333Z" fill="#FFFAFA"/>
</svg>
