<svg width="107" height="93" viewBox="0 0 107 93" fill="none" xmlns="http://www.w3.org/2000/svg">
<g clip-path="url(#clip0_2507_5990)">
<path d="M104.133 35.229C102.168 23.7598 91.2778 16.0555 79.8097 18.0201C79.8017 18.0214 79.7937 18.0227 79.7857 18.0251C77.3784 7.10968 66.791 -0.0956864 55.6574 1.8111C51.9405 2.44833 48.6186 4.02287 45.8933 6.25071C43.379 5.72637 40.7247 5.6561 38.0398 6.11608C28.9245 7.67722 22.1886 14.877 20.7929 23.5231C20.4203 23.5666 20.0479 23.6205 19.6733 23.6836C8.20528 25.6504 0.499852 36.5411 2.4644 48.0091C3.16472 52.1006 5.00187 55.7119 7.59532 58.5765C4.77662 62.8765 3.51403 68.2122 4.45071 73.6805C6.41527 85.1497 17.3059 92.854 28.7739 90.8895C31.232 90.4681 33.5172 89.6362 35.5713 88.4764C39.7907 91.0932 44.9462 92.2396 50.2255 91.335C53.7569 90.7299 56.9294 89.2787 59.575 87.2246C63.3272 88.9744 67.6318 89.6409 72.0211 88.8881C77.455 87.9567 82.0426 85.0218 85.1588 80.9714C86.2397 80.9553 87.3329 80.8562 88.4314 80.6686C99.9006 78.704 107.605 67.8134 105.64 56.3453C105.114 53.2687 103.944 50.4634 102.292 48.0425C104.173 44.2053 104.909 39.7626 104.132 35.2279L104.133 35.229Z" fill="#FFFAFA"/>
<path d="M104.133 35.229C102.168 23.7598 91.2778 16.0555 79.8097 18.0201C79.8017 18.0214 79.7937 18.0227 79.7857 18.0251C77.3784 7.10968 66.791 -0.0956864 55.6574 1.8111C51.9405 2.44833 48.6186 4.02287 45.8933 6.25071C43.379 5.72637 40.7247 5.6561 38.0398 6.11608C28.9245 7.67722 22.1886 14.877 20.7929 23.5231C20.4203 23.5666 20.0479 23.6205 19.6733 23.6836C8.20528 25.6504 0.499852 36.5411 2.4644 48.0091C3.16472 52.1006 5.00187 55.7119 7.59532 58.5765C4.77662 62.8765 3.51403 68.2122 4.45071 73.6805C6.41527 85.1497 17.3059 92.854 28.7739 90.8895C31.232 90.4681 33.5172 89.6362 35.5713 88.4764C39.7907 91.0932 44.9462 92.2396 50.2255 91.335C53.7569 90.7299 56.9294 89.2787 59.575 87.2246C63.3272 88.9744 67.6318 89.6409 72.0211 88.8881C77.455 87.9567 82.0426 85.0218 85.1588 80.9714C86.2397 80.9553 87.3329 80.8562 88.4314 80.6686C99.9006 78.704 107.605 67.8134 105.64 56.3453C105.114 53.2687 103.944 50.4634 102.292 48.0425C104.173 44.2053 104.909 39.7626 104.132 35.2279L104.133 35.229Z" stroke="#1A1A1A" stroke-width="0.828283" stroke-linecap="round" stroke-linejoin="round"/>
<path d="M20.7882 23.5243C21.7674 23.3468 22.8005 23.4832 23.6998 23.9093C24.5992 24.3354 25.3612 25.0454 25.8457 25.9145" stroke="#1A1A1A" stroke-width="0.828283" stroke-linecap="round" stroke-linejoin="round"/>
<path d="M79.7766 17.977C80.123 19.7195 79.4796 21.6235 78.1486 22.8012" stroke="#1A1A1A" stroke-width="0.828283" stroke-linecap="round" stroke-linejoin="round"/>
<path d="M59.5819 87.2302C61.538 85.2254 62.6936 82.424 62.5785 79.6179" stroke="#1A1A1A" stroke-width="0.828283" stroke-linecap="round" stroke-linejoin="round"/>
<path d="M7.58275 58.5881C8.36595 57.7409 9.37933 57.1056 10.4893 56.789C12.0884 56.3315 13.8674 56.5417 15.3173 57.3576" stroke="#1A1A1A" stroke-width="0.828283" stroke-linecap="round" stroke-linejoin="round"/>
<path d="M34.9395 88.8658C35.8368 88.2946 36.3886 87.293 36.6399 86.2601C36.8912 85.2272 36.874 84.1498 36.857 83.0873" stroke="#1A1A1A" stroke-width="0.828283" stroke-linecap="round" stroke-linejoin="round"/>
<path d="M85.1408 81.0027C85.4256 80.5471 85.7114 80.0904 85.9312 79.5993C86.151 79.1093 86.3022 78.5803 86.3063 78.0436C86.309 77.4955 86.1567 76.9548 85.9351 76.4533C85.7123 75.9518 85.42 75.4848 85.1301 75.019" stroke="#1A1A1A" stroke-width="0.828283" stroke-linecap="round" stroke-linejoin="round"/>
<path d="M102.297 48.0435C100.994 47.1204 99.4154 46.594 97.8187 46.5517C96.2231 46.5094 94.618 46.9521 93.2684 47.8061" stroke="#1A1A1A" stroke-width="0.828283" stroke-linecap="round" stroke-linejoin="round"/>
<path d="M45.719 6.2182C46.5205 6.38407 47.2659 6.81178 47.8124 7.42003C48.3589 8.02944 48.704 8.81598 48.7831 9.63033" stroke="#1A1A1A" stroke-width="0.828283" stroke-linecap="round" stroke-linejoin="round"/>
<g opacity="0.15">
<path d="M52.671 13.8525C55.1658 12.6067 58.0516 12.5142 60.5252 13.7735" stroke="#1A1A1A" stroke-width="0.828283" stroke-linecap="round" stroke-linejoin="round"/>
<path d="M60.4835 13.6248C61.8567 12.4337 63.7692 11.8912 65.5634 12.1839C67.3577 12.4766 69.129 13.4694 70.0525 15.0348" stroke="#1A1A1A" stroke-width="0.828283" stroke-linecap="round" stroke-linejoin="round"/>
</g>
<path d="M52.692 14.0728C55.9657 12.4382 60.2478 13.1259 62.8453 15.7042" stroke="#1A1A1A" stroke-width="0.828283" stroke-linecap="round" stroke-linejoin="round"/>
<path d="M60.6976 14.0426C62.0709 12.8515 63.9833 12.309 65.7776 12.6017C67.5718 12.8943 69.2134 14.0159 70.1379 15.5813" stroke="#1A1A1A" stroke-width="0.828283" stroke-linecap="round" stroke-linejoin="round"/>
<g opacity="0.03">
<path d="M46.0461 64.9036C47.9905 63.5861 50.4544 62.4752 52.6349 63.3469C54.8154 64.2196 56.5085 66.2192 57.0085 68.515C54.042 65.6078 50.4822 64.9565 46.0461 64.9036Z" fill="#1A1A1A"/>
<path d="M67.0629 66.9116C66.4455 64.6708 64.0667 63.2535 61.7457 63.1187C59.4246 62.9838 57.1693 63.884 55.108 64.9589C59.4645 64.4916 63.4778 65.0543 67.0629 66.9116Z" fill="#1A1A1A"/>
<path d="M65.8983 64.7784C66.5988 62.7917 68.1843 61.1372 70.1383 60.3504C72.0923 59.5647 74.5588 60.6908 76.4397 61.638C72.8454 62.0685 69.2129 62.4215 65.8983 64.7772L65.8983 64.7784Z" fill="#1A1A1A"/>
</g>
<path d="M46.0807 65.1052C48.0251 63.7877 50.6316 63.5061 52.8121 64.3789C54.9926 65.2517 56.6857 67.2512 57.1857 69.547" fill="#FFFAFA"/>
<path d="M46.0807 65.1052C48.0251 63.7877 50.6316 63.5061 52.8121 64.3789C54.9926 65.2517 56.6857 67.2512 57.1857 69.547" stroke="#1A1A1A" stroke-width="0.828283" stroke-linecap="round" stroke-linejoin="round"/>
<path d="M55.2852 65.9897C57.3466 64.9149 59.6018 64.0146 61.9229 64.1495C64.244 64.2844 66.6228 65.7016 67.2402 67.9425" fill="#FFFAFA"/>
<path d="M55.2852 65.9897C57.3466 64.9149 59.6018 64.0146 61.9229 64.1495C64.244 64.2844 66.6228 65.7016 67.2402 67.9425" stroke="#1A1A1A" stroke-width="0.828283" stroke-linecap="round" stroke-linejoin="round"/>
<path d="M66.0755 65.8092C66.776 63.8226 68.3615 62.1681 70.3155 61.3812C72.2695 60.5955 74.56 60.6919 76.4408 61.6391" fill="#FFFAFA"/>
<path d="M66.0755 65.8092C66.776 63.8226 68.3615 62.1681 70.3155 61.3812C72.2695 60.5955 74.56 60.6919 76.4408 61.6391" stroke="#1A1A1A" stroke-width="0.828283" stroke-linecap="round" stroke-linejoin="round"/>
<path opacity="0.15" d="M86.1141 42.6331C85.9643 39.5681 83.3197 38.5083 82.4323 38.1705C82.518 37.7611 82.5551 37.3387 82.5324 36.9094C82.1159 28.4398 61.3348 29.1701 60.3926 42.2982L52.9772 42.6888L52.9775 42.7072C50.68 29.7296 29.9166 31.1812 30.3917 39.6521C30.4145 40.0826 30.4955 40.4982 30.6234 40.8957C29.7775 41.3259 27.2589 42.6572 27.4304 45.7207C27.6009 48.7866 30.2833 50.4132 31.1741 50.7475C31.0474 51.3645 31.1039 52.1976 31.1111 52.34C31.53 60.3087 52.8471 58.9723 53.1789 45.3876L60.4738 45.0038C62.2276 58.4783 83.5674 57.5713 83.1484 49.6026C83.1412 49.4603 83.1101 48.6267 82.9188 48.0258C83.7694 47.6002 86.2673 45.7004 86.1141 42.6343L86.1141 42.6331Z" fill="#606060"/>
<path d="M55.345 45.2713C55.354 45.1367 55.3596 44.9999 55.3605 44.8608C55.3704 44.5206 55.3653 44.1737 55.3474 43.8178C55.3246 43.3873 55.2826 42.9699 55.2248 42.5688C55.2051 42.4324 55.183 42.2949 55.1588 42.1621C53.6063 33.4602 43.7414 31.2582 37.5696 33.3141C34.5498 34.319 32.415 36.3443 32.5722 39.1254C32.5949 39.5559 32.6737 39.9716 32.8038 40.369C31.9568 40.7992 29.4382 42.1305 29.6121 45.1951C29.7814 48.261 32.465 49.8888 33.3557 50.2219C33.2279 50.839 33.2855 51.6709 33.2915 51.8133C33.3175 52.2977 33.4199 52.7497 33.5952 53.1647C33.8177 53.7134 34.162 54.2 34.6028 54.6229C34.9279 54.9365 35.3041 55.2157 35.7245 55.4586C36.0217 55.6313 36.3417 55.7864 36.6819 55.9227C38.6914 56.7411 41.3652 56.9386 44.0581 56.475C49.4713 55.5416 54.9715 51.9284 55.3449 45.2702L55.345 45.2713ZM38.975 52.9903C38.0561 52.8116 37.3744 52.0312 37.3241 51.098L36.6308 38.7003C36.5932 38.0231 36.9123 37.3704 37.4848 37.0062C40.6582 34.9736 50.8536 34.805 51.3688 44.0278C51.8282 52.2657 42.3256 53.6305 38.975 52.9903Z" fill="#FD810F"/>
<path d="M51.3689 44.0289C51.8283 52.2657 42.3245 53.6317 38.9751 52.9903C38.055 52.8128 37.3756 52.0323 37.3242 51.0991L36.6308 38.7015C36.5933 38.0254 36.9135 37.3716 37.4848 37.0062C40.6583 34.9725 50.8536 34.8062 51.37 44.0289L51.3689 44.0289Z" fill="#333333"/>
<mask id="mask0_2507_5990" style="mask-type:luminance" maskUnits="userSpaceOnUse" x="36" y="35" width="16" height="19">
<path d="M51.3689 44.0289C51.8283 52.2657 42.3245 53.6317 38.9751 52.9903C38.055 52.8128 37.3756 52.0323 37.3242 51.0991L36.6308 38.7015C36.5933 38.0254 36.9135 37.3716 37.4848 37.0062C40.6583 34.9725 50.8536 34.8062 51.37 44.0289L51.3689 44.0289Z" fill="white"/>
</mask>
<g mask="url(#mask0_2507_5990)">
<path d="M49.3399 59.323C49.2547 59.883 46.4995 56.8398 45.9336 56.8696C45.3676 56.8994 45.5972 61.2637 45.0313 61.2935C44.4654 61.3233 44.2358 56.959 43.6699 56.9888C43.104 57.0186 43.3336 61.3828 42.7677 61.4126C42.2018 61.4424 43.7781 59.2825 43.6337 58.7336C42.939 56.0909 39.1947 56.6757 39.051 53.9472C38.9074 51.2187 43.2717 50.9891 43.1292 48.2605C42.9867 45.532 38.6213 45.7616 38.4776 43.033C38.334 40.3045 42.6982 40.0749 42.5546 37.3464C42.411 34.6178 37.5119 34.3745 37.9248 31.6727C38.01 31.1127 40.7653 34.1559 41.3312 34.1261C41.8971 34.0963 41.6675 29.732 42.2334 29.7023C42.7993 29.6725 43.0289 34.0368 43.5948 34.007C44.1607 33.9772 43.9312 29.6129 44.4971 29.5831C45.063 29.5533 43.4866 31.7133 43.631 32.2622C44.3258 34.9049 48.0701 34.32 48.2137 37.0485C48.3573 39.7771 43.9931 40.0067 44.1356 42.7352C44.2792 45.4637 48.6435 45.2342 48.7871 47.9627C48.9308 50.6912 43.8963 51.7269 44.8413 54.2904C45.959 57.3242 49.7529 56.6223 49.3388 59.3231L49.3399 59.323Z" fill="#FFFAFA"/>
</g>
<path d="M47.2023 35.703C47.2809 35.7303 47.3607 35.7587 47.4382 35.7872C47.4741 35.8003 47.5088 35.8147 47.5447 35.8278C47.6916 35.8837 47.4196 35.7749 47.5643 35.8366C47.7183 35.9016 47.8712 35.9701 48.0219 36.0432C48.3164 36.1861 48.6019 36.3464 48.8785 36.5206C49.0134 36.6066 49.146 36.695 49.2763 36.788C49.3078 36.8104 49.338 36.8328 49.3683 36.8553C49.4463 36.9113 49.2506 36.7632 49.3683 36.8553C49.4406 36.9114 49.5128 36.9675 49.584 37.0249C49.844 37.2362 50.0917 37.4615 50.3247 37.7008C50.4312 37.8092 50.5343 37.9211 50.6352 38.0353C50.6856 38.093 50.735 38.1507 50.7831 38.2084C50.8019 38.2299 50.9029 38.3499 50.7984 38.2254C50.8277 38.2605 50.8548 38.2967 50.883 38.333C51.0984 38.6129 51.2967 38.9069 51.4757 39.2116C51.5587 39.3537 51.6383 39.4982 51.7134 39.6439C51.755 39.7247 51.7944 39.8056 51.8338 39.8876C51.8517 39.9252 51.8685 39.9628 51.8864 39.9992C51.9151 40.0631 51.9139 40.0596 51.8816 39.9867C51.8912 40.0095 51.9008 40.0323 51.9104 40.0551C52.0496 40.3812 52.1682 40.7145 52.2663 41.0552C52.3215 41.2449 52.3697 41.437 52.4123 41.6293C52.4336 41.7254 52.4526 41.8228 52.4704 41.9201C52.4793 41.9682 52.4871 42.0175 52.496 42.0656C52.5216 42.211 52.4827 41.9612 52.5012 42.0965C52.5546 42.5057 52.5861 42.9142 52.5855 43.3278C52.5857 43.653 52.8877 43.9589 53.2182 43.938C53.5487 43.917 53.8277 43.6535 53.8283 43.3053C53.8308 41.7289 53.4198 40.1599 52.6605 38.7788C51.95 37.4864 50.9157 36.3952 49.6967 35.5716C49.0208 35.1151 48.2825 34.762 47.5113 34.4967C47.2038 34.3908 46.8199 34.6345 46.7542 34.9448C46.6802 35.2965 46.8727 35.5872 47.2023 35.7019L47.2023 35.703Z" fill="#FFFAFA"/>
<path d="M32.4108 46.9553C32.2806 46.7439 32.1492 46.5326 32.0326 46.3129C32.0041 46.2606 31.9767 46.2071 31.9516 46.1536C31.9361 46.1228 31.9218 46.092 31.9074 46.0613C31.9374 46.1308 31.9397 46.1331 31.9121 46.0681C31.8699 45.9574 31.8277 45.8479 31.7958 45.7347C31.7639 45.6215 31.732 45.5095 31.7207 45.396C31.7375 45.5588 31.7229 45.3879 31.7201 45.3638C31.7132 45.2984 31.7097 45.2319 31.7074 45.1653C31.703 45.0493 31.7101 44.9343 31.7149 44.8181C31.7202 44.6721 31.6949 44.9196 31.7177 44.787C31.7292 44.7213 31.7384 44.6568 31.7521 44.5911C31.7753 44.4781 31.8055 44.3661 31.8426 44.2563C31.848 44.2389 31.9183 44.063 31.8808 44.1476C31.8433 44.2321 31.9162 44.0722 31.924 44.0572C31.9694 43.9633 32.0194 43.8727 32.073 43.7833C32.1042 43.7322 32.1378 43.6833 32.1702 43.6345C32.2541 43.5089 32.0859 43.7359 32.1815 43.6193C32.3152 43.4572 32.4574 43.311 32.6134 43.1714C32.6655 43.128 32.6587 43.1327 32.593 43.1867C32.6168 43.1691 32.6406 43.1503 32.6644 43.1326C32.7007 43.1067 32.737 43.0807 32.7745 43.0559C32.8732 42.9898 32.9767 42.9305 33.0826 42.8768C33.3729 42.728 33.4683 42.2873 33.29 42.0228C33.0916 41.7265 32.7457 41.6558 32.436 41.8154C31.4889 42.3025 30.7659 43.2394 30.5481 44.2832C30.4265 44.8633 30.4386 45.4663 30.5903 46.0392C30.742 46.6121 31.0452 47.1121 31.3494 47.603C31.5198 47.8791 31.9241 47.9982 32.2034 47.8104C32.4826 47.6227 32.5943 47.2518 32.4108 46.9564L32.4108 46.9553Z" fill="#FFFAFA"/>
<path d="M88.2947 42.1087C88.145 39.0436 85.4992 37.9839 84.6118 37.6438C84.6975 37.2355 84.7346 36.8143 84.7131 36.3839C84.4709 31.4522 77.3224 29.6388 71.2081 31.5753C66.82 32.9646 62.961 36.2861 62.5698 41.7739C62.5312 42.3089 62.5252 42.8639 62.5563 43.4402C62.5742 43.7949 62.6058 44.1424 62.651 44.4794C63.7415 52.8599 72.4088 55.6776 78.708 54.6903C82.536 54.0924 85.487 52.088 85.3279 49.077C85.3207 48.9347 85.2907 48.1011 85.0994 47.5002C85.95 47.0746 88.4468 45.1737 88.2947 42.1087ZM66.5349 43.2302C66.0782 34.0041 76.2361 33.0997 79.6045 34.7897C80.2109 35.0924 80.5989 35.7081 80.6319 36.3843L81.2438 48.788C81.2906 49.7212 80.6958 50.5696 79.7999 50.8421C76.5364 51.8319 66.9404 51.4691 66.5349 43.2291L66.5349 43.2302Z" fill="#FD810F"/>
<path d="M66.5336 43.2314C66.9403 51.4715 76.5362 51.833 79.7998 50.8432C80.6957 50.5708 81.2904 49.7236 81.2436 48.7891L80.6329 36.3866C80.6 35.7104 80.2131 35.0935 79.6055 34.7908C76.236 33.102 66.0792 34.0052 66.5348 43.2314L66.5336 43.2314Z" fill="#333333"/>
<mask id="mask1_2507_5990" style="mask-type:luminance" maskUnits="userSpaceOnUse" x="66" y="34" width="16" height="18">
<path d="M66.5334 43.2315C66.94 51.4715 76.536 51.8331 79.7996 50.8433C80.6954 50.5709 81.2902 49.7236 81.2434 48.7892L80.6327 36.3866C80.5997 35.7105 80.2128 35.0936 79.6053 34.7909C76.2357 33.102 66.079 34.0053 66.5345 43.2314L66.5334 43.2315Z" fill="white"/>
</mask>
<g mask="url(#mask1_2507_5990)">
<path d="M74.3834 57.1172C74.5277 57.6649 72.9502 59.8249 73.5162 59.7951C74.0821 59.7653 73.8525 55.401 74.4184 55.3712C74.9843 55.3415 75.2139 59.7057 75.7798 59.676C76.3457 59.6462 76.1161 55.2819 76.682 55.2521C77.2479 55.2223 80.0032 58.2666 80.0896 57.7055C80.5037 55.0048 75.6034 54.7603 75.4598 52.033C75.3162 49.3044 79.6804 49.0748 79.5379 46.3463C79.3954 43.6177 75.03 43.8473 74.8864 41.1188C74.7427 38.3903 79.107 38.1607 78.9634 35.4321C78.8197 32.7036 75.0754 33.2873 74.3806 30.6446C74.2363 30.0969 75.8138 27.9369 75.2479 27.9667C74.682 27.9965 74.9115 32.3608 74.3456 32.3906C73.7797 32.4203 73.5501 28.0561 72.9842 28.0858C72.4183 28.1156 72.6479 32.4799 72.082 32.5097C71.5161 32.5395 68.7608 29.4952 68.6745 30.0563C68.2604 32.757 73.1606 33.0014 73.3042 35.7288C73.4479 38.4574 69.0836 38.687 69.2261 41.4155C69.3697 44.144 73.734 43.9145 73.8777 46.643C74.0213 49.3715 69.1826 50.1164 69.8671 52.7616C70.5516 55.4068 73.6886 54.4745 74.3834 57.1172Z" fill="#FFFAFA"/>
</g>
<path d="M69.2636 33.4006C66.6044 34.6438 64.6433 37.1933 64.1188 40.081C63.96 40.9536 63.9153 41.8461 64.0094 42.7291C64.044 43.0513 64.2863 43.3617 64.6421 43.3392C64.9542 43.3198 65.2895 43.0529 65.2522 42.7066C65.2134 42.343 65.1965 41.978 65.2036 41.6113C65.2064 41.4447 65.2148 41.279 65.2279 41.1134C65.2355 41.0225 65.2442 40.9315 65.2529 40.8406C65.2625 40.7393 65.2315 40.9938 65.2539 40.8325C65.262 40.7749 65.269 40.7174 65.2783 40.6597C65.3305 40.3061 65.4057 39.9566 65.5006 39.6124C65.547 39.4438 65.5991 39.2775 65.6559 39.1121C65.6853 39.0254 65.7159 38.9398 65.7489 38.8542C65.7598 38.8241 65.7695 38.7895 65.7851 38.7616C65.7129 38.8997 65.8071 38.7084 65.8192 38.6806C65.9548 38.3622 66.1089 38.0514 66.2827 37.7519C66.3662 37.6067 66.4545 37.4649 66.5473 37.3254C66.5886 37.2614 66.6323 37.1986 66.676 37.1369C66.6973 37.1055 66.7197 37.0752 66.7421 37.0438C66.7623 37.0159 66.855 36.8706 66.769 37.0065C66.9399 36.7369 67.1836 36.49 67.4035 36.2586C67.6233 36.0271 67.8674 35.7974 68.1175 35.5861C68.1514 35.5568 68.1864 35.524 68.2227 35.4992C68.0934 35.5888 68.2193 35.5015 68.2409 35.4851C68.3122 35.4286 68.3859 35.3744 68.4596 35.3202C68.6071 35.213 68.758 35.1092 68.9113 35.011C69.2316 34.8064 69.5661 34.6234 69.9102 34.4632C70.2053 34.3246 70.2901 33.8669 70.1177 33.6092C69.9134 33.305 69.5792 33.2536 69.2636 33.4018L69.2636 33.4006Z" fill="#FFFAFA"/>
<path d="M86.799 44.7234C87.057 44.1879 87.3216 43.6361 87.4074 43.0429C87.4931 42.4496 87.4571 41.8562 87.2654 41.2932C86.8988 40.2141 86.072 39.411 85.019 39.0026C84.7147 38.8852 84.3253 39.1485 84.2619 39.4507C84.1857 39.8128 84.3848 40.0815 84.7099 40.2078C84.5467 40.1441 84.7342 40.22 84.7655 40.2343C84.8061 40.2531 84.8455 40.2731 84.8849 40.2931C84.9766 40.3408 85.0672 40.3943 85.1532 40.4514C85.1777 40.4682 85.2021 40.485 85.2265 40.5018C85.2812 40.541 85.2754 40.5365 85.2067 40.486C85.2104 40.4997 85.2988 40.5602 85.3105 40.5703C85.3898 40.6367 85.4669 40.7077 85.5384 40.7822C85.5794 40.8251 85.6204 40.868 85.6591 40.9133C85.6884 40.9472 85.7863 41.019 85.672 40.9269C85.7431 40.9842 85.8016 41.1049 85.849 41.1833C85.907 41.2765 85.9558 41.3733 86.0047 41.47C86.0346 41.5338 86.0322 41.5304 85.9999 41.4586C86.0095 41.4814 86.0191 41.5042 86.0276 41.5282C86.0481 41.5819 86.0675 41.6367 86.0857 41.6915C86.121 41.8011 86.1506 41.9144 86.1734 42.0277C86.186 42.093 86.2103 42.1626 86.1808 42.0586C86.198 42.1192 86.197 42.1927 86.2016 42.2558C86.2095 42.3717 86.2116 42.4877 86.2079 42.6027C86.2053 42.6522 86.2017 42.7016 86.198 42.7511C86.1912 42.8225 86.1911 42.8167 86.1999 42.7338C86.1959 42.7661 86.1908 42.7995 86.1845 42.8318C86.1429 43.0727 86.069 43.3073 85.9801 43.5352C86.0196 43.4334 85.9756 43.5422 85.9591 43.5827C85.9348 43.6394 85.9094 43.6962 85.8829 43.753C85.8276 43.8746 85.7689 43.994 85.7114 44.1146C85.5707 44.4067 85.6376 44.803 85.9496 44.9605C86.2348 45.1047 86.6449 45.0352 86.7955 44.7223L86.799 44.7234Z" fill="#FFFAFA"/>
<path d="M63.0357 41.7507L55.1555 42.1648L55.2975 44.8665L63.1777 44.4524L63.0357 41.7507Z" fill="#FD810F"/>
</g>
<defs>
<clipPath id="clip0_2507_5990">
<rect width="104.327" height="90.7285" fill="white" transform="translate(0.975098 2.14331) rotate(-1.03783)"/>
</clipPath>
</defs>
</svg>
