<svg width="35" height="34" viewBox="0 0 35 34" fill="none" xmlns="http://www.w3.org/2000/svg">
<path d="M23.5894 20.8201H10.9111V24.8801H23.5894V20.8201Z" stroke="#D4D4D4" stroke-width="2" stroke-miterlimit="10"/>
<path d="M10.9111 24.8799H23.5894V26.3099C23.5894 27.7599 22.3964 28.9299 20.9405 28.9299H13.56C12.094 28.9299 10.9111 27.7499 10.9111 26.3099V24.8799Z" stroke="#D4D4D4" stroke-width="2" stroke-miterlimit="10"/>
<path d="M14.2568 28.9399H20.2421V31.1999C20.2421 32.1999 19.4232 32.9999 18.4223 32.9999H16.0767C15.0657 32.9999 14.2568 32.1899 14.2568 31.1999V28.9399Z" stroke="#D4D4D4" stroke-width="2" stroke-miterlimit="10"/>
<path d="M23.5285 20.82C26.3796 18.85 28.25 15.58 28.25 11.88C28.25 5.88001 23.3263 1 17.25 1C11.1737 1 6.25 5.88001 6.25 11.88C6.25 15.58 8.1204 18.85 10.9917 20.82" stroke="#D4D4D4" stroke-width="2" stroke-miterlimit="10"/>
</svg>
