<svg width="76" height="75" viewBox="0 0 76 75" fill="none" xmlns="http://www.w3.org/2000/svg">
<path d="M2.02794 36.0814L26.341 27.0623C26.8216 26.8872 27.1929 26.4932 27.3895 26.0116L36.3895 1.64684C36.9574 0.114465 39.1201 0.114465 39.688 1.64684L48.688 26.0116C48.8627 26.4932 49.2559 26.8653 49.7365 27.0623L74.0496 36.0814C75.5787 36.6506 75.5787 38.8178 74.0496 39.387L49.7365 48.4061C49.2559 48.5812 48.8846 48.9753 48.688 49.4569L39.688 73.8216C39.1201 75.354 36.9574 75.354 36.3895 73.8216L27.3895 49.4569C27.2148 48.9753 26.8216 48.6031 26.341 48.4061L2.02794 39.387C0.498823 38.8178 0.498823 36.6506 2.02794 36.0814Z" fill="#FFBE02"/>
</svg>
