<svg width="390" height="844" viewBox="0 0 390 844" fill="none" xmlns="http://www.w3.org/2000/svg">
<g clip-path="url(#clip0_231_2325)">
<rect width="390" height="844" fill="#FFFAFA"/>
<g clip-path="url(#clip1_231_2325)">
<path d="M23.2061 0.367432H42.2918V76.7252H-34.0659V57.6394C-34.0659 26.03 -8.40339 0.367432 23.2061 0.367432Z" fill="#FFFAFA"/>
<path d="M42.2916 0.367432H118.649V40.1502C118.649 60.3346 102.259 76.7252 82.0744 76.7252H42.2916V0.367432Z" fill="#FFBE02"/>
<path d="M118.65 0.367432H156.821C177.899 0.367432 195.007 17.4758 195.007 38.539C195.007 59.6168 177.899 76.7105 156.836 76.7105C135.758 76.7105 118.664 59.6022 118.664 38.539V0.367432H118.65Z" fill="#FFFAFA"/>
<path d="M132.828 14.5463H156.836C170.077 14.5463 180.843 25.2976 180.843 38.5537C180.843 51.7951 170.092 62.561 156.836 62.561C143.594 62.561 132.828 51.8097 132.828 38.5537V14.5463Z" fill="#FFBE02"/>
<path d="M15.9115 26.9381C15.5746 26.9381 15.2377 26.9527 14.9008 26.982C12.9527 23.159 8.96852 20.5371 4.38383 20.5371C-0.200857 20.5371 -4.21429 23.1737 -6.16242 27.026C-6.67508 26.9527 -7.18775 26.9234 -7.70041 26.9234C-14.2186 26.9234 -19.5063 32.2112 -19.5063 38.7294C-19.5063 45.2475 -14.2186 50.5353 -7.70041 50.5353C-7.29028 50.5353 -6.8948 50.5207 -6.49931 50.4767C-4.47795 54.0947 -0.625637 56.5555 3.81258 56.5555C8.25079 56.5555 12.1617 54.08 14.1684 50.4181C14.7397 50.506 15.3109 50.55 15.8968 50.55C22.415 50.55 27.7027 45.2622 27.7027 38.744C27.7027 32.2259 22.415 26.9381 15.8968 26.9381H15.9115Z" fill="#FFBE02"/>
<path d="M64.2485 37.5139L74.4432 32.563C74.6483 32.4605 74.7947 32.2847 74.8533 32.065L77.7243 21.1086C77.9 20.4202 78.8521 20.3323 79.1597 20.9621L84.1106 31.1568C84.2131 31.3619 84.3889 31.5084 84.6086 31.567L95.565 34.4379C96.2534 34.6137 96.3413 35.5657 95.7115 35.8733L85.5168 40.8242C85.3117 40.9268 85.1652 41.1025 85.1066 41.3222L82.2357 52.2786C82.0599 52.9671 81.1078 53.0549 80.8002 52.4251L75.8494 42.2304C75.7468 42.0253 75.5711 41.8788 75.3514 41.8203L64.395 38.9493C63.7065 38.7736 63.6187 37.8215 64.2485 37.5139Z" fill="#FFFAFA"/>
<path d="M-34.0659 76.7252H5.43856C25.784 76.7252 42.2918 93.233 42.2918 113.578C42.2918 133.924 25.784 150.432 5.43856 150.432H-34.0659V76.7252Z" fill="#FFBE02"/>
<path d="M42.2916 76.7252H81.7961C102.142 76.7252 118.649 93.233 118.649 113.578C118.649 133.924 102.142 150.432 81.7961 150.432H42.2916V76.7252Z" fill="#FFFAFA"/>
<path d="M158.154 76.7252C178.499 76.7252 195.007 93.233 195.007 113.578C195.007 133.924 178.499 150.432 158.154 150.432H118.65V116.23C118.65 94.4341 136.344 76.7252 158.154 76.7252Z" fill="#FFBE02"/>
<path d="M158.754 87.6229C173.08 87.6229 184.71 99.253 184.71 113.578C184.71 127.904 173.08 139.534 158.754 139.534H130.939V115.439C130.939 100.088 143.404 87.6229 158.754 87.6229Z" fill="#FFFAFA"/>
<path d="M67.7934 91.6802C67.6322 91.7242 67.4711 91.7828 67.3247 91.8414C65.8892 90.3034 63.6628 89.6003 61.5096 90.2155C59.3564 90.8307 57.8184 92.6177 57.4229 94.6976C57.1739 94.7416 56.9249 94.7855 56.6759 94.8588C53.5999 95.7376 51.8275 98.9308 52.7064 102.007C53.5852 105.083 56.7784 106.855 59.8544 105.976C60.0448 105.918 60.2352 105.859 60.411 105.786C61.8465 107.221 63.9997 107.851 66.0796 107.265C68.1596 106.679 69.6829 104.98 70.137 102.988C70.4153 102.944 70.6936 102.9 70.9719 102.812C74.0479 101.934 75.8202 98.7404 74.9414 95.6644C74.0625 92.5884 70.8694 90.816 67.7934 91.6949V91.6802Z" fill="#FFBE02"/>
<path d="M74.3261 125.985C74.165 126.029 74.0038 126.087 73.8574 126.146C72.4219 124.608 70.1955 123.905 68.0423 124.52C65.8891 125.135 64.3511 126.922 63.9556 129.002C63.7066 129.046 63.4576 129.09 63.2086 129.163C60.1326 130.042 58.3602 133.235 59.2391 136.311C60.118 139.387 63.3111 141.16 66.3871 140.281C66.5775 140.222 66.7679 140.164 66.9437 140.091C68.3792 141.526 70.5324 142.156 72.6123 141.57C74.6923 140.984 76.2156 139.285 76.6697 137.293C76.948 137.249 77.2263 137.205 77.5046 137.117C80.5806 136.238 82.3529 133.045 81.4741 129.969C80.5952 126.893 77.4021 125.121 74.3261 126V125.985Z" fill="#FFBE02"/>
<path d="M100.12 101.611C99.9592 101.655 99.798 101.714 99.6516 101.772C98.2161 100.234 95.9897 99.5314 93.8365 100.147C91.6833 100.762 90.1453 102.549 89.7498 104.629C89.5008 104.673 89.2518 104.717 89.0028 104.79C85.9268 105.669 84.1544 108.862 85.0333 111.938C85.9121 115.014 89.1053 116.786 92.1813 115.907C92.3717 115.849 92.5621 115.79 92.7379 115.717C94.1734 117.152 96.3266 117.782 98.4065 117.196C100.486 116.61 102.01 114.911 102.464 112.919C102.742 112.875 103.02 112.831 103.299 112.743C106.375 111.865 108.147 108.671 107.268 105.595C106.389 102.519 103.196 100.747 100.12 101.626V101.611Z" fill="#FFBE02"/>
<path d="M20.3351 103.223C19.9396 103.105 19.5441 103.017 19.1486 102.93C18.1819 97.803 14.4468 93.4087 9.10041 91.8414C3.72475 90.2595 -1.82667 91.9879 -5.40068 95.8109C-5.97193 95.5619 -6.55783 95.3422 -7.15838 95.1664C-14.7605 92.94 -22.7141 97.2903 -24.9405 104.892C-27.167 112.494 -22.8166 120.448 -15.2145 122.675C-14.7458 122.806 -14.2625 122.924 -13.7937 123.011C-12.6805 127.918 -9.01863 132.093 -3.84804 133.616C1.35185 135.14 6.7275 133.572 10.3162 129.998C10.946 130.291 11.6051 130.54 12.2936 130.731C19.8957 132.957 27.8493 128.607 30.0757 121.005C32.3022 113.403 27.9518 105.449 20.3497 103.223H20.3351Z" stroke="#FFFAFA" stroke-width="4.07202" stroke-linecap="round" stroke-linejoin="round"/>
<path d="M108.645 74.6891L116.423 73.3854C116.584 73.3561 116.716 73.2683 116.789 73.1364L120.861 66.3839C121.125 65.9591 121.77 66.0763 121.843 66.5743L123.146 74.3522C123.176 74.5133 123.264 74.6451 123.395 74.7184L130.148 78.7904C130.573 79.054 130.456 79.6985 129.958 79.7718L122.18 81.0754C122.019 81.1047 121.887 81.1926 121.814 81.3244L117.741 88.0769C117.478 88.5017 116.833 88.3845 116.76 87.8865L115.456 80.1087C115.427 79.9475 115.339 79.8157 115.207 79.7425L108.455 75.6705C108.03 75.4068 108.147 74.7623 108.645 74.6891Z" fill="#FFBE02"/>
<path d="M233.179 0.367432H271.35V76.7252H233.179C212.101 76.7252 195.007 59.6168 195.007 38.5536C195.007 17.4758 212.116 0.367432 233.179 0.367432Z" fill="#FFFAFA"/>
<path d="M271.365 0.367432H347.723V40.1502C347.723 60.3346 331.332 76.7252 311.148 76.7252H271.365V0.367432Z" fill="#FFBE02"/>
<path d="M347.723 0.367432H385.894C406.972 0.367432 424.066 17.4758 424.066 38.539C424.066 59.6168 406.958 76.7105 385.894 76.7105C364.817 76.7105 347.723 59.6022 347.723 38.539V0.367432Z" fill="#FFFAFA"/>
<path d="M361.887 14.5463H385.894C399.136 14.5463 409.902 25.2976 409.902 38.5537C409.902 51.7951 399.15 62.561 385.894 62.561C372.653 62.561 361.887 51.8097 361.887 38.5537V14.5463Z" fill="#FFBE02"/>
<path d="M244.985 26.9381C244.648 26.9381 244.311 26.9527 243.974 26.982C242.026 23.159 238.042 20.5371 233.457 20.5371C228.872 20.5371 224.859 23.1737 222.911 27.026C222.398 26.9527 221.885 26.9234 221.373 26.9234C214.855 26.9234 209.567 32.2112 209.567 38.7294C209.567 45.2475 214.855 50.5353 221.373 50.5353C221.783 50.5353 222.178 50.5207 222.574 50.4767C224.595 54.0947 228.448 56.5555 232.886 56.5555C237.324 56.5555 241.235 54.08 243.242 50.4181C243.813 50.506 244.384 50.55 244.97 50.55C251.488 50.55 256.776 45.2622 256.776 38.744C256.776 32.2259 251.488 26.9381 244.97 26.9381H244.985Z" fill="#FFBE02"/>
<path d="M293.321 37.5139L303.516 32.563C303.721 32.4605 303.867 32.2847 303.926 32.065L306.797 21.1086C306.973 20.4202 307.925 20.3323 308.232 20.9621L313.183 31.1568C313.286 31.3619 313.461 31.5084 313.681 31.567L324.638 34.4379C325.326 34.6137 325.414 35.5657 324.784 35.8733L314.589 40.8242C314.384 40.9268 314.238 41.1025 314.179 41.3222L311.308 52.2786C311.132 52.9671 310.18 53.0549 309.873 52.4251L304.922 42.2304C304.819 42.0253 304.644 41.8788 304.424 41.8203L293.467 38.9493C292.779 38.7736 292.691 37.8215 293.321 37.5139Z" fill="#FFFAFA"/>
<path d="M230.542 76.7252H235.83C255.443 76.7252 271.365 92.6471 271.365 112.26V114.911C271.365 134.524 255.443 150.446 235.83 150.446H233.179C212.101 150.446 195.007 133.338 195.007 112.275C195.007 92.6617 210.929 76.7398 230.542 76.7398V76.7252Z" fill="#FFBE02"/>
<path d="M271.365 76.7252H310.87C331.215 76.7252 347.723 93.233 347.723 113.578C347.723 133.924 331.215 150.432 310.87 150.432H271.365V76.7252Z" fill="#FFFAFA"/>
<path d="M387.212 76.7252C407.558 76.7252 424.066 93.233 424.066 113.578C424.066 133.924 407.558 150.432 387.212 150.432H347.708V116.23C347.708 94.4341 365.402 76.7252 387.212 76.7252Z" fill="#FFBE02"/>
<path d="M387.813 87.6229C402.138 87.6229 413.769 99.253 413.769 113.578C413.769 127.904 402.138 139.534 387.813 139.534H359.997V115.439C359.997 100.088 372.462 87.6229 387.813 87.6229Z" fill="#FFFAFA"/>
<path d="M296.866 91.6802C296.705 91.7242 296.544 91.7828 296.398 91.8414C294.962 90.3034 292.736 89.6003 290.583 90.2155C288.429 90.8307 286.892 92.6177 286.496 94.6976C286.247 94.7416 285.998 94.7855 285.749 94.8588C282.673 95.7376 280.901 98.9308 281.78 102.007C282.658 105.083 285.852 106.855 288.927 105.976C289.118 105.918 289.308 105.859 289.484 105.786C290.92 107.221 293.073 107.851 295.153 107.265C297.233 106.679 298.756 104.98 299.21 102.988C299.488 102.944 299.767 102.9 300.045 102.812C303.121 101.934 304.893 98.7404 304.014 95.6644C303.136 92.5884 299.942 90.816 296.866 91.6949V91.6802Z" fill="#FFBE02"/>
<path d="M303.385 125.985C303.223 126.029 303.062 126.087 302.916 126.146C301.48 124.608 299.254 123.905 297.101 124.52C294.948 125.135 293.41 126.922 293.014 129.002C292.765 129.046 292.516 129.09 292.267 129.163C289.191 130.042 287.419 133.235 288.298 136.311C289.176 139.387 292.37 141.16 295.446 140.281C295.636 140.222 295.826 140.164 296.002 140.091C297.438 141.526 299.591 142.156 301.671 141.57C303.751 140.984 305.274 139.285 305.728 137.293C306.006 137.249 306.285 137.205 306.563 137.117C309.639 136.238 311.411 133.045 310.533 129.969C309.654 126.893 306.461 125.121 303.385 126V125.985Z" fill="#FFBE02"/>
<path d="M329.179 101.611C329.018 101.655 328.856 101.714 328.71 101.772C327.275 100.234 325.048 99.5314 322.895 100.147C320.742 100.762 319.204 102.549 318.808 104.629C318.559 104.673 318.31 104.717 318.061 104.79C314.985 105.669 313.213 108.862 314.092 111.938C314.971 115.014 318.164 116.786 321.24 115.907C321.43 115.849 321.621 115.79 321.796 115.717C323.232 117.152 325.385 117.782 327.465 117.196C329.545 116.61 331.068 114.911 331.522 112.919C331.801 112.875 332.079 112.831 332.357 112.743C335.433 111.865 337.206 108.671 336.327 105.595C335.448 102.519 332.255 100.747 329.179 101.626V101.611Z" fill="#FFBE02"/>
<path d="M250.961 104.072C250.566 103.955 250.17 103.867 249.775 103.779C248.808 98.6525 245.073 94.2583 239.726 92.691C234.351 91.109 228.799 92.8374 225.225 96.6604C224.654 96.4114 224.068 96.1917 223.468 96.016C215.866 93.7895 207.912 98.1399 205.685 105.742C203.459 113.344 207.809 121.298 215.411 123.524C215.88 123.656 216.364 123.773 216.832 123.861C217.945 128.768 221.607 132.942 226.778 134.466C231.978 135.989 237.353 134.422 240.942 130.848C241.572 131.141 242.231 131.39 242.92 131.58C250.522 133.807 258.475 129.456 260.702 121.854C262.928 114.252 258.578 106.299 250.976 104.072H250.961Z" stroke="#FFFAFA" stroke-width="4.07202" stroke-linecap="round" stroke-linejoin="round"/>
<path d="M337.704 74.6891L345.482 73.3854C345.643 73.3561 345.775 73.2683 345.848 73.1364L349.92 66.3839C350.183 65.9591 350.828 66.0763 350.901 66.5743L352.205 74.3522C352.234 74.5133 352.322 74.6451 352.454 74.7184L359.206 78.7904C359.631 79.054 359.514 79.6985 359.016 79.7718L351.238 81.0754C351.077 81.1047 350.945 81.1926 350.872 81.3244L346.8 88.0769C346.536 88.5017 345.892 88.3845 345.818 87.8865L344.515 80.1087C344.486 79.9475 344.398 79.8157 344.266 79.7425L337.513 75.6705C337.089 75.4068 337.206 74.7623 337.704 74.6891Z" fill="#FFBE02"/>
<path d="M23.2061 150.432H42.2918V226.789H-34.0659V207.704C-34.0659 176.094 -8.40339 150.432 23.2061 150.432Z" fill="#FFFAFA"/>
<path d="M42.2916 150.432H118.649V190.214C118.649 210.399 102.259 226.789 82.0744 226.789H42.2916V150.432Z" fill="#FFBE02"/>
<path d="M118.65 150.432H156.821C177.899 150.432 194.993 167.54 194.993 188.603C194.993 209.681 177.884 226.775 156.821 226.775C135.743 226.775 118.65 209.666 118.65 188.603V150.432Z" fill="#FFFAFA"/>
<path d="M132.828 164.611H156.836C170.077 164.611 180.843 175.362 180.843 188.618C180.843 201.859 170.092 212.625 156.836 212.625C143.594 212.625 132.828 201.874 132.828 188.618V164.611Z" fill="#FFBE02"/>
<path d="M15.9115 177.002C15.5746 177.002 15.2377 177.017 14.9008 177.046C12.9527 173.223 8.96852 170.601 4.38383 170.601C-0.200857 170.601 -4.21429 173.238 -6.16242 177.09C-6.67508 177.017 -7.18775 176.988 -7.70041 176.988C-14.2186 176.988 -19.5063 182.275 -19.5063 188.794C-19.5063 195.312 -14.2186 200.6 -7.70041 200.6C-7.29028 200.6 -6.8948 200.585 -6.49931 200.541C-4.47795 204.159 -0.625637 206.62 3.81258 206.62C8.25079 206.62 12.1617 204.144 14.1684 200.482C14.7397 200.57 15.3109 200.614 15.8968 200.614C22.415 200.614 27.7027 195.326 27.7027 188.808C27.7027 182.29 22.415 177.002 15.8968 177.002H15.9115Z" fill="#FFBE02"/>
<path d="M64.2485 187.578L74.4432 182.627C74.6483 182.525 74.7947 182.349 74.8533 182.129L77.7243 171.173C77.9 170.484 78.8521 170.396 79.1597 171.026L84.1106 181.221C84.2131 181.426 84.3889 181.573 84.6086 181.631L95.565 184.502C96.2534 184.678 96.3413 185.63 95.7115 185.938L85.5168 190.888C85.3117 190.991 85.1652 191.167 85.1066 191.386L82.2357 202.343C82.0599 203.031 81.1078 203.119 80.8002 202.489L75.8494 192.295C75.7468 192.09 75.5711 191.943 75.3514 191.884L64.395 189.014C63.7065 188.838 63.6187 187.886 64.2485 187.578Z" fill="#FFFAFA"/>
<path d="M-34.0659 226.789H5.43856C25.784 226.789 42.2918 243.297 42.2918 263.643C42.2918 283.988 25.784 300.496 5.43856 300.496H-34.0659V226.789Z" fill="#FFBE02"/>
<path d="M42.2916 226.789H81.7961C102.142 226.789 118.649 243.297 118.649 263.643C118.649 283.988 102.142 300.496 81.7961 300.496H42.2916V226.789Z" fill="#FFFAFA"/>
<path d="M158.154 226.789C178.499 226.789 195.007 243.297 195.007 263.643C195.007 283.988 178.499 300.496 158.154 300.496H118.65V266.294C118.65 244.498 136.344 226.789 158.154 226.789Z" fill="#FFBE02"/>
<path d="M158.754 237.687C173.08 237.687 184.71 249.317 184.71 263.643C184.71 277.968 173.08 289.598 158.754 289.598H130.939V265.503C130.939 250.152 143.404 237.687 158.754 237.687Z" fill="#FFFAFA"/>
<path d="M67.7934 241.759C67.6322 241.803 67.4711 241.862 67.3247 241.92C65.8892 240.382 63.6628 239.679 61.5096 240.294C59.3564 240.91 57.8184 242.697 57.4229 244.777C57.1739 244.82 56.9249 244.864 56.6759 244.938C53.5999 245.817 51.8275 249.01 52.7064 252.086C53.5852 255.162 56.7784 256.934 59.8544 256.055C60.0448 255.997 60.2352 255.938 60.411 255.865C61.8465 257.3 63.9997 257.93 66.0796 257.344C68.1596 256.758 69.6829 255.059 70.137 253.067C70.4153 253.023 70.6936 252.979 70.9719 252.891C74.0479 252.012 75.8202 248.819 74.9414 245.743C74.0625 242.667 70.8694 240.895 67.7934 241.774V241.759Z" fill="#FFBE02"/>
<path d="M74.3261 276.064C74.165 276.108 74.0038 276.166 73.8574 276.225C72.4219 274.687 70.1955 273.984 68.0423 274.599C65.8891 275.214 64.3511 277.001 63.9556 279.081C63.7066 279.125 63.4576 279.169 63.2086 279.242C60.1326 280.121 58.3602 283.314 59.2391 286.39C60.118 289.466 63.3111 291.239 66.3871 290.36C66.5775 290.301 66.7679 290.243 66.9437 290.169C68.3792 291.605 70.5324 292.235 72.6123 291.649C74.6923 291.063 76.2156 289.364 76.6697 287.372C76.948 287.328 77.2263 287.284 77.5046 287.196C80.5806 286.317 82.3529 283.124 81.4741 280.048C80.5952 276.972 77.4021 275.2 74.3261 276.078V276.064Z" fill="#FFBE02"/>
<path d="M100.12 251.676C99.9592 251.719 99.798 251.778 99.6516 251.837C98.2161 250.299 95.9897 249.596 93.8365 250.211C91.6833 250.826 90.1453 252.613 89.7498 254.693C89.5008 254.737 89.2518 254.781 89.0028 254.854C85.9268 255.733 84.1544 258.926 85.0333 262.002C85.9121 265.078 89.1053 266.85 92.1813 265.972C92.3717 265.913 92.5621 265.854 92.7379 265.781C94.1734 267.217 96.3266 267.846 98.4065 267.261C100.486 266.675 102.01 264.976 102.464 262.983C102.742 262.939 103.02 262.896 103.299 262.808C106.375 261.929 108.147 258.736 107.268 255.66C106.389 252.584 103.196 250.811 100.12 251.69V251.676Z" fill="#FFBE02"/>
<path d="M20.3351 253.287C19.9396 253.17 19.5441 253.082 19.1486 252.994C18.1819 247.867 14.4468 243.473 9.10041 241.906C3.72475 240.324 -1.82667 242.052 -5.40068 245.875C-5.97193 245.626 -6.55783 245.406 -7.15838 245.231C-14.7605 243.004 -22.7141 247.355 -24.9405 254.957C-27.167 262.559 -22.8166 270.512 -15.2145 272.739C-14.7458 272.871 -14.2625 272.988 -13.7937 273.076C-12.6805 277.983 -9.01863 282.157 -3.84804 283.681C1.35185 285.204 6.7275 283.637 10.3162 280.063C10.946 280.356 11.6051 280.605 12.2936 280.795C19.8957 283.021 27.8493 278.671 30.0757 271.069C32.3022 263.467 27.9518 255.513 20.3497 253.287H20.3351Z" stroke="#FFFAFA" stroke-width="4.07202" stroke-linecap="round" stroke-linejoin="round"/>
<path d="M108.645 224.768L116.423 223.465C116.584 223.435 116.716 223.347 116.789 223.216L120.861 216.463C121.125 216.038 121.77 216.155 121.843 216.653L123.146 224.431C123.176 224.592 123.264 224.724 123.395 224.797L130.148 228.869C130.573 229.133 130.456 229.778 129.958 229.851L122.18 231.154C122.019 231.184 121.887 231.272 121.814 231.404L117.741 238.156C117.478 238.581 116.833 238.464 116.76 237.966L115.456 230.188C115.427 230.027 115.339 229.895 115.207 229.822L108.455 225.75C108.03 225.486 108.147 224.841 108.645 224.768Z" fill="#FFBE02"/>
<path d="M230.967 150.432H271.365V226.789H235.317C213.068 226.789 195.007 208.729 195.007 186.479V186.391C195.007 166.544 211.119 150.432 230.967 150.432Z" fill="#FFFAFA"/>
<path d="M271.365 150.432H347.722V190.214C347.722 210.399 331.332 226.789 311.148 226.789H271.365V150.432Z" fill="#FFBE02"/>
<path d="M347.723 150.432H385.894C406.972 150.432 424.066 167.54 424.066 188.603C424.066 209.681 406.957 226.775 385.894 226.775C364.816 226.775 347.723 209.666 347.723 188.603V150.432Z" fill="#FFFAFA"/>
<path d="M361.887 164.611H385.894C399.135 164.611 409.901 175.362 409.901 188.618C409.901 201.859 399.15 212.625 385.894 212.625C372.653 212.625 361.887 201.874 361.887 188.618V164.611Z" fill="#FFBE02"/>
<path d="M244.985 177.002C244.648 177.002 244.311 177.017 243.974 177.046C242.026 173.223 238.042 170.601 233.457 170.601C228.872 170.601 224.859 173.238 222.911 177.09C222.398 177.017 221.885 176.988 221.373 176.988C214.855 176.988 209.567 182.275 209.567 188.794C209.567 195.312 214.855 200.6 221.373 200.6C221.783 200.6 222.178 200.585 222.574 200.541C224.595 204.159 228.447 206.62 232.886 206.62C237.324 206.62 241.235 204.144 243.242 200.482C243.813 200.57 244.384 200.614 244.97 200.614C251.488 200.614 256.776 195.326 256.776 188.808C256.776 182.29 251.488 177.002 244.97 177.002H244.985Z" fill="#FFBE02"/>
<path d="M293.321 187.578L303.516 182.627C303.721 182.525 303.867 182.349 303.926 182.129L306.797 171.173C306.973 170.484 307.925 170.396 308.232 171.026L313.183 181.221C313.286 181.426 313.461 181.573 313.681 181.631L324.638 184.502C325.326 184.678 325.414 185.63 324.784 185.938L314.589 190.888C314.384 190.991 314.238 191.167 314.179 191.386L311.308 202.343C311.132 203.031 310.18 203.119 309.873 202.489L304.922 192.295C304.819 192.09 304.644 191.943 304.424 191.884L293.467 189.014C292.779 188.838 292.691 187.886 293.321 187.578Z" fill="#FFFAFA"/>
<path d="M234.497 226.789C254.843 226.789 271.35 243.297 271.35 263.643C271.35 283.988 254.843 300.496 234.497 300.496H194.993V266.294C194.993 244.498 212.687 226.789 234.497 226.789Z" fill="#FFBE02"/>
<path d="M271.365 226.789H310.869C331.215 226.789 347.722 243.297 347.722 263.643C347.722 283.988 331.215 300.496 310.869 300.496H271.365V226.789Z" fill="#FFFAFA"/>
<path d="M387.212 226.789C407.558 226.789 424.066 243.297 424.066 263.643C424.066 283.988 407.558 300.496 387.212 300.496H347.708V266.294C347.708 244.498 365.402 226.789 387.212 226.789Z" fill="#FFBE02"/>
<path d="M387.813 237.687C402.138 237.687 413.768 249.317 413.768 263.643C413.768 277.968 402.138 289.598 387.813 289.598H359.997V265.503C359.997 250.152 372.462 237.687 387.813 237.687Z" fill="#FFFAFA"/>
<path d="M296.866 241.759C296.705 241.803 296.544 241.862 296.398 241.92C294.962 240.382 292.736 239.679 290.583 240.294C288.429 240.91 286.892 242.697 286.496 244.777C286.247 244.82 285.998 244.864 285.749 244.938C282.673 245.817 280.901 249.01 281.78 252.086C282.658 255.162 285.852 256.934 288.927 256.055C289.118 255.997 289.308 255.938 289.484 255.865C290.92 257.3 293.073 257.93 295.153 257.344C297.233 256.758 298.756 255.059 299.21 253.067C299.488 253.023 299.767 252.979 300.045 252.891C303.121 252.012 304.893 248.819 304.014 245.743C303.136 242.667 299.942 240.895 296.866 241.774V241.759Z" fill="#FFBE02"/>
<path d="M303.385 276.064C303.223 276.108 303.062 276.166 302.916 276.225C301.48 274.687 299.254 273.984 297.101 274.599C294.948 275.214 293.41 277.001 293.014 279.081C292.765 279.125 292.516 279.169 292.267 279.242C289.191 280.121 287.419 283.314 288.298 286.39C289.176 289.466 292.37 291.239 295.446 290.36C295.636 290.301 295.826 290.243 296.002 290.169C297.438 291.605 299.591 292.235 301.671 291.649C303.751 291.063 305.274 289.364 305.728 287.372C306.006 287.328 306.285 287.284 306.563 287.196C309.639 286.317 311.411 283.124 310.533 280.048C309.654 276.972 306.461 275.2 303.385 276.078V276.064Z" fill="#FFBE02"/>
<path d="M329.179 251.676C329.018 251.719 328.856 251.778 328.71 251.837C327.275 250.299 325.048 249.596 322.895 250.211C320.742 250.826 319.204 252.613 318.808 254.693C318.559 254.737 318.31 254.781 318.061 254.854C314.985 255.733 313.213 258.926 314.092 262.002C314.971 265.078 318.164 266.85 321.24 265.972C321.43 265.913 321.621 265.854 321.796 265.781C323.232 267.217 325.385 267.846 327.465 267.261C329.545 266.675 331.068 264.976 331.522 262.983C331.801 262.939 332.079 262.896 332.357 262.808C335.433 261.929 337.206 258.736 336.327 255.66C335.448 252.584 332.255 250.811 329.179 251.69V251.676Z" fill="#FFBE02"/>
<path d="M250.961 254.151C250.565 254.034 250.17 253.946 249.774 253.858C248.808 248.731 245.073 244.337 239.726 242.77C234.351 241.188 228.799 242.916 225.225 246.739C224.654 246.49 224.068 246.271 223.467 246.095C215.865 243.868 207.912 248.219 205.685 255.821C203.459 263.423 207.809 271.376 215.411 273.603C215.88 273.735 216.363 273.852 216.832 273.94C217.945 278.847 221.607 283.021 226.778 284.545C231.978 286.068 237.353 284.501 240.942 280.927C241.572 281.22 242.231 281.469 242.919 281.659C250.522 283.886 258.475 279.535 260.702 271.933C262.928 264.331 258.578 256.377 250.976 254.151H250.961Z" stroke="#FFFAFA" stroke-width="4.07202" stroke-linecap="round" stroke-linejoin="round"/>
<path d="M337.704 224.768L345.482 223.465C345.643 223.435 345.775 223.347 345.848 223.216L349.92 216.463C350.183 216.038 350.828 216.155 350.901 216.653L352.205 224.431C352.234 224.592 352.322 224.724 352.454 224.797L359.206 228.869C359.631 229.133 359.514 229.778 359.016 229.851L351.238 231.154C351.077 231.184 350.945 231.272 350.872 231.404L346.8 238.156C346.536 238.581 345.892 238.464 345.818 237.966L344.515 230.188C344.486 230.027 344.398 229.895 344.266 229.822L337.513 225.75C337.089 225.486 337.206 224.841 337.704 224.768Z" fill="#FFBE02"/>
</g>
<g filter="url(#filter0_d_231_2325)">
<path d="M0 253C0 225.386 22.3858 203 50 203H340C367.614 203 390 225.386 390 253V844H0V253Z" fill="#FFFAFA"/>
</g>
</g>
<defs>
<filter id="filter0_d_231_2325" x="-30" y="169" width="450" height="701" filterUnits="userSpaceOnUse" color-interpolation-filters="sRGB">
<feFlood flood-opacity="0" result="BackgroundImageFix"/>
<feColorMatrix in="SourceAlpha" type="matrix" values="0 0 0 0 0 0 0 0 0 0 0 0 0 0 0 0 0 0 127 0" result="hardAlpha"/>
<feOffset dy="-4"/>
<feGaussianBlur stdDeviation="15"/>
<feColorMatrix type="matrix" values="0 0 0 0 0 0 0 0 0 0 0 0 0 0 0 0 0 0 0.15 0"/>
<feBlend mode="normal" in2="BackgroundImageFix" result="effect1_dropShadow_231_2325"/>
<feBlend mode="normal" in="SourceGraphic" in2="effect1_dropShadow_231_2325" result="shape"/>
</filter>
<clipPath id="clip0_231_2325">
<rect width="390" height="844" fill="white"/>
</clipPath>
<clipPath id="clip1_231_2325">
<rect width="458.132" height="300.129" fill="white" transform="translate(-34.0659 0.367432)"/>
</clipPath>
</defs>
</svg>
