<svg width="150" height="32" viewBox="0 0 150 32" fill="none" xmlns="http://www.w3.org/2000/svg">
<g clip-path="url(#clip0_228_3982)">
<path d="M4.97272 7.96477C4.97272 8.53659 5.05287 9.09585 5.20036 9.63311C4.02367 10.1452 0.48721 11.8418 0.500035 15.9169C0.51286 19.9982 4.06215 22.2352 5.24525 22.741C5.02722 23.5548 5.04646 24.6638 5.04646 24.8524C5.04646 35.7201 35.4832 35.2865 35.4832 15.9169C35.4832 -3.45281 4.93104 -3.76699 4.97272 7.96477ZM10.5548 24.1831L10.5003 7.68514C10.5003 6.78343 10.978 5.9414 11.7763 5.49526C16.2202 3.01632 30.039 3.64155 30.0807 15.9169C30.1192 26.8789 17.15 27.8968 12.6581 26.8097C11.4237 26.5113 10.558 25.4273 10.5548 24.1831Z" fill="#FFBE02"/>
<path d="M13.886 15.546L17.4545 14.2515C17.5251 14.2264 17.5796 14.1698 17.6084 14.1007L18.9294 10.6038C19.0127 10.3839 19.3302 10.3839 19.4135 10.6038L20.7345 14.1007C20.7601 14.1698 20.8179 14.2232 20.8884 14.2515L24.4569 15.546C24.6814 15.6276 24.6814 15.9387 24.4569 16.0204L20.8884 17.3148C20.8179 17.34 20.7633 17.3965 20.7345 17.4656L19.4135 20.9626C19.3302 21.1825 19.0127 21.1825 18.9294 20.9626L17.6084 17.4656C17.5828 17.3965 17.5251 17.3431 17.4545 17.3148L13.886 16.0204C13.6615 15.9387 13.6615 15.6276 13.886 15.546Z" fill="#FFBE02"/>
<path d="M50.8667 11.9548C51.649 12.3601 52.255 12.9319 52.6814 13.664C53.111 14.3992 53.3259 15.2443 53.3259 16.2057C53.3259 17.1671 53.111 18.0029 52.6814 18.7412C52.2518 19.4796 51.6458 20.0514 50.8571 20.4598C50.0715 20.8651 49.1578 21.0694 48.1221 21.0694H44.4061V11.3484H48.1221C49.1674 11.3484 50.0812 11.5526 50.8635 11.9579L50.8667 11.9548ZM50.1036 18.2857C50.6134 17.7955 50.8667 17.1043 50.8667 16.2089C50.8667 15.3134 50.6134 14.6159 50.1036 14.1164C49.5938 13.6168 48.882 13.3686 47.9683 13.3686H46.8236V19.0177H47.9683C48.882 19.0177 49.5938 18.7726 50.1036 18.2825V18.2857Z" fill="#3C3C3C"/>
<path d="M58.1577 13.6263C58.5809 13.3812 59.0522 13.2587 59.5716 13.2587V15.7659H58.9079C58.3052 15.7659 57.8531 15.8916 57.5517 16.146C57.2503 16.4005 57.0996 16.8467 57.0996 17.4813V21.0694H54.6821V13.3404H57.0996V14.6285C57.3818 14.2044 57.7345 13.8682 58.1609 13.6231L58.1577 13.6263Z" fill="#3C3C3C"/>
<path d="M68.1226 17.7736H62.6527C62.6912 18.2543 62.8483 18.6219 63.1272 18.8732C63.4062 19.1277 63.746 19.2534 64.1532 19.2534C64.756 19.2534 65.176 19.0052 65.4101 18.5056H67.9815C67.85 19.0146 67.6128 19.4702 67.2665 19.8755C66.9234 20.2808 66.4906 20.6013 65.9744 20.8306C65.455 21.0631 64.8778 21.1762 64.2366 21.1762C63.4639 21.1762 62.7746 21.016 62.1718 20.6924C61.569 20.3688 61.0977 19.9069 60.7578 19.3068C60.418 18.7067 60.248 18.0061 60.248 17.2018C60.248 16.3974 60.4148 15.6968 60.7482 15.0967C61.0817 14.4966 61.5498 14.0348 62.1558 13.7111C62.7585 13.3875 63.4511 13.2273 64.2334 13.2273C65.0157 13.2273 65.6762 13.3844 66.2693 13.6986C66.8625 14.0128 67.3274 14.4589 67.6609 15.0433C67.9943 15.6245 68.161 16.3032 68.161 17.0792C68.161 17.3023 68.1482 17.5317 68.1193 17.7704L68.1226 17.7736ZM65.6922 16.4571C65.6922 16.0518 65.5511 15.7282 65.269 15.4863C64.9869 15.2475 64.6342 15.125 64.2077 15.125C63.7813 15.125 63.4607 15.2412 63.1817 15.4706C62.9028 15.7031 62.7329 16.0298 62.6655 16.454H65.689L65.6922 16.4571Z" fill="#3C3C3C"/>
<path d="M69.4147 15.0998C69.7193 14.4997 70.1393 14.0378 70.6651 13.7142C71.1941 13.3906 71.7809 13.2303 72.4317 13.2303C72.9864 13.2303 73.4738 13.3403 73.8938 13.5634C74.3138 13.7865 74.6344 14.0755 74.8621 14.4368V13.3435H77.2796V21.0725H74.8621V19.9791C74.628 20.3404 74.2978 20.6295 73.8809 20.8525C73.4609 21.0756 72.9736 21.1856 72.4189 21.1856C71.7777 21.1856 71.1941 21.0222 70.6651 20.6954C70.1361 20.3687 69.7193 19.9005 69.4147 19.2973C69.1069 18.6941 68.9562 17.9934 68.9562 17.1985C68.9562 16.4036 69.1101 15.7061 69.4147 15.106V15.0998ZM74.3619 15.8067C74.0284 15.4642 73.6212 15.2946 73.1403 15.2946C72.6594 15.2946 72.2522 15.4642 71.9187 15.8004C71.5853 16.1366 71.4186 16.6016 71.4186 17.1923C71.4186 17.7829 71.5853 18.2511 71.9187 18.5967C72.2522 18.9423 72.6594 19.1151 73.1403 19.1151C73.6212 19.1151 74.0284 18.9454 74.3619 18.603C74.6953 18.2605 74.8621 17.7955 74.8621 17.2048C74.8621 16.6141 74.6953 16.1491 74.3619 15.8067Z" fill="#3C3C3C"/>
<path d="M91.4352 14.1321C92.0155 14.7133 92.3041 15.5208 92.3041 16.5545V21.0693H89.9026V16.8718C89.9026 16.3722 89.7679 15.9889 89.4986 15.7156C89.2293 15.4422 88.8606 15.3071 88.3893 15.3071C87.9179 15.3071 87.5492 15.4422 87.2799 15.7156C87.0106 15.9889 86.8759 16.3722 86.8759 16.8718V21.0693H84.4745V16.8718C84.4745 16.3722 84.3398 15.9889 84.0705 15.7156C83.8011 15.4422 83.4324 15.3071 82.9611 15.3071C82.4898 15.3071 82.1211 15.4422 81.8518 15.7156C81.5824 15.9889 81.4478 16.3722 81.4478 16.8718V21.0693H79.0303V13.3403H81.4478V14.3112C81.6914 13.9876 82.0121 13.7331 82.4096 13.5414C82.804 13.3529 83.2529 13.2586 83.7531 13.2586C84.3462 13.2586 84.8752 13.3843 85.3433 13.6325C85.8082 13.8807 86.1738 14.2389 86.4399 14.6976C86.7124 14.2735 87.0843 13.9279 87.5556 13.6577C88.027 13.3906 88.54 13.2555 89.0946 13.2555C90.0757 13.2555 90.8549 13.5477 91.4352 14.1289V14.1321Z" fill="#3C3C3C"/>
<path d="M97.2224 13.6263C97.6456 12.8754 98.2387 12.2879 98.9954 11.8669C99.7553 11.4459 100.615 11.2354 101.573 11.2354C102.75 11.2354 103.76 11.5401 104.597 12.1496C105.434 12.7592 105.995 13.5886 106.28 14.6411H103.622C103.423 14.2358 103.144 13.9248 102.782 13.7143C102.42 13.5006 102.006 13.397 101.544 13.397C100.801 13.397 100.198 13.6515 99.736 14.1573C99.2743 14.6663 99.0435 15.3449 99.0435 16.1932C99.0435 17.0415 99.2743 17.7202 99.736 18.2292C100.198 18.7382 100.801 18.9895 101.544 18.9895C102.006 18.9895 102.42 18.8827 102.782 18.6722C103.144 18.4585 103.426 18.1506 103.622 17.7453H106.28C105.998 18.7978 105.437 19.6273 104.597 20.2305C103.757 20.8369 102.75 21.1385 101.573 21.1385C100.611 21.1385 99.7521 20.928 98.9954 20.507C98.2355 20.086 97.6456 19.5016 97.2224 18.7539C96.7991 18.0061 96.5875 17.1515 96.5875 16.1932C96.5875 15.235 96.7991 14.3772 97.2224 13.6232V13.6263Z" fill="#3C3C3C"/>
<path d="M109.271 20.6954C108.653 20.3718 108.168 19.91 107.816 19.3099C107.463 18.7098 107.287 18.0091 107.287 17.2048C107.287 16.4005 107.466 15.7124 107.825 15.106C108.184 14.5028 108.672 14.0378 109.294 13.7142C109.916 13.3906 110.612 13.2303 111.384 13.2303C112.157 13.2303 112.853 13.3906 113.475 13.7142C114.097 14.0378 114.587 14.5028 114.943 15.106C115.302 15.7124 115.482 16.4099 115.482 17.2048C115.482 17.9997 115.299 18.6972 114.937 19.3036C114.575 19.91 114.081 20.3718 113.452 20.6954C112.827 21.0191 112.125 21.1793 111.352 21.1793C110.58 21.1793 109.884 21.0191 109.268 20.6954H109.271ZM112.535 18.6312C112.859 18.2982 113.023 17.8238 113.023 17.2048C113.023 16.5859 112.866 16.1114 112.548 15.7784C112.231 15.4454 111.843 15.2788 111.381 15.2788C110.919 15.2788 110.519 15.4422 110.208 15.7721C109.897 16.0989 109.743 16.5764 109.743 17.2048C109.743 17.8332 109.897 18.2982 110.201 18.6312C110.506 18.9643 110.891 19.1308 111.352 19.1308C111.814 19.1308 112.208 18.9643 112.532 18.6312H112.535Z" fill="#3C3C3C"/>
<path d="M123.783 14.1384C124.334 14.7259 124.61 15.5302 124.61 16.5545V21.0693H122.209V16.8718C122.209 16.3534 122.071 15.9544 121.798 15.6685C121.526 15.3825 121.157 15.238 120.695 15.238C120.234 15.238 119.865 15.3825 119.592 15.6685C119.32 15.9544 119.182 16.3565 119.182 16.8718V21.0693H116.764V13.3403H119.182V14.3646C119.426 14.0221 119.756 13.7519 120.173 13.554C120.586 13.356 121.054 13.2555 121.571 13.2555C122.494 13.2555 123.231 13.5477 123.783 14.1352V14.1384Z" fill="#3C3C3C"/>
<path d="M130.689 19.0617V21.0693H129.458C128.583 21.0693 127.9 20.8588 127.409 20.4378C126.919 20.0168 126.675 19.3319 126.675 18.3799V15.304H125.713V13.3372H126.675V11.4552H129.092V13.3372H130.676V15.304H129.092V18.405C129.092 18.6375 129.15 18.8009 129.262 18.9046C129.375 19.0051 129.564 19.0585 129.827 19.0585H130.689V19.0617Z" fill="#3C3C3C"/>
<path d="M135.508 13.6263C135.931 13.3812 136.403 13.2587 136.922 13.2587V15.7659H136.258C135.656 15.7659 135.203 15.8916 134.902 16.146C134.601 16.4005 134.45 16.8467 134.45 17.4813V21.0694H132.032V13.3404H134.45V14.6285C134.732 14.2044 135.085 13.8682 135.511 13.6231L135.508 13.6263Z" fill="#3C3C3C"/>
<path d="M139.583 20.6954C138.964 20.3718 138.48 19.91 138.127 19.3099C137.775 18.7098 137.598 18.0091 137.598 17.2048C137.598 16.4005 137.778 15.7124 138.137 15.106C138.496 14.5028 138.983 14.0378 139.605 13.7142C140.227 13.3906 140.923 13.2303 141.696 13.2303C142.469 13.2303 143.164 13.3906 143.786 13.7142C144.408 14.0378 144.899 14.5028 145.255 15.106C145.614 15.7124 145.794 16.4099 145.794 17.2048C145.794 17.9997 145.611 18.6972 145.248 19.3036C144.886 19.91 144.392 20.3718 143.764 20.6954C143.139 21.0191 142.437 21.1793 141.664 21.1793C140.891 21.1793 140.195 21.0191 139.58 20.6954H139.583ZM142.85 18.6312C143.174 18.2982 143.338 17.8238 143.338 17.2048C143.338 16.5859 143.18 16.1114 142.863 15.7784C142.546 15.4454 142.158 15.2788 141.696 15.2788C141.234 15.2788 140.833 15.4422 140.522 15.7721C140.211 16.0989 140.058 16.5764 140.058 17.2048C140.058 17.8332 140.211 18.2982 140.516 18.6312C140.821 18.9643 141.205 19.1308 141.667 19.1308C142.129 19.1308 142.523 18.9643 142.847 18.6312H142.85Z" fill="#3C3C3C"/>
<path d="M149.5 10.8206V21.0694H147.083V10.8206H149.5Z" fill="#3C3C3C"/>
</g>
<defs>
<clipPath id="clip0_228_3982">
<rect width="149" height="32" fill="white" transform="translate(0.5)"/>
</clipPath>
</defs>
</svg>
