<svg width="23" height="33" viewBox="0 0 23 33" fill="none" xmlns="http://www.w3.org/2000/svg">
<path d="M17.5894 19.8301H4.91113V23.8901H17.5894V19.8301Z" stroke="#FFBE02" stroke-width="2" stroke-miterlimit="10"/>
<path d="M4.91113 23.8799H17.5894V25.3099C17.5894 26.7599 16.3964 27.9299 14.9405 27.9299H7.56003C6.09404 27.9299 4.91113 26.7499 4.91113 25.3099V23.8799Z" stroke="#FFBE02" stroke-width="2" stroke-miterlimit="10"/>
<path d="M8.25684 27.9399H14.2421V30.1999C14.2421 31.1999 13.4232 31.9999 12.4223 31.9999H10.0767C9.06566 31.9999 8.25684 31.1899 8.25684 30.1999V27.9399Z" stroke="#FFBE02" stroke-width="2" stroke-miterlimit="10"/>
<path d="M17.5285 19.82C20.3796 17.85 22.25 14.58 22.25 10.88C22.25 4.88 17.3364 0 11.25 0C5.1636 0 0.25 4.88 0.25 10.88C0.25 14.58 2.1204 17.85 4.99173 19.82" fill="#FFBE02"/>
</svg>
