<svg width="24" height="24" viewBox="0 0 24 24" fill="none" xmlns="http://www.w3.org/2000/svg">
<circle cx="12" cy="12" r="12" fill="url(#paint0_linear_5406_1304)"/>
<path d="M10.56 15.58C10.56 15.0467 10.6467 14.58 10.82 14.18C11.0067 13.7667 11.2267 13.42 11.48 13.14C11.7467 12.86 12.0933 12.5267 12.52 12.14C13.0533 11.6733 13.4467 11.2733 13.7 10.94C13.9533 10.5933 14.08 10.18 14.08 9.7C14.08 9.04667 13.8267 8.52667 13.32 8.14C12.8133 7.74 12.1133 7.54 11.22 7.54C9.66 7.54 8.46667 8.06667 7.64 9.12L6.18 8.08C6.74 7.36 7.45333 6.80667 8.32 6.42C9.2 6.03333 10.2133 5.84 11.36 5.84C12.8133 5.84 13.9667 6.16 14.82 6.8C15.6733 7.42667 16.1 8.29333 16.1 9.4C16.1 9.94667 16.0067 10.4333 15.82 10.86C15.6467 11.2733 15.4333 11.62 15.18 11.9C14.9267 12.18 14.5867 12.5133 14.16 12.9C13.6133 13.3933 13.2067 13.8267 12.94 14.2C12.6867 14.5733 12.56 15.0333 12.56 15.58H10.56ZM11.58 20.12C11.2067 20.12 10.8933 20 10.64 19.76C10.4 19.5067 10.28 19.2 10.28 18.84C10.28 18.48 10.4 18.18 10.64 17.94C10.8933 17.6867 11.2067 17.56 11.58 17.56C11.9533 17.56 12.26 17.6867 12.5 17.94C12.74 18.18 12.86 18.48 12.86 18.84C12.86 19.2 12.7333 19.5067 12.48 19.76C12.24 20 11.94 20.12 11.58 20.12Z" fill="white"/>
<defs>
<linearGradient id="paint0_linear_5406_1304" x1="0" y1="12" x2="24" y2="12" gradientUnits="userSpaceOnUse">
<stop offset="0.11" stop-color="#D67EFF"/>
<stop offset="0.72" stop-color="#FF9C41"/>
<stop offset="1" stop-color="#EDAC0A"/>
</linearGradient>
</defs>
</svg>
