<svg width="34" height="35" viewBox="0 0 34 35" fill="none" xmlns="http://www.w3.org/2000/svg">
<path d="M32.9645 23.0991V23.1698C32.9645 26.2989 30.6204 28.827 27.7259 28.827H19.2198C18.7758 28.827 18.4206 28.438 18.4206 27.9607V19.3865C18.4206 18.9269 18.0832 18.5733 17.657 18.5733H16.2542C15.828 18.5733 15.4906 18.9446 15.4906 19.3865V27.7486C15.4906 28.332 15.0466 28.8093 14.5139 28.8093H6.2919C3.36182 28.8093 1 26.2459 1 23.0814C1 20.624 2.18979 18.4849 3.96559 17.2651C3.50388 15.0376 4.07214 12.6156 5.68812 10.8831C7.28635 9.15056 9.54162 8.53181 11.6016 9.02681C12.7381 7.09983 14.727 5.82697 17 5.82697C19.273 5.82697 21.2619 7.11751 22.3984 9.02681C24.4584 8.53181 26.7137 9.13288 28.3119 10.8831C29.9279 12.6156 30.4784 15.0376 30.0344 17.2651C31.8102 18.4849 33 20.6417 33 23.0814L32.9645 23.0991Z" fill="#FFBE02"/>
</svg>
