<svg width="63" height="47" viewBox="0 0 63 47" fill="none" xmlns="http://www.w3.org/2000/svg">
<path d="M62.6703 31.2195C62.2648 34.0109 60.9976 36.5615 59.0411 38.5597C58.5545 39.0919 57.9868 39.5939 57.3785 40.0358C54.469 42.1846 50.9006 43.0682 47.3221 42.5662C45.9535 42.3653 44.6356 41.9637 43.3887 41.3612L42.2229 40.7989L41.3713 41.783C38.3402 45.3577 33.7378 47.1049 29.0745 46.4321C24.8978 45.8296 21.299 43.3695 19.2208 39.6843L18.6024 38.5998L17.3859 38.871C15.7538 39.2425 14.0912 39.3027 12.4692 39.0718C10.3606 38.7705 8.42432 37.9974 6.79218 36.8627C5.33237 35.8887 4.10573 34.6436 3.1528 33.2277C1.35846 30.5668 0.527178 27.2732 1.02392 23.8692C1.21653 22.5538 1.59162 21.3086 2.13905 20.1639C4.58219 14.9223 10.3099 11.6589 16.3722 12.5225C16.9905 12.6128 17.6292 12.7635 18.3794 12.9944L19.2512 13.2555C19.7378 13.4161 20.2447 13.1149 20.3461 12.6128L20.5184 11.7392C21.3294 7.71266 23.8841 4.44922 27.2801 2.60162C29.6827 1.31632 32.4807 0.713844 35.3902 1.05525C35.4916 1.06529 35.6031 1.08537 35.7247 1.09541C42.3749 2.05938 47.241 7.58212 47.3018 14.2395V15.9164L49.0049 15.8863C49.826 15.8763 50.5661 15.8964 51.2351 15.9968C58.6254 17.0612 63.7651 23.8893 62.6804 31.1994L62.6703 31.2195Z" fill="#FFFAFA"/>
</svg>
