<svg width="14" height="14" viewBox="0 0 14 14" fill="none" xmlns="http://www.w3.org/2000/svg">
<path d="M5.80715 6.09137L6.3958 0.340697C6.41021 0.196622 6.62015 0.192505 6.63867 0.336581L7.4105 6.06461C7.41874 6.12018 7.46402 6.16546 7.51959 6.16958L13.1406 6.70266C13.2867 6.71707 13.2888 6.927 13.1447 6.94553L7.54223 7.65767C7.48666 7.66385 7.44138 7.70913 7.4352 7.76676L6.84655 13.5174C6.83214 13.6615 6.6222 13.6656 6.60368 13.5215L5.83185 7.79352C5.82362 7.73794 5.77833 7.69266 5.72276 7.68855L0.103819 7.15547C-0.0423148 7.14106 -0.044373 6.93112 0.0997024 6.9126L5.70218 6.20045C5.75775 6.19428 5.80303 6.149 5.80921 6.09137H5.80715Z" fill="#FFFAFA"/>
</svg>
