<svg width="25" height="24" viewBox="0 0 25 24" fill="none" xmlns="http://www.w3.org/2000/svg">
<g clip-path="url(#clip0_3084_352)">
<path d="M12.7222 22.7773L12.7212 22.7748L11.069 18.3051L11.069 18.3051C10.2769 16.1628 8.59431 14.4802 6.45201 13.6882L6.45199 13.6882L1.98236 12.0359L1.97987 12.035C1.9714 12.0319 1.96787 12.0292 1.96704 12.0285C1.96607 12.0278 1.96546 12.0271 1.96479 12.0261C1.96305 12.0234 1.95947 12.0157 1.95947 12.0035C1.95947 11.9914 1.96305 11.9836 1.96479 11.981C1.96546 11.98 1.96607 11.9793 1.96704 11.9785C1.96787 11.9779 1.9714 11.9752 1.97987 11.9721L1.98236 11.9712L6.45199 10.3189L6.45201 10.3189C8.59431 9.52684 10.2769 7.84425 11.069 5.70195L11.069 5.70193L12.7212 1.2323L12.7222 1.2298C12.7252 1.22133 12.7279 1.21781 12.7286 1.21698C12.7294 1.216 12.73 1.2154 12.7311 1.21473C12.7337 1.21299 12.7414 1.20941 12.7536 1.20941C12.7658 1.20941 12.7735 1.21299 12.7761 1.21473C12.7772 1.2154 12.7778 1.216 12.7786 1.21698C12.7793 1.21781 12.7819 1.22133 12.785 1.22981L12.7859 1.2323L14.4382 5.70193L14.4382 5.70195C15.2303 7.84425 16.9129 9.52684 19.0552 10.3189L19.0552 10.3189L23.5248 11.9712L23.5273 11.9721C23.5358 11.9752 23.5393 11.9779 23.5401 11.9785C23.5411 11.9793 23.5417 11.98 23.5424 11.981C23.5441 11.9836 23.5477 11.9914 23.5477 12.0035C23.5477 12.0157 23.5441 12.0234 23.5424 12.0261C23.542 12.0266 23.5417 12.0271 23.5413 12.0275C23.5409 12.0279 23.5406 12.0282 23.5401 12.0285C23.5393 12.0292 23.5358 12.0319 23.5273 12.035L23.5248 12.0359L19.0552 13.6882L19.0552 13.6882C16.9129 14.4802 15.2303 16.1628 14.4382 18.3051L14.4382 18.3051L12.7859 22.7748L12.785 22.7773C12.7819 22.7857 12.7793 22.7892 12.7786 22.7901C12.7782 22.7906 12.7778 22.7911 12.7773 22.7914C12.777 22.7917 12.7766 22.792 12.7761 22.7923C12.7735 22.7941 12.7658 22.7976 12.7536 22.7976C12.7414 22.7976 12.7337 22.7941 12.7311 22.7923C12.7308 22.7922 12.7307 22.7921 12.7305 22.7919C12.7298 22.7914 12.7292 22.7909 12.7286 22.7901C12.7279 22.7892 12.7252 22.7857 12.7222 22.7773Z" fill="#FFBE02" stroke="#FFBE02" stroke-miterlimit="10"/>
</g>
<defs>
<clipPath id="clip0_3084_352">
<rect width="24" height="24" fill="white" transform="translate(0.75)"/>
</clipPath>
</defs>
</svg>
