<svg width="22" height="23" viewBox="0 0 22 23" fill="none" xmlns="http://www.w3.org/2000/svg">
<path d="M9.97696 10.3864L10.9241 1.13399C10.9472 0.902183 11.285 0.89556 11.3148 1.12737L12.5566 10.3433C12.5699 10.4327 12.6427 10.5056 12.7321 10.5122L21.7759 11.3699C22.011 11.3931 22.0143 11.7308 21.7825 11.7606L12.7686 12.9064C12.6792 12.9164 12.6063 12.9892 12.5964 13.0819L11.6493 22.3343C11.6261 22.5661 11.2883 22.5728 11.2585 22.3409L10.0167 13.125C10.0034 13.0356 9.9306 12.9627 9.84119 12.9561L0.800742 12.0984C0.565625 12.0752 0.562313 11.7375 0.794119 11.7077L9.80807 10.5619C9.89748 10.5519 9.97033 10.4791 9.98027 10.3864H9.97696Z" fill="#FFFAFA"/>
</svg>
