<svg width="21" height="22" viewBox="0 0 21 22" fill="none" xmlns="http://www.w3.org/2000/svg">
<path d="M9.08051 9.72269L9.98578 0.87885C10.0079 0.657279 10.3308 0.650949 10.3593 0.872519L11.5463 9.68154C11.5589 9.76701 11.6286 9.83664 11.714 9.84297L20.3585 10.6628C20.5832 10.6849 20.5864 11.0078 20.3648 11.0363L11.7489 12.1315C11.6634 12.141 11.5938 12.2106 11.5843 12.2992L10.679 21.1431C10.6568 21.3647 10.334 21.371 10.3055 21.1494L9.11849 12.3404C9.10583 12.2549 9.03619 12.1853 8.95073 12.179L0.309465 11.3592C0.0847292 11.337 0.0815639 11.0141 0.303135 10.9856L8.91908 9.89045C9.00454 9.88096 9.07418 9.81132 9.08367 9.72269H9.08051Z" fill="#FFFAFA"/>
</svg>
