<svg width="33" height="25" viewBox="0 0 33 25" fill="none" xmlns="http://www.w3.org/2000/svg">
<path d="M25.1983 6.81968C24.7849 6.81968 24.3808 6.86059 23.9859 6.92421C23.4348 3.39761 20.3624 0.693573 16.6426 0.693573C12.6701 0.693573 9.43248 3.77935 9.22122 7.66044C8.84924 7.6059 8.47266 7.565 8.08689 7.565C3.97208 7.565 0.642578 10.8598 0.642578 14.9272C0.642578 18.9947 3.97208 22.2895 8.0823 22.2895C9.01916 22.2895 9.91009 22.1122 10.7367 21.7987C12.0961 23.5529 14.2316 24.6936 16.638 24.6936C19.3108 24.6936 21.6437 23.2984 22.9572 21.2079C23.6644 21.4306 24.4176 21.5487 25.1983 21.5487C29.3085 21.5487 32.638 18.2539 32.638 14.1865C32.638 10.1191 29.3085 6.82423 25.1983 6.82423V6.81968Z" fill="#FFFAFA"/>
</svg>
