<svg width="24" height="24" viewBox="0 0 24 24" fill="none" xmlns="http://www.w3.org/2000/svg">
<rect width="24" height="24" rx="4" fill="#FFBE02"/>
<path d="M11.6916 18.7921L10.6678 16.0219C10.2084 14.779 9.23281 13.8031 7.99031 13.3435L5.21656 12.3151C4.92781 12.2101 4.92781 11.7987 5.21656 11.6937L7.98594 10.6696C9.22844 10.2101 10.2041 9.23414 10.6634 7.99125L11.6916 5.21663C11.7966 4.92779 12.2078 4.92779 12.3128 5.21663L13.3366 7.98687C13.7959 9.22976 14.7716 10.2057 16.0141 10.6652L18.7834 11.6893C19.0722 11.7943 19.0722 12.2057 18.7834 12.3107L16.0141 13.3348C14.7716 13.7943 13.7959 14.7702 13.3366 16.0131L12.3128 18.7834C12.2078 19.0722 11.7966 19.0722 11.6916 18.7834V18.7921Z" fill="#FFFAFA"/>
</svg>
