<svg width="34" height="35" viewBox="0 0 34 35" fill="none" xmlns="http://www.w3.org/2000/svg">
<path d="M19.1179 26.1581L17.0049 31.874L14.8919 26.1581L14.8919 26.1581C13.7403 23.0432 11.2936 20.5966 8.17879 19.445L8.17875 19.445L2.46284 17.332L8.17875 15.219L8.17879 15.219C11.2936 14.0674 13.7403 11.6207 14.8919 8.50588L14.8919 8.50584L17.0049 2.78993L19.1179 8.50584L19.1179 8.50588C20.2695 11.6207 22.7162 14.0674 25.831 15.219L25.831 15.219L31.5469 17.332L25.831 19.445L25.831 19.445C22.7162 20.5966 20.2695 23.0432 19.1179 26.1581L19.1179 26.1581Z" stroke="#D4D4D4" stroke-width="2" stroke-miterlimit="10"/>
</svg>
