<svg width="118" height="107" viewBox="0 0 118 107" fill="none" xmlns="http://www.w3.org/2000/svg">
<g clip-path="url(#clip0_3082_6089)">
<path d="M107.362 35.6266C103.883 24.5226 92.0608 18.3423 80.958 21.8213C80.9502 21.8236 80.9424 21.826 80.9348 21.8295C77.091 11.3335 65.6358 5.60707 54.8568 8.98411C51.2583 10.1122 48.1765 12.1164 45.7733 14.6883C43.2115 14.5046 40.5716 14.7895 37.9723 15.604C29.1472 18.3689 23.4335 26.404 23.2054 35.1591C22.8419 35.252 22.48 35.3551 22.1172 35.4677C11.0147 38.9489 4.83323 50.7713 8.31219 61.8741C9.55282 65.8354 11.8559 69.1689 14.8088 71.6613C12.5898 76.2993 12.0514 81.7559 13.7102 87.0501C17.1893 98.154 29.0115 104.334 40.1143 100.855C42.4941 100.109 44.6477 98.9797 46.5284 97.5559C51.0595 99.5856 56.322 100.033 61.4332 98.4313C64.852 97.3598 67.8022 95.4978 70.1498 93.1087C74.102 94.3415 78.4571 94.427 82.7065 93.0946C87.9673 91.4455 92.1217 87.9241 94.6689 83.4938C95.7379 83.3334 96.8081 83.0892 97.8716 82.7564C108.976 79.2773 115.156 67.4551 111.677 56.3523C110.744 53.3736 109.21 50.7497 107.25 48.5711C108.601 44.5171 108.737 40.0159 107.361 35.6256L107.362 35.6266Z" fill="#FFFAFA"/>
<path d="M107.362 35.6266C103.883 24.5226 92.0608 18.3423 80.958 21.8213C80.9502 21.8236 80.9424 21.826 80.9348 21.8295C77.091 11.3335 65.6358 5.60707 54.8568 8.98411C51.2583 10.1122 48.1765 12.1164 45.7733 14.6883C43.2115 14.5046 40.5716 14.7895 37.9723 15.604C29.1472 18.3689 23.4335 26.404 23.2054 35.1591C22.8419 35.252 22.48 35.3551 22.1172 35.4677C11.0147 38.9489 4.83323 50.7713 8.31219 61.8741C9.55282 65.8354 11.8559 69.1689 14.8088 71.6613C12.5898 76.2993 12.0514 81.7559 13.7102 87.0501C17.1893 98.154 29.0115 104.334 40.1143 100.855C42.4941 100.109 44.6477 98.9797 46.5284 97.5559C51.0595 99.5856 56.322 100.033 61.4332 98.4313C64.852 97.3598 67.8022 95.4978 70.1498 93.1087C74.102 94.3415 78.4571 94.427 82.7065 93.0946C87.9673 91.4455 92.1217 87.9241 94.6689 83.4938C95.7379 83.3334 96.8081 83.0892 97.8716 82.7564C108.976 79.2773 115.156 67.4551 111.677 56.3523C110.744 53.3736 109.21 50.7497 107.25 48.5712C108.601 44.5171 108.737 40.0159 107.361 35.6256L107.362 35.6266Z" stroke="#1A1A1A" stroke-width="0.828283" stroke-linecap="round" stroke-linejoin="round"/>
<path d="M23.2009 35.1609C24.1476 34.8542 25.1897 34.8514 26.1379 35.1535C27.0861 35.4556 27.9361 36.0575 28.5324 36.854" stroke="#1A1A1A" stroke-width="0.828283" stroke-linecap="round" stroke-linejoin="round"/>
<path d="M80.9195 21.783C81.4955 23.4636 81.1123 25.4365 79.9505 26.7814" stroke="#1A1A1A" stroke-width="0.828283" stroke-linecap="round" stroke-linejoin="round"/>
<path d="M70.1574 93.1133C71.8281 90.8652 72.5992 87.9344 72.1102 85.1689" stroke="#1A1A1A" stroke-width="0.828283" stroke-linecap="round" stroke-linejoin="round"/>
<path d="M14.798 71.6745C15.461 70.7303 16.3804 69.9653 17.4381 69.5033C18.9618 68.8362 20.7529 68.8069 22.2988 69.4218" stroke="#1A1A1A" stroke-width="0.828283" stroke-linecap="round" stroke-linejoin="round"/>
<path d="M45.9544 98.0262C46.7674 97.3403 47.1804 96.274 47.2914 95.2168C47.4025 94.1596 47.2415 93.0941 47.0828 92.0434" stroke="#1A1A1A" stroke-width="0.828283" stroke-linecap="round" stroke-linejoin="round"/>
<path d="M94.6553 83.5272C94.8766 83.0377 95.0989 82.5468 95.2511 82.0307C95.4034 81.5158 95.4827 80.9713 95.415 80.4389C95.3445 79.8954 95.1213 79.3799 94.8347 78.9124C94.5469 78.4452 94.1949 78.0215 93.8453 77.5985" stroke="#1A1A1A" stroke-width="0.828283" stroke-linecap="round" stroke-linejoin="round"/>
<path d="M107.254 48.5716C105.84 47.8307 104.205 47.52 102.617 47.6914C101.03 47.8626 99.4985 48.5157 98.2752 49.5424" stroke="#1A1A1A" stroke-width="0.828283" stroke-linecap="round" stroke-linejoin="round"/>
<path d="M45.5964 14.6794C46.413 14.7367 47.2088 15.061 47.8316 15.5908C48.4546 16.1217 48.9017 16.8551 49.0889 17.6516" stroke="#1A1A1A" stroke-width="0.828283" stroke-linecap="round" stroke-linejoin="round"/>
<g opacity="0.15">
<path d="M53.5057 21.3166C55.8117 19.7486 58.6592 19.2714 61.2789 20.189" stroke="#1A1A1A" stroke-width="0.828283" stroke-linecap="round" stroke-linejoin="round"/>
<path d="M61.2178 20.0473C62.4196 18.6834 64.2424 17.8903 66.0597 17.9407C67.877 17.991 69.7651 18.7383 70.8894 20.1663" stroke="#1A1A1A" stroke-width="0.828283" stroke-linecap="round" stroke-linejoin="round"/>
</g>
<path d="M53.556 21.532C56.582 19.4748 60.9176 19.5842 63.8362 21.7925" stroke="#1A1A1A" stroke-width="0.828283" stroke-linecap="round" stroke-linejoin="round"/>
<path d="M61.4858 20.4327C62.6877 19.0688 64.5105 18.2757 66.3278 18.326C68.1451 18.3764 69.9217 19.2685 71.0471 20.6964" stroke="#1A1A1A" stroke-width="0.828283" stroke-linecap="round" stroke-linejoin="round"/>
<g opacity="0.03">
<path d="M53.7601 72.7951C55.511 71.2297 57.8045 69.7996 60.0819 70.3721C62.3594 70.9458 64.3044 72.7013 65.1067 74.9097C61.7784 72.4249 58.1634 72.2549 53.7601 72.7951Z" fill="#1A1A1A"/>
<path d="M74.8569 71.9774C73.9457 69.8392 71.3989 68.7524 69.0806 68.9288C66.7622 69.1052 64.6475 70.2987 62.7482 71.6393C67.0033 70.5942 71.0557 70.6157 74.8569 71.9774Z" fill="#1A1A1A"/>
<path d="M73.4178 70.0189C73.8466 67.9565 75.1969 66.105 77.0282 65.0642C78.8597 64.0245 81.4546 64.811 83.4451 65.4984C79.9406 66.4052 76.3878 67.2404 73.4176 70.0178L73.4178 70.0189Z" fill="#1A1A1A"/>
</g>
<path d="M53.8212 72.9902C55.5721 71.4248 58.1177 70.7975 60.3953 71.3712C62.6728 71.9448 64.6178 73.7003 65.4201 75.9087" fill="#FFFAFA"/>
<path d="M53.8212 72.9902C55.5721 71.4248 58.1177 70.7975 60.3953 71.3712C62.6728 71.9448 64.6178 73.7003 65.4201 75.9087" stroke="#1A1A1A" stroke-width="0.828283" stroke-linecap="round" stroke-linejoin="round"/>
<path d="M63.0615 72.6372C64.9607 71.2966 67.0755 70.1031 69.3938 69.9267C71.7121 69.7503 74.2589 70.8371 75.1701 72.9754" fill="#FFFAFA"/>
<path d="M63.0615 72.6372C64.9607 71.2966 67.0755 70.1031 69.3938 69.9267C71.7121 69.7503 74.2589 70.8371 75.1701 72.9754" stroke="#1A1A1A" stroke-width="0.828283" stroke-linecap="round" stroke-linejoin="round"/>
<path d="M73.731 71.0168C74.1598 68.9544 75.5101 67.1029 77.3414 66.0621C79.1729 65.0224 81.4558 64.812 83.4463 65.4994" fill="#FFFAFA"/>
<path d="M73.731 71.0168C74.1598 68.9544 75.5101 67.1029 77.3414 66.0621C79.1729 65.0224 81.4558 64.812 83.4463 65.4994" stroke="#1A1A1A" stroke-width="0.828283" stroke-linecap="round" stroke-linejoin="round"/>
<path opacity="0.15" d="M90.4942 45.3715C89.9364 42.3539 87.1739 41.657 86.2493 41.4408C86.2795 41.0236 86.2599 40.6 86.1801 40.1776C84.6358 31.8395 64.1385 35.3395 64.9585 48.4758L57.6618 49.8535L57.6646 49.8716C53.654 37.3174 33.2706 41.5297 34.8731 49.8612C34.9532 50.2848 35.089 50.6859 35.2688 51.0627C34.488 51.602 32.1698 53.2579 32.7491 56.271C33.3276 59.2866 36.2033 60.5403 37.1307 60.7526C37.0876 61.381 37.2548 62.1992 37.281 62.3393C38.7607 70.1805 59.7082 66.0084 58.2222 52.5011L65.4004 51.1462C68.9387 64.2657 89.966 60.516 88.4862 52.6747C88.4601 52.5346 88.3178 51.7126 88.048 51.1427C88.8341 50.6073 91.0559 48.3909 90.4944 45.3727L90.4942 45.3715Z" fill="#606060"/>
<path d="M60.3531 52.0965C60.3441 51.9619 60.3314 51.8256 60.3137 51.6876C60.2781 51.3491 60.2267 51.006 60.1613 50.6557C60.0813 50.2322 59.9839 49.824 59.873 49.4343C59.8353 49.3017 59.7951 49.1684 59.7533 49.04C57.0522 40.6236 46.9816 39.7592 41.1397 42.6211C38.2813 44.0204 36.4361 46.3128 36.9635 49.048C37.0435 49.4715 37.1771 49.8729 37.3592 50.2495C36.5772 50.7889 34.259 52.4448 34.8407 55.4587C35.4181 58.4745 38.2951 59.7291 39.2224 59.9403C39.1781 60.5689 39.3463 61.3857 39.3713 61.526C39.4618 62.0026 39.6237 62.4368 39.8528 62.8248C40.1466 63.3388 40.5529 63.7751 41.0462 64.1353C41.4103 64.4026 41.8204 64.6291 42.2694 64.8136C42.5871 64.9451 42.9249 65.056 43.2803 65.1456C45.3811 65.6883 48.0573 65.5268 50.6641 64.7076C55.9041 63.0595 60.8724 58.7438 60.353 52.0954L60.3531 52.0965ZM45.1611 61.9332C44.2265 61.8789 43.4467 61.1965 43.2722 60.2784L40.9289 48.0845C40.8012 47.4183 41.0302 46.7289 41.5489 46.2914C44.4224 43.8531 54.5038 42.324 56.2465 51.3953C57.8023 59.498 48.5672 62.12 45.1611 61.9332Z" fill="#FFBE02"/>
<path d="M56.2464 51.3965C57.8021 59.498 48.5659 62.1214 45.1609 61.9332C44.2253 61.8802 43.4477 61.1975 43.2721 60.2795L40.9288 48.0856C40.8013 47.4206 41.0313 46.7299 41.5486 46.2915C44.4219 43.852 54.5037 42.3252 56.2475 51.3963L56.2464 51.3965Z" fill="#333333"/>
<mask id="mask0_3082_6089" style="mask-type:luminance" maskUnits="userSpaceOnUse" x="40" y="44" width="17" height="18">
<path d="M56.2464 51.3965C57.8021 59.498 48.5659 62.1214 45.1609 61.9332C44.2253 61.8802 43.4477 61.1975 43.2721 60.2795L40.9288 48.0856C40.8013 47.4206 41.0313 46.7299 41.5486 46.2915C44.4219 43.852 54.5037 42.3252 56.2475 51.3963L56.2464 51.3965Z" fill="white"/>
</mask>
<g mask="url(#mask0_3082_6089)">
<path d="M56.2789 66.8245C56.2692 67.3908 53.1322 64.743 52.5753 64.8481C52.0184 64.9533 52.829 69.2478 52.2721 69.3529C51.7153 69.458 50.9047 65.1635 50.3479 65.2686C49.791 65.3737 50.6016 69.6682 50.0447 69.7733C49.4878 69.8785 50.7615 67.5273 50.5451 67.0026C49.5035 64.4764 45.8709 65.5562 45.3641 62.8713C44.8572 60.1865 49.1517 59.3759 48.646 56.6908C48.1402 54.0058 43.8446 54.8165 43.3378 52.1316C42.8309 49.4467 47.1254 48.6362 46.6185 45.9513C46.1117 43.2664 41.224 43.6797 41.2723 40.9469C41.2819 40.3806 44.419 43.0284 44.9759 42.9233C45.5327 42.8182 44.7222 38.5237 45.279 38.4186C45.8359 38.3135 46.6465 42.608 47.2033 42.5028C47.7602 42.3977 46.9496 38.1032 47.5065 37.9981C48.0633 37.893 46.7897 40.2441 47.0061 40.7688C48.0476 43.2951 51.6802 42.2152 52.1871 44.9001C52.694 47.585 48.3995 48.3955 48.9052 51.0806C49.4121 53.7655 53.7066 52.955 54.2134 55.6398C54.7203 58.3247 49.8693 60.0237 51.1482 62.438C52.6613 65.2952 56.3274 64.0928 56.2778 66.8247L56.2789 66.8245Z" fill="#FFFAFA"/>
</g>
<path d="M51.0053 43.7018C51.0869 43.7183 51.1698 43.7358 51.2504 43.7537C51.2877 43.7619 51.324 43.7715 51.3613 43.7797C51.5144 43.8155 51.2303 43.744 51.382 43.7858C51.5433 43.8297 51.704 43.8771 51.8631 43.9294C52.1739 44.0317 52.4783 44.1524 52.7758 44.2881C52.9209 44.3553 53.0641 44.4252 53.2057 44.5C53.2399 44.518 53.2729 44.5362 53.3059 44.5543C53.1769 44.4788 53.3906 44.5995 53.3059 44.5543C53.385 44.6003 53.4641 44.6463 53.5422 44.6936C53.8282 44.8683 54.1037 45.0585 54.3666 45.2646C54.4866 45.3577 54.6038 45.4548 54.719 45.5546C54.7767 45.605 54.8333 45.6556 54.8887 45.7064C54.9102 45.7251 55.0263 45.8305 54.9061 45.7211C54.9399 45.752 54.9716 45.7843 55.0044 45.8165C55.2552 46.0651 55.491 46.33 55.7092 46.608C55.8104 46.7378 55.9086 46.8703 56.0024 47.0047C56.0545 47.0792 56.1043 47.1541 56.1544 47.2301C56.1771 47.265 56.1988 47.3 56.2214 47.3337C56.2584 47.3931 56.2567 47.3899 56.2149 47.3219C56.2275 47.3433 56.24 47.3646 56.2526 47.3859C56.4341 47.6905 56.5962 48.005 56.7389 48.3294C56.8189 48.5101 56.8925 48.6941 56.9603 48.8789C56.9942 48.9714 57.0261 49.0653 57.0568 49.1594C57.072 49.2058 57.0863 49.2536 57.1016 49.3001C57.1464 49.4408 57.0744 49.1985 57.1108 49.3301C57.2184 49.7285 57.3042 50.1291 57.3589 50.5391C57.4025 50.8613 57.7426 51.1241 58.0674 51.0592C58.3922 50.9943 58.6335 50.6959 58.5876 50.3507C58.3794 48.7881 57.7625 47.2881 56.8255 46.0208C55.9487 44.8349 54.7779 43.8917 53.4598 43.2384C52.729 42.8762 51.9502 42.6248 51.1505 42.465C50.8315 42.4012 50.4836 42.6939 50.46 43.0102C50.4336 43.3687 50.6632 43.631 51.0051 43.7006L51.0053 43.7018Z" fill="#FFFAFA"/>
<path d="M37.8495 56.8292C37.6922 56.6371 37.5338 56.4452 37.3889 56.2431C37.3537 56.1951 37.3194 56.1457 37.2873 56.096C37.2679 56.0676 37.2496 56.039 37.2312 56.0104C37.2702 56.0754 37.2729 56.0773 37.2368 56.0166C37.1802 55.9125 37.1237 55.8096 37.077 55.7017C37.0302 55.5938 36.9836 55.487 36.9573 55.376C36.9957 55.5352 36.9584 55.3677 36.9524 55.3442C36.9368 55.2804 36.9245 55.2149 36.9132 55.1492C36.8934 55.0348 36.8851 54.9199 36.8743 54.8041C36.8602 54.6587 36.868 54.9074 36.873 54.773C36.8756 54.7063 36.8761 54.6412 36.8809 54.5742C36.8888 54.4591 36.9037 54.344 36.9258 54.2303C36.9289 54.2124 36.9751 54.0286 36.9492 54.1174C36.9233 54.2062 36.9742 54.038 36.9799 54.0221C37.0124 53.9229 37.0499 53.8265 37.091 53.7307C37.1151 53.6759 37.1419 53.623 37.1675 53.5703C37.2339 53.4346 37.0975 53.6821 37.1766 53.5538C37.2875 53.3752 37.4088 53.2113 37.5448 53.0522C37.5906 53.0022 37.5845 53.0077 37.5266 53.0701C37.5479 53.0494 37.5689 53.0276 37.5902 53.0069C37.6227 52.9763 37.6552 52.9458 37.689 52.9162C37.7781 52.8374 37.8727 52.7648 37.9705 52.6975C38.2383 52.5112 38.274 52.0618 38.0619 51.8235C37.8257 51.5563 37.4734 51.5325 37.1879 51.732C36.3143 52.3412 35.723 53.3663 35.6466 54.4298C35.6035 55.021 35.6961 55.617 35.9229 56.1645C36.1498 56.712 36.5171 57.1671 36.8841 57.6129C37.0899 57.8637 37.5065 57.9277 37.7582 57.7044C38.0099 57.481 38.0709 57.0986 37.8497 56.8303L37.8495 56.8292Z" fill="#FFFAFA"/>
<path d="M92.5851 44.5605C92.0273 41.5429 89.2636 40.8461 88.3387 40.6276C88.3691 40.2115 88.3497 39.7891 88.2708 39.3654C87.372 34.5103 80.0453 33.6681 74.2445 36.4041C70.0813 38.3671 66.7006 42.1744 67.046 47.6653C67.0793 48.2006 67.1475 48.7515 67.2553 49.3184C67.3204 49.6675 67.3981 50.0078 67.4879 50.3357C69.6882 58.4954 78.6543 60.13 84.7651 58.3099C88.4789 57.2061 91.1357 54.8253 90.5758 51.8627C90.5497 51.7226 90.4085 50.9004 90.1387 50.3305C90.9248 49.7951 93.1453 47.5777 92.5851 44.5605ZM71.1701 48.5788C69.485 39.4964 79.431 37.2431 82.995 38.468C83.6364 38.6869 84.1032 39.2453 84.2262 39.911L86.4896 52.1218C86.6607 53.0404 86.1846 53.9607 85.3332 54.3504C82.2311 55.7673 72.6726 56.6897 71.17 48.5777L71.1701 48.5788Z" fill="#FFBE02"/>
<path d="M71.1692 48.5802C72.673 56.692 82.2312 55.7684 85.3333 54.3515C86.1848 53.9618 86.661 53.0427 86.4898 52.1229L84.2277 39.9131C84.1047 39.2474 83.6389 38.6878 82.9963 38.469C79.4314 37.2454 69.4863 39.4974 71.1703 48.58L71.1692 48.5802Z" fill="#333333"/>
<mask id="mask1_3082_6089" style="mask-type:luminance" maskUnits="userSpaceOnUse" x="70" y="38" width="17" height="18">
<path d="M71.1689 48.5802C72.6727 56.6921 82.231 55.7685 85.3331 54.3516C86.1845 53.9619 86.6608 53.0428 86.4896 52.123L84.2274 39.9132C84.1045 39.2475 83.6386 38.6878 82.9961 38.4691C79.4311 37.2455 69.4861 39.4975 71.1701 48.5801L71.1689 48.5802Z" fill="white"/>
</mask>
<g mask="url(#mask1_3082_6089)">
<path d="M80.8033 61.2928C81.0195 61.8164 79.7447 64.1677 80.3016 64.0626C80.8584 63.9575 80.0479 59.663 80.6048 59.5579C81.1616 59.4527 81.9722 63.7472 82.529 63.6421C83.0859 63.537 82.2753 59.2425 82.8322 59.1374C83.3891 59.0323 86.5263 61.6812 86.5369 61.1136C86.5865 58.3817 81.6976 58.7941 81.1909 56.1104C80.684 53.4255 84.9785 52.6149 84.4728 49.9299C83.967 47.2448 79.6714 48.0555 79.1645 45.3706C78.6577 42.6857 82.9522 41.8752 82.4453 39.1903C81.9384 36.5054 78.3057 37.5841 77.2641 35.0579C77.0479 34.5343 78.3227 32.183 77.7658 32.2881C77.209 32.3933 78.0195 36.6878 77.4626 36.7929C76.9058 36.898 76.0952 32.6035 75.5384 32.7086C74.9815 32.8137 75.7921 37.1082 75.2352 37.2133C74.6784 37.3185 71.5411 34.6695 71.5305 35.2371C71.4809 37.969 76.3699 37.5566 76.8765 40.2403C77.3834 42.9252 73.0889 43.7358 73.5946 46.4209C74.1015 49.1057 78.396 48.2952 78.9029 50.9801C79.4097 53.665 74.7139 55.0496 75.7456 57.5796C76.7773 60.1097 79.7617 58.7666 80.8033 61.2928Z" fill="#FFFAFA"/>
</g>
<path d="M72.5613 38.4729C70.092 40.0601 68.4891 42.8487 68.3551 45.7806C68.3143 46.6667 68.3892 47.5571 68.6004 48.4196C68.6777 48.7343 68.9593 49.0096 69.3089 48.9397C69.6157 48.8788 69.9123 48.5695 69.8291 48.2312C69.7421 47.8762 69.6765 47.5166 69.6346 47.1523C69.6151 46.9868 69.6013 46.8215 69.5922 46.6556C69.5875 46.5645 69.584 46.4732 69.5804 46.3819C69.5765 46.2802 69.5797 46.5366 69.5804 46.3738C69.5807 46.3156 69.58 46.2576 69.5815 46.1993C69.586 45.8418 69.6139 45.4854 69.6619 45.1317C69.6853 44.9584 69.7148 44.7865 69.7489 44.6151C69.7665 44.5252 69.7854 44.4363 69.8066 44.3471C69.8135 44.3158 69.8185 44.2802 69.8302 44.2505C69.7771 44.3969 69.8449 44.1948 69.8532 44.1656C69.945 43.8319 70.0562 43.5034 70.1884 43.1833C70.2518 43.0283 70.3203 42.876 70.3937 42.7253C70.4261 42.6564 70.461 42.5883 70.496 42.5213C70.5129 42.4873 70.5311 42.4543 70.5491 42.4202C70.5654 42.3898 70.6379 42.2334 70.5708 42.3797C70.7042 42.0896 70.9127 41.8124 71.0997 41.5536C71.2866 41.2949 71.4978 41.0347 71.7174 40.7918C71.7471 40.7582 71.7775 40.721 71.8101 40.6916C71.6939 40.7978 71.8071 40.6944 71.8262 40.6752C71.8894 40.6097 71.9552 40.5462 72.021 40.4826C72.1528 40.3567 72.2885 40.2336 72.4273 40.1158C72.7175 39.8703 73.0245 39.6443 73.3441 39.4395C73.618 39.2627 73.6409 38.7978 73.4356 38.5655C73.1925 38.2913 72.8545 38.285 72.5615 38.474L72.5613 38.4729Z" fill="#FFFAFA"/>
<path d="M91.452 47.3515C91.6361 46.7863 91.8247 46.2042 91.8304 45.6048C91.8361 45.0054 91.7212 44.4221 91.4559 43.8898C90.9485 42.8693 90.0218 42.1839 88.9237 41.9199C88.6064 41.8441 88.2557 42.1571 88.2332 42.465C88.2061 42.8341 88.4393 43.0738 88.7784 43.1555C88.6082 43.1142 88.8041 43.1643 88.837 43.1744C88.8798 43.1876 88.9215 43.2021 88.9632 43.2166C89.0604 43.2517 89.1574 43.2926 89.2503 43.3377C89.2767 43.351 89.3032 43.3644 89.3296 43.3778C89.3891 43.4094 89.3827 43.4057 89.3079 43.3649C89.3134 43.378 89.4091 43.4261 89.422 43.4345C89.5095 43.4897 89.5954 43.5498 89.6762 43.6141C89.7225 43.6511 89.7689 43.6882 89.8133 43.7279C89.8469 43.7576 89.9535 43.8156 89.8279 43.7396C89.906 43.7869 89.9801 43.8987 90.0376 43.9701C90.1075 44.0547 90.1688 44.1441 90.2302 44.2335C90.2683 44.2927 90.2655 44.2896 90.2239 44.2228C90.2365 44.2441 90.249 44.2654 90.2606 44.2881C90.2881 44.3385 90.3146 44.3902 90.34 44.4421C90.3897 44.5461 90.4342 44.6543 90.4718 44.7636C90.4931 44.8266 90.5264 44.8923 90.4833 44.7932C90.5085 44.8509 90.5173 44.924 90.5303 44.9859C90.5536 45.0997 90.5711 45.2144 90.5829 45.3288C90.587 45.3782 90.5899 45.4277 90.5928 45.4772C90.5957 45.5488 90.5948 45.5432 90.5925 45.4598C90.5928 45.4923 90.5922 45.5261 90.5903 45.559C90.5812 45.8033 90.5393 46.0456 90.4817 46.2834C90.5072 46.1772 90.4782 46.2909 90.4672 46.3333C90.4508 46.3927 90.4332 46.4524 90.4144 46.5122C90.3759 46.6401 90.3337 46.7663 90.2928 46.8935C90.1924 47.2017 90.3117 47.5856 90.6419 47.7C90.9438 47.8048 91.3409 47.6812 91.4484 47.3509L91.452 47.3515Z" fill="#FFFAFA"/>
<path d="M67.5048 47.5801L59.7505 49.0431L60.2521 51.7016L68.0064 50.2386L67.5048 47.5801Z" fill="#FFBE02"/>
</g>
<defs>
<clipPath id="clip0_3082_6089">
<rect width="104.327" height="90.7285" fill="white" transform="translate(0.708984 16.6184) rotate(-8.71495)"/>
</clipPath>
</defs>
</svg>
