<svg width="59" height="45" viewBox="0 0 59 45" fill="none" xmlns="http://www.w3.org/2000/svg">
<path d="M58.49 15.8538C58.31 17.0938 57.75 18.2338 56.89 19.1238C56.67 19.3638 56.43 19.5838 56.16 19.7838C54.88 20.7438 53.31 21.1338 51.73 20.9138C51.12 20.8238 50.55 20.6438 50 20.3738L49.48 20.1238L49.1 20.5638C47.76 22.1538 45.74 22.9338 43.68 22.6338C41.84 22.3638 40.25 21.2738 39.34 19.6338L39.07 19.1538L38.53 19.2738C37.81 19.4438 37.08 19.4638 36.36 19.3638C35.43 19.2338 34.58 18.8838 33.86 18.3838C33.22 17.9538 32.68 17.3938 32.25 16.7638C31.46 15.5838 31.09 14.1138 31.31 12.5938C31.39 12.0038 31.56 11.4538 31.8 10.9438C32.88 8.61384 35.4 7.16384 38.07 7.54384C38.34 7.58384 38.62 7.65384 38.96 7.75384L39.34 7.86384C39.56 7.93384 39.78 7.80384 39.82 7.57384L39.9 7.18384C40.26 5.39384 41.38 3.94384 42.88 3.12384C43.94 2.55384 45.17 2.28384 46.45 2.43384C46.49 2.43384 46.55 2.44384 46.6 2.45384C49.53 2.88384 51.68 5.34384 51.7 8.30384V9.05384L52.45 9.04384C52.81 9.04384 53.14 9.04384 53.43 9.09384C56.68 9.56384 58.95 12.6038 58.47 15.8538H58.49Z" fill="#FFFAFA"/>
<path d="M53.0701 37.8038C52.8901 39.0438 52.3301 40.1838 51.4701 41.0738C51.2501 41.3138 51.0101 41.5338 50.7401 41.7338C49.4601 42.6938 47.8901 43.0838 46.3101 42.8638C45.7001 42.7738 45.1301 42.5938 44.5801 42.3238L44.0601 42.0738L43.6801 42.5138C42.3401 44.1038 40.3201 44.8838 38.2601 44.5838C36.4201 44.3138 34.8301 43.2238 33.9201 41.5838L33.6501 41.1038L33.1101 41.2238C32.3901 41.3938 31.6601 41.4138 30.9401 41.3138C30.0101 41.1838 29.1601 40.8338 28.4401 40.3338C27.8001 39.9038 27.2601 39.3438 26.8301 38.7138C26.0401 37.5338 25.6701 36.0638 25.8901 34.5438C25.9701 33.9538 26.1401 33.4038 26.3801 32.8938C27.4601 30.5638 29.9801 29.1138 32.6501 29.4938C32.9201 29.5338 33.2001 29.6038 33.5401 29.7038L33.9201 29.8138C34.1401 29.8838 34.3601 29.7538 34.4001 29.5238L34.4801 29.1338C34.8401 27.3438 35.9601 25.8938 37.4601 25.0738C38.5201 24.5038 39.7501 24.2338 41.0301 24.3838C41.0701 24.3838 41.1301 24.3938 41.1801 24.4038C44.1101 24.8338 46.2601 27.2938 46.2801 30.2538V31.0038L47.0301 30.9938C47.3901 30.9938 47.7201 30.9938 48.0101 31.0438C51.2601 31.5138 53.5301 34.5538 53.0501 37.8038H53.0701Z" fill="#FFFAFA"/>
<path d="M27.79 22.7638C27.61 24.0038 27.05 25.1438 26.19 26.0338C25.97 26.2738 25.73 26.4938 25.46 26.6938C24.18 27.6538 22.61 28.0438 21.03 27.8238C20.42 27.7338 19.85 27.5538 19.3 27.2838L18.78 27.0338L18.4 27.4738C17.06 29.0638 15.04 29.8438 12.98 29.5438C11.14 29.2738 9.55004 28.1838 8.64004 26.5438L8.37004 26.0638L7.83004 26.1838C7.11004 26.3538 6.38004 26.3738 5.66004 26.2738C4.73004 26.1438 3.88004 25.7938 3.16004 25.2938C2.52004 24.8638 1.98004 24.3038 1.55004 23.6738C0.760038 22.4938 0.390037 21.0238 0.610037 19.5038C0.690037 18.9138 0.860038 18.3638 1.10004 17.8538C2.18004 15.5238 4.70004 14.0738 7.37004 14.4538C7.64004 14.4938 7.92004 14.5638 8.26004 14.6638L8.64004 14.7738C8.86004 14.8438 9.08004 14.7138 9.12004 14.4838L9.20004 14.0938C9.56004 12.3038 10.68 10.8538 12.18 10.0338C13.24 9.46384 14.47 9.19384 15.75 9.34384C15.79 9.34384 15.85 9.35384 15.9 9.36384C18.83 9.79384 20.98 12.2538 21 15.2138V15.9638L21.75 15.9538C22.11 15.9538 22.44 15.9538 22.73 16.0038C25.98 16.4738 28.25 19.5138 27.77 22.7638H27.79Z" fill="#FFFAFA"/>
<path d="M57.59 25.5238C57.02 28.2038 55.44 30.5138 53.13 32.0138C50.82 33.5138 48.07 34.0238 45.38 33.4538C44.35 33.2338 43.37 32.8638 42.45 32.3438L41.59 31.8638L40.9 32.5738C38.41 35.1638 34.84 36.2738 31.35 35.5338C28.2 34.8638 25.59 32.8038 24.2 29.8838L23.79 29.0238L22.85 29.1738C21.6 29.3738 20.33 29.3438 19.12 29.0838C17.53 28.7438 16.11 28.0638 14.92 27.1238C13.87 26.3038 13 25.2938 12.34 24.1538C11.12 22.0438 10.65 19.4738 11.19 16.8938C11.4 15.8938 11.75 14.9638 12.22 14.1038C14.33 10.2138 18.83 7.99384 23.39 8.95384C23.86 9.05384 24.33 9.19384 24.89 9.41384L25.53 9.65384C25.89 9.78384 26.29 9.58384 26.4 9.20384L26.58 8.54384C27.97 3.34384 33.12 0.113844 38.38 1.09384C38.46 1.09384 38.55 1.12384 38.63 1.13384C40.24 1.47384 41.67 2.16384 42.89 3.12384C41.39 3.94384 40.27 5.39384 39.91 7.18384L39.83 7.57385C39.79 7.79385 39.56 7.93384 39.35 7.86384L38.97 7.75384C38.64 7.65384 38.36 7.58384 38.08 7.54384C35.4 7.16384 32.88 8.61384 31.81 10.9438C31.57 11.4538 31.4 12.0038 31.32 12.5938C31.1 14.1138 31.47 15.5738 32.26 16.7638C32.68 17.3938 33.22 17.9438 33.87 18.3838C34.59 18.8838 35.44 19.2338 36.37 19.3638C37.08 19.4638 37.82 19.4438 38.54 19.2738L39.08 19.1538L39.35 19.6338C40.27 21.2738 41.85 22.3638 43.69 22.6338C45.75 22.9338 47.77 22.1538 49.11 20.5638L49.49 20.1238L50.01 20.3738C50.56 20.6438 51.14 20.8238 51.74 20.9138C53.32 21.1338 54.89 20.7438 56.17 19.7838C56.44 19.5838 56.69 19.3638 56.9 19.1238C57.78 21.0638 58.07 23.2838 57.6 25.5238H57.59Z" fill="#FFD966"/>
</svg>
