<svg width="46" height="46" viewBox="0 0 46 46" fill="none" xmlns="http://www.w3.org/2000/svg">
<g clip-path="url(#clip0_3393_929)">
<path d="M45.7777 9.04059V23.3828C42.7243 23.6618 39.639 23.5342 36.6175 22.9762C27.545 21.302 19.5408 16.2396 11.3692 11.9744C7.9491 10.1886 4.35359 8.52239 0.662415 7.30263C1.46762 3.14109 5.13488 0 9.53559 0H36.7451C41.7357 0 45.7777 4.04993 45.7777 9.04059Z" fill="#A8D73C"/>
<path d="M45.7776 23.3827V36.25C45.7776 41.2407 41.7357 45.2906 36.745 45.2906H22.1716C18.5522 40.8421 17.3165 34.6954 13.721 30.1592C11.0343 26.7789 7.17572 24.4829 3.11782 23.016C2.25681 22.7051 1.37986 22.4261 0.494934 22.1789V9.04057C0.494934 8.45062 0.55074 7.86865 0.662352 7.30261C4.35353 8.52237 7.94904 10.1886 11.3692 11.9744C19.5408 16.2396 27.545 21.302 36.6174 22.9762C39.6389 23.5342 42.7242 23.6618 45.7776 23.3827Z" fill="url(#paint0_linear_3393_929)"/>
<path d="M22.1716 45.2907H9.53552C4.53689 45.2907 0.494934 41.2407 0.494934 36.2501V22.179C1.37986 22.4261 2.25681 22.7051 3.11782 23.016C7.17572 24.483 11.0343 26.779 13.721 30.1592C17.3165 34.6955 18.5522 40.8421 22.1716 45.2907Z" fill="#FD810F"/>
<path d="M11.0741 12.7159L11.6163 7.39834C11.6322 7.26281 11.8235 7.26281 11.8395 7.39834L12.549 12.6999C12.549 12.7557 12.5968 12.7956 12.6527 12.7956L17.8586 13.2899C17.9941 13.3058 17.9941 13.4972 17.8586 13.5131L12.6766 14.1748C12.6208 14.1748 12.5809 14.2226 12.5809 14.2784L12.0388 19.596C12.0228 19.7315 11.8315 19.7315 11.8156 19.596L11.106 14.2944C11.106 14.2386 11.0582 14.1987 11.0024 14.1987L5.79647 13.7044C5.66094 13.6885 5.66094 13.4971 5.79647 13.4812L10.9785 12.8195C11.0343 12.8195 11.0741 12.7717 11.0741 12.7159Z" fill="#FFFAFA"/>
<path d="M17.8507 34.8788L18.1536 31.8812C18.1536 31.8095 18.2732 31.8015 18.2812 31.8812L18.6798 34.8629C18.6798 34.8629 18.7037 34.9187 18.7356 34.9187L21.6615 35.1977C21.7332 35.1977 21.7412 35.3173 21.6615 35.3253L18.7436 35.7C18.7436 35.7 18.6878 35.7239 18.6878 35.7558L18.3848 38.7534C18.3848 38.8251 18.2653 38.8331 18.2573 38.7534L17.8587 35.7717C17.8587 35.7717 17.8348 35.7159 17.8029 35.7159L14.877 35.4369C14.8053 35.4369 14.7973 35.3173 14.877 35.3093L17.7949 34.9346C17.7949 34.9346 17.8507 34.9107 17.8507 34.8788Z" fill="#FFFAFA"/>
<path d="M37.4067 17.6108C37.1277 17.6108 36.8646 17.6427 36.6015 17.6826C36.2348 15.3148 34.1939 13.4971 31.7145 13.4971C29.0677 13.4971 26.9152 15.5699 26.7796 18.1769C26.5325 18.137 26.2854 18.1131 26.0223 18.1131C23.2878 18.1131 21.0715 20.3294 21.0715 23.0639C21.0715 25.7984 23.2878 28.0147 26.0223 28.0147C26.6441 28.0147 27.242 27.8951 27.7842 27.6878C28.685 28.8677 30.1121 29.6331 31.7145 29.6331C33.4923 29.6331 35.0469 28.6923 35.9159 27.2892C36.3863 27.4407 36.8885 27.5204 37.4067 27.5204C40.1412 27.5204 42.3575 25.3041 42.3575 22.5696C42.3575 19.8351 40.1412 17.6188 37.4067 17.6188V17.6108Z" fill="#FFFAFA"/>
</g>
<defs>
<linearGradient id="paint0_linear_3393_929" x1="0.494934" y1="26.2966" x2="45.7776" y2="26.2966" gradientUnits="userSpaceOnUse">
<stop offset="0.11" stop-color="#D67EFF"/>
<stop offset="0.72" stop-color="#FF9C41"/>
<stop offset="1" stop-color="#EDAC0A"/>
</linearGradient>
<clipPath id="clip0_3393_929">
<rect width="45.2827" height="45.2906" fill="white" transform="translate(0.494934)"/>
</clipPath>
</defs>
</svg>
