<svg width="116" height="104" viewBox="0 0 116 104" fill="none" xmlns="http://www.w3.org/2000/svg">
<g clip-path="url(#clip0_2507_5916)">
<path d="M108.923 47.4439C108.601 35.8121 98.9107 26.6443 87.28 26.9663C87.2719 26.9664 87.2638 26.9666 87.2555 26.9678C86.4171 15.8216 76.9558 7.19057 65.6644 7.50269C61.8947 7.60755 58.3834 8.69617 55.3703 10.516C52.9555 9.6411 50.3379 9.19595 47.615 9.27137C38.3704 9.52693 30.6835 15.7011 28.0784 24.0627C27.7034 24.0531 27.327 24.0537 26.9473 24.0631C15.3164 24.3874 6.14738 34.0781 6.46936 45.7087C6.58366 49.8581 7.89131 53.6931 10.0533 56.8958C6.6545 60.7537 4.64957 65.8571 4.80302 71.4029C5.12486 83.0347 14.8157 92.2025 26.4463 91.8805C28.9393 91.8112 31.3192 91.3111 33.5168 90.4536C37.3234 93.6411 42.2649 95.5055 47.619 95.3572C51.2005 95.2578 54.5464 94.2701 57.4561 92.6111C60.9229 94.8742 65.0899 96.1432 69.5415 96.019C75.0526 95.8659 80.0093 93.6097 83.6673 90.0411C84.7396 90.1781 85.8358 90.2347 86.9498 90.2044C98.5816 89.8825 107.749 80.1917 107.427 68.5611C107.341 65.4408 106.58 62.4982 105.288 59.868C107.692 56.3355 109.05 52.0417 108.922 47.4426L108.923 47.4439Z" fill="#FFFAFA"/>
<path d="M108.923 47.4439C108.601 35.8121 98.9107 26.6443 87.28 26.9663C87.2719 26.9664 87.2638 26.9666 87.2555 26.9678C86.4171 15.8216 76.9558 7.19057 65.6644 7.50269C61.8947 7.60755 58.3834 8.69617 55.3703 10.516C52.9555 9.6411 50.3379 9.19595 47.615 9.27137C38.3704 9.52693 30.6835 15.7011 28.0784 24.0627C27.7034 24.0531 27.327 24.0537 26.9473 24.0631C15.3164 24.3874 6.14738 34.0781 6.46936 45.7087C6.58366 49.8581 7.89131 53.6931 10.0533 56.8958C6.6545 60.7537 4.64957 65.8571 4.80302 71.4029C5.12486 83.0347 14.8157 92.2025 26.4463 91.8805C28.9393 91.8112 31.3192 91.3111 33.5168 90.4536C37.3234 93.6411 42.2649 95.5055 47.619 95.3572C51.2005 95.2578 54.5464 94.2701 57.4561 92.6111C60.9229 94.8742 65.0899 96.1432 69.5415 96.019C75.0526 95.8659 80.0093 93.6097 83.6673 90.0411C84.7396 90.1781 85.8358 90.2347 86.9498 90.2044C98.5816 89.8825 107.749 80.1917 107.427 68.5611C107.341 65.4408 106.58 62.4982 105.288 59.868C107.692 56.3355 109.05 52.0417 108.922 47.4426L108.923 47.4439Z" stroke="#1A1A1A" stroke-width="0.828283" stroke-linecap="round" stroke-linejoin="round"/>
<path d="M28.0735 24.0632C29.0679 24.0261 30.0713 24.3074 30.9013 24.8564C31.7313 25.4054 32.3852 26.2162 32.7418 27.145" stroke="#1A1A1A" stroke-width="0.828283" stroke-linecap="round" stroke-linejoin="round"/>
<path d="M87.2533 26.9189C87.3496 28.6929 86.4432 30.4867 84.959 31.4642" stroke="#1A1A1A" stroke-width="0.828283" stroke-linecap="round" stroke-linejoin="round"/>
<path d="M57.4621 92.6177C59.6821 90.9098 61.2226 88.3001 61.5057 85.506" stroke="#1A1A1A" stroke-width="0.828283" stroke-linecap="round" stroke-linejoin="round"/>
<path d="M10.0391 56.9056C10.9343 56.1777 12.0274 55.6922 13.171 55.5359C14.8188 55.3092 16.5501 55.769 17.8699 56.7819" stroke="#1A1A1A" stroke-width="0.828283" stroke-linecap="round" stroke-linejoin="round"/>
<path d="M32.8361 90.7497C33.8053 90.3112 34.4932 89.3978 34.8881 88.4109C35.2831 87.424 35.4185 86.3549 35.552 85.3007" stroke="#1A1A1A" stroke-width="0.828283" stroke-linecap="round" stroke-linejoin="round"/>
<path d="M83.6451 90.0695C83.9914 89.6589 84.339 89.2472 84.6261 88.7921C84.913 88.3381 85.1376 87.8358 85.2175 87.3052C85.2978 86.7629 85.2236 86.2061 85.0751 85.6783C84.9255 85.1503 84.7023 84.6467 84.4812 84.1445" stroke="#1A1A1A" stroke-width="0.828283" stroke-linecap="round" stroke-linejoin="round"/>
<path d="M105.292 59.8697C104.133 58.7715 102.645 58.027 101.07 57.7592C99.4966 57.4915 97.845 57.7026 96.3882 58.3571" stroke="#1A1A1A" stroke-width="0.828283" stroke-linecap="round" stroke-linejoin="round"/>
<path d="M55.2024 10.4591C55.9724 10.7367 56.6498 11.2656 57.1047 11.9451C57.5594 12.6257 57.7898 13.4531 57.7528 14.2705" stroke="#1A1A1A" stroke-width="0.828283" stroke-linecap="round" stroke-linejoin="round"/>
<g opacity="0.15">
<path d="M61.0041 19.0005C63.6501 18.1202 66.5199 18.4369 68.7904 20.0336" stroke="#1A1A1A" stroke-width="0.828283" stroke-linecap="round" stroke-linejoin="round"/>
<path d="M68.7702 19.8805C70.2982 18.8958 72.2681 18.6293 74.0029 19.173C75.7377 19.7166 77.3508 20.95 78.0434 22.6304" stroke="#1A1A1A" stroke-width="0.828283" stroke-linecap="round" stroke-linejoin="round"/>
</g>
<path d="M60.9939 19.2214C64.4659 18.0665 68.6076 19.3532 70.8141 22.2732" stroke="#1A1A1A" stroke-width="0.828283" stroke-linecap="round" stroke-linejoin="round"/>
<path d="M68.923 20.3244C70.451 19.3396 72.421 19.0732 74.1558 19.6168C75.8906 20.1604 77.3569 21.503 78.0506 23.1835" stroke="#1A1A1A" stroke-width="0.828283" stroke-linecap="round" stroke-linejoin="round"/>
<g opacity="0.03">
<path d="M47.2218 68.6003C49.333 67.5713 51.9294 66.8202 53.9646 67.9916C55.9996 69.1642 57.3927 71.3832 57.5628 73.7267C55.0376 70.429 51.6057 69.2805 47.2218 68.6003Z" fill="#1A1A1A"/>
<path d="M67.7431 73.5621C67.449 71.2565 65.2947 69.5169 63.0161 69.0549C60.7374 68.5929 58.3775 69.165 56.1848 69.9374C60.5636 70.0913 64.4569 71.2162 67.7431 73.5621Z" fill="#1A1A1A"/>
<path d="M66.892 71.2855C67.8666 69.418 69.6702 68.0045 71.7159 67.5021C73.7614 67.0008 76.0438 68.4646 77.7716 69.6684C74.1526 69.586 70.5068 69.4214 66.8921 71.2844L66.892 71.2855Z" fill="#1A1A1A"/>
</g>
<path d="M47.2277 68.8048C49.3389 67.7757 51.959 67.8657 53.9941 69.0383C56.0291 70.2109 57.4222 72.4299 57.5924 74.7734" fill="#FFFAFA"/>
<path d="M47.2277 68.8048C49.3389 67.7757 51.959 67.8657 53.9941 69.0383C56.0291 70.2109 57.4222 72.4299 57.5924 74.7734" stroke="#1A1A1A" stroke-width="0.828283" stroke-linecap="round" stroke-linejoin="round"/>
<path d="M56.2143 70.983C58.407 70.2106 60.767 69.6385 63.0456 70.1005C65.3243 70.5625 67.4786 72.3021 67.7727 74.6077" fill="#FFFAFA"/>
<path d="M56.2143 70.983C58.407 70.2106 60.767 69.6385 63.0456 70.1005C65.3243 70.5625 67.4786 72.3021 67.7727 74.6077" stroke="#1A1A1A" stroke-width="0.828283" stroke-linecap="round" stroke-linejoin="round"/>
<path d="M66.9216 72.3311C67.8962 70.4636 69.6999 69.0501 71.7455 68.5477C73.791 68.0464 76.0449 68.4659 77.7727 69.6697" fill="#FFFAFA"/>
<path d="M66.9216 72.3311C67.8962 70.4636 69.6999 69.0501 71.7455 68.5477C73.791 68.0464 76.0449 68.4659 77.7727 69.6697" stroke="#1A1A1A" stroke-width="0.828283" stroke-linecap="round" stroke-linejoin="round"/>
<path opacity="0.15" d="M90.0383 52.2238C90.3238 49.1684 87.8557 47.7451 87.0251 47.2851C87.1678 46.8919 87.2643 46.4791 87.3026 46.0509C88.0887 37.6075 67.4134 35.3899 64.623 48.2526L57.227 47.5899L57.2247 47.6081C56.7867 34.4361 36.0268 32.9349 35.2985 41.3878C35.2601 41.8171 35.2815 42.24 35.3518 42.6517C34.4536 42.9577 31.7719 43.9193 31.5082 46.9763C31.2431 50.0354 33.6684 52.0252 34.5029 52.4822C34.2902 53.0751 34.2282 53.9078 34.2151 54.0498C33.5023 61.9975 54.7939 63.6911 57.0447 50.29L64.3205 50.9424C64.15 64.5295 85.4034 66.6513 86.1162 58.7035C86.1293 58.5616 86.2164 57.732 86.112 57.11C87.0143 56.8091 89.7559 55.282 90.0381 52.225L90.0383 52.2238Z" fill="#606060"/>
<path d="M59.2053 50.4815C59.2333 50.3495 59.2582 50.2148 59.2788 50.0773C59.3367 49.7419 59.3807 49.3977 59.4133 49.0429C59.4518 48.6136 59.4692 48.1944 59.4687 47.7891C59.4685 47.6513 59.4662 47.5121 59.461 47.3772C59.1555 38.5432 49.7015 34.9674 43.3008 36.1293C40.1692 36.6968 37.7693 38.3996 37.5314 41.175C37.493 41.6043 37.5121 42.0269 37.5847 42.4388C36.6853 42.7448 34.0037 43.7063 33.7421 46.7647C33.4759 49.8237 35.9022 51.8148 36.7368 52.2707C36.5229 52.8634 36.4622 53.6951 36.448 53.8369C36.4052 54.3201 36.4426 54.7821 36.5574 55.2178C36.7 55.7924 36.972 56.3229 37.3486 56.8039C37.626 57.1602 37.9589 57.4899 38.3407 57.7898C38.6105 58.0029 38.9053 58.2017 39.2228 58.3847C41.0962 59.4793 43.7152 60.0531 46.4466 59.9753C51.9374 59.8173 57.8936 57.0187 59.2054 50.4803L59.2053 50.4815ZM41.9078 55.8063C41.0234 55.4994 40.459 54.6304 40.5413 53.6994L41.6092 41.3284C41.6679 40.6527 42.0761 40.0518 42.6944 39.7722C46.1235 38.2091 56.2401 39.4849 55.4451 48.6878C54.7342 56.9078 45.134 56.9142 41.9078 55.8063Z" fill="#A8D73C"/>
<path d="M55.4448 48.6889C54.734 56.9078 45.1326 56.9152 41.9076 55.8063C41.0219 55.5004 40.4598 54.6316 40.541 53.7005L41.6089 41.3295C41.6674 40.655 42.077 40.053 42.6942 39.7722C46.1235 38.2079 56.2398 39.486 55.4459 48.689L55.4448 48.6889Z" fill="#333333"/>
<mask id="mask0_2507_5916" style="mask-type:luminance" maskUnits="userSpaceOnUse" x="40" y="39" width="16" height="18">
<path d="M55.4448 48.6889C54.734 56.9078 45.1326 56.9152 41.9076 55.8063C41.0219 55.5004 40.4598 54.6316 40.541 53.7005L41.6089 41.3295C41.6674 40.655 42.077 40.053 42.6942 39.7722C46.1235 38.2079 56.2398 39.486 55.4459 48.689L55.4448 48.6889Z" fill="white"/>
</mask>
<g mask="url(#mask0_2507_5916)">
<path d="M51.2723 63.542C51.1087 64.0843 48.8118 60.6819 48.2473 60.6313C47.6829 60.5807 47.2926 64.9335 46.7282 64.8829C46.1637 64.8323 46.5541 60.4795 45.9896 60.4289C45.4252 60.3783 45.0349 64.7312 44.4705 64.6806C43.906 64.63 45.7722 62.7148 45.7069 62.151C45.3931 59.4366 41.6037 59.4857 41.8476 56.7643C42.0915 54.0429 46.4444 54.4332 46.6894 51.712C46.9345 48.9907 42.5805 48.6003 42.8244 45.8789C43.0683 43.1575 47.4211 43.5478 47.6651 40.8263C47.909 38.1049 43.0936 37.1708 43.8847 34.5546C44.0483 34.0123 46.3452 37.4148 46.9096 37.4654C47.4741 37.516 47.8644 33.1631 48.4288 33.2137C48.9932 33.2643 48.6029 37.6171 49.1674 37.6677C49.7318 37.7183 50.1221 33.3655 50.6865 33.4161C51.251 33.4667 49.3848 35.3818 49.4501 35.9456C49.7639 38.66 53.5533 38.6109 53.3094 41.3323C53.0655 44.0537 48.7126 43.6634 48.4676 46.3847C48.2236 49.1061 52.5765 49.4964 52.3326 52.2178C52.0887 54.9392 46.9583 55.252 47.531 57.9234C48.2082 61.0848 52.0633 60.9269 51.2711 63.5419L51.2723 63.542Z" fill="#FFFAFA"/>
</g>
<path d="M52.4985 39.8571C52.5725 39.8953 52.6474 39.9347 52.7201 39.9739C52.7538 39.9919 52.7861 40.011 52.8198 40.0291C52.9573 40.1053 52.7034 39.9591 52.838 40.0406C52.9812 40.1268 53.1229 40.2162 53.2618 40.3099C53.533 40.493 53.793 40.6921 54.0422 40.9037C54.1635 41.0079 54.2822 41.1142 54.3981 41.2247C54.4261 41.2513 54.4529 41.2778 54.4797 41.3043C54.549 41.3708 54.3762 41.1965 54.4797 41.3043C54.5433 41.3701 54.6068 41.4359 54.6691 41.5027C54.8967 41.7487 55.11 42.0068 55.3067 42.2767C55.3969 42.399 55.4831 42.5244 55.5668 42.6517C55.6086 42.716 55.6492 42.7801 55.6887 42.844C55.7043 42.868 55.7873 43.001 55.7014 42.863C55.7255 42.9019 55.7472 42.9416 55.77 42.9815C55.9436 43.2891 56.0984 43.6082 56.2325 43.9351C56.2945 44.0875 56.3529 44.2418 56.4065 44.3967C56.4363 44.4826 56.4639 44.5682 56.4913 44.655C56.5037 44.6947 56.515 44.7343 56.5275 44.773C56.5469 44.8402 56.5462 44.8366 56.5245 44.7598C56.5308 44.7838 56.5371 44.8077 56.5434 44.8316C56.635 45.1742 56.7053 45.5209 56.7542 45.872C56.7819 46.0676 56.8026 46.2647 56.8175 46.461C56.8249 46.5592 56.83 46.6582 56.8339 46.7571C56.8359 46.806 56.8366 46.8559 56.8386 46.9047C56.8434 47.0524 56.8401 46.7996 56.8394 46.9361C56.8343 47.3488 56.8077 47.7576 56.7486 48.167C56.7027 48.4889 56.9584 48.8344 57.2886 48.8605C57.6187 48.8866 57.9322 48.6651 57.9821 48.3205C58.2076 46.7603 58.0227 45.149 57.4666 43.6743C56.9461 42.2944 56.0766 41.0678 54.9863 40.0801C54.3819 39.5325 53.701 39.0784 52.9751 38.7067C52.6857 38.5584 52.2711 38.7452 52.1622 39.0431C52.0392 39.3809 52.1886 39.6958 52.4986 39.856L52.4985 39.8571Z" fill="#FFFAFA"/>
<path d="M36.2635 48.9031C36.1645 48.6754 36.0644 48.4476 35.98 48.2137C35.9592 48.1578 35.9397 48.101 35.9224 48.0444C35.9114 48.0118 35.9016 47.9793 35.8917 47.9468C35.9116 48.0199 35.9136 48.0225 35.8954 47.9542C35.8693 47.8387 35.843 47.7243 35.8274 47.6077C35.8118 47.4912 35.7961 47.3758 35.801 47.2618C35.7946 47.4254 35.8043 47.2541 35.805 47.2299C35.8074 47.1642 35.8134 47.0978 35.8205 47.0315C35.8325 46.9161 35.8558 46.8032 35.877 46.6889C35.903 46.5452 35.8428 46.7866 35.8842 46.6586C35.9049 46.5952 35.9231 46.5326 35.946 46.4695C35.985 46.3609 36.0307 46.2543 36.0829 46.1508C36.0908 46.1344 36.1853 45.9702 36.1362 46.0486C36.087 46.127 36.1819 45.979 36.1917 45.9652C36.2499 45.8787 36.3123 45.7962 36.3779 45.7152C36.4161 45.669 36.4563 45.6254 36.4953 45.5816C36.5961 45.4692 36.3974 45.6702 36.5085 45.5682C36.6639 45.4267 36.8253 45.302 36.9995 45.186C37.0572 45.1503 37.0498 45.154 36.9772 45.1982C37.0032 45.1841 37.0294 45.1689 37.0555 45.1547C37.0951 45.1342 37.1347 45.1137 37.1753 45.0944C37.2824 45.0429 37.3933 44.9988 37.5057 44.9607C37.8141 44.8544 37.9709 44.4317 37.8319 44.1447C37.6774 43.8233 37.3449 43.7043 37.0158 43.8185C36.0093 44.1666 35.161 44.9918 34.7977 45.9943C34.5952 46.5513 34.5219 47.15 34.591 47.7386C34.6601 48.3272 34.8895 48.8651 35.1211 49.3941C35.2508 49.6915 35.6342 49.8666 35.9372 49.7203C36.2402 49.5739 36.4032 49.2226 36.2634 48.9042L36.2635 48.9031Z" fill="#FFFAFA"/>
<path d="M92.2709 52.0132C92.5564 48.9578 90.0872 47.5344 89.2568 47.0721C89.3994 46.6801 89.4958 46.2684 89.5354 45.8392C89.9935 40.9229 83.1736 38.1161 76.8468 39.1679C72.3062 39.9223 68.016 42.6644 66.8522 48.0416C66.7383 48.5657 66.6538 49.1143 66.6031 49.6892C66.5706 50.0428 66.5527 50.3914 66.5497 50.7314C66.4434 59.1818 74.6248 63.1976 81.0003 63.1116C84.8743 63.0614 88.0793 61.4948 88.3479 58.4916C88.3609 58.3497 88.4492 57.5202 88.3448 56.8983C89.2471 56.5974 91.9877 55.069 92.2709 52.0132ZM70.5713 50.0443C71.4248 40.8464 81.6085 41.3885 84.7038 43.5382C85.2613 43.9236 85.5583 44.588 85.4952 45.262L84.3458 57.6275C84.26 58.558 83.5512 59.3137 82.6258 59.4567C79.255 59.9747 69.8069 58.2577 70.5715 50.0432L70.5713 50.0443Z" fill="#A8D73C"/>
<path d="M70.5701 50.0453C69.8066 58.26 79.2548 59.9758 82.6256 59.4578C83.551 59.3148 84.2597 58.5603 84.3456 57.6286L85.4961 45.2644C85.5591 44.5904 85.2634 43.925 84.7048 43.5394C81.6082 41.3907 71.4258 40.8477 70.5712 50.0454L70.5701 50.0453Z" fill="#333333"/>
<mask id="mask1_2507_5916" style="mask-type:luminance" maskUnits="userSpaceOnUse" x="70" y="42" width="16" height="18">
<path d="M70.5698 50.0453C69.8063 58.26 79.2546 59.9759 82.6254 59.4578C83.5508 59.3149 84.2595 58.5603 84.3454 57.6287L85.4958 45.2645C85.5589 44.5905 85.2632 43.9251 84.7046 43.5395C81.6079 41.3908 71.4256 40.8477 70.571 50.0455L70.5698 50.0453Z" fill="white"/>
</mask>
<g mask="url(#mask1_2507_5916)">
<path d="M76.3757 64.9021C76.4411 65.4648 74.5739 67.3797 75.1383 67.4303C75.7027 67.4809 76.093 63.1281 76.6575 63.1787C77.2219 63.2293 76.8316 67.5821 77.396 67.6327C77.9605 67.6833 78.3508 63.3305 78.9152 63.3811C79.4796 63.4316 81.7764 66.8352 81.9413 66.292C82.7334 63.677 77.917 62.7416 78.1608 60.0213C78.4047 57.2999 82.7575 57.6902 83.0026 54.969C83.2476 52.2477 78.8936 51.8573 79.1375 49.1359C79.3814 46.4145 83.7343 46.8048 83.9782 44.0833C84.2221 41.3619 80.4329 41.41 80.1191 38.6955C80.0537 38.1329 81.9209 36.2179 81.3565 36.1673C80.7921 36.1167 80.4018 40.4695 79.8373 40.4189C79.2729 40.3683 79.6632 36.0155 79.0988 35.9649C78.5344 35.9143 78.1441 40.2671 77.5796 40.2166C77.0152 40.166 74.7184 36.7624 74.5536 37.3057C73.7614 39.9206 78.5778 40.856 78.334 43.5763C78.0901 46.2977 73.7373 45.9074 73.4922 48.6286C73.2483 51.35 77.6012 51.7403 77.3573 54.4617C77.1134 57.1832 72.218 57.2358 72.5212 59.9513C72.8245 62.6667 76.0619 62.1877 76.3757 64.9021Z" fill="#FFFAFA"/>
</g>
<path d="M74.6638 40.6997C71.8554 41.554 69.5533 43.8004 68.6255 46.5848C68.3448 47.4262 68.1742 48.3033 68.1424 49.1908C68.1311 49.5147 68.327 49.8563 68.6824 49.8843C68.9942 49.9092 69.3638 49.6925 69.3759 49.3444C69.389 48.979 69.4239 48.6152 69.4828 48.2533C69.5091 48.0887 69.5409 47.9259 69.5773 47.7638C69.5977 47.6748 69.6191 47.5861 69.6406 47.4973C69.6645 47.3984 69.5978 47.6459 69.6428 47.4894C69.659 47.4336 69.674 47.3776 69.6914 47.3218C69.7931 46.9791 69.9171 46.6438 70.0597 46.3165C70.1294 46.1562 70.2046 45.9989 70.2842 45.8432C70.3256 45.7615 70.368 45.6812 70.4127 45.6011C70.4278 45.5728 70.4423 45.5399 70.4617 45.5145C70.3707 45.641 70.491 45.4649 70.507 45.4391C70.6862 45.1431 70.8827 44.8573 71.0972 44.5853C71.2004 44.4535 71.3078 44.3256 71.4194 44.2006C71.4694 44.1432 71.5215 44.0871 71.5735 44.0322C71.599 44.0042 71.6255 43.9774 71.6521 43.9494C71.6761 43.9246 71.7884 43.7939 71.684 43.9163C71.8914 43.6736 72.1676 43.4637 72.418 43.2657C72.6684 43.0676 72.9424 42.8748 73.2199 42.701C73.2577 42.6768 73.297 42.6492 73.3365 42.6298C73.1957 42.7003 73.3327 42.6317 73.3564 42.6184C73.435 42.5727 73.5157 42.5294 73.5963 42.4862C73.7574 42.4009 73.9215 42.3195 74.0872 42.244C74.4332 42.0869 74.7902 41.953 75.1535 41.8431C75.4653 41.7477 75.614 41.3066 75.4797 41.0271C75.3206 40.697 74.997 40.5988 74.6637 40.7009L74.6638 40.6997Z" fill="#FFFAFA"/>
<path d="M90.4204 54.3899C90.7516 53.8963 91.0917 53.3876 91.2605 52.8124C91.4294 52.2373 91.4777 51.6448 91.3675 51.0603C91.1574 49.9401 90.4525 49.0281 89.4679 48.4749C89.1832 48.3156 88.7606 48.5211 88.655 48.8113C88.5283 49.159 88.6873 49.4532 88.9914 49.6242C88.8389 49.538 89.0137 49.6397 89.0427 49.6583C89.0802 49.6827 89.1164 49.708 89.1526 49.7334C89.2365 49.7936 89.3186 49.8594 89.3958 49.928C89.4176 49.9481 89.4394 49.9682 89.4612 49.9883C89.5098 50.0348 89.5047 50.0296 89.4438 49.9699C89.4455 49.984 89.5245 50.0564 89.5346 50.068C89.6038 50.1449 89.6701 50.2261 89.7302 50.31C89.7647 50.3583 89.7992 50.4066 89.8312 50.4569C89.8554 50.4946 89.9421 50.5795 89.842 50.4721C89.9043 50.5389 89.9451 50.6667 89.9809 50.7511C90.0252 50.8515 90.0598 50.9542 90.0945 51.0569C90.1151 51.1243 90.1132 51.1206 90.0914 51.045C90.0976 51.0689 90.1039 51.0928 90.1089 51.1178C90.1216 51.1738 90.1331 51.2308 90.1434 51.2876C90.1628 51.4012 90.1761 51.5174 90.1826 51.6328C90.1859 51.6992 90.2 51.7716 90.1856 51.6645C90.194 51.7269 90.1826 51.7996 90.1783 51.8627C90.1696 51.9785 90.1553 52.0937 90.1354 52.207C90.1259 52.2556 90.1152 52.304 90.1045 52.3525C90.0878 52.4221 90.0885 52.4164 90.109 52.3356C90.1004 52.367 90.0906 52.3993 90.0798 52.4304C90.0045 52.663 89.8982 52.8848 89.7779 53.0978C89.8314 53.0026 89.7725 53.1041 89.7504 53.1419C89.7184 53.1946 89.6852 53.2472 89.6509 53.2997C89.579 53.4123 89.5039 53.5222 89.4299 53.6333C89.2494 53.9026 89.2595 54.3044 89.546 54.5045C89.808 54.6876 90.2238 54.6768 90.4172 54.3884L90.4204 54.3899Z" fill="#FFFAFA"/>
<path d="M67.3168 48.0845L59.4573 47.3793L59.2155 50.0739L67.075 50.7791L67.3168 48.0845Z" fill="#A8D73C"/>
</g>
<defs>
<clipPath id="clip0_2507_5916">
<rect width="104.327" height="90.7285" fill="white" transform="translate(11.4854 0.09375) rotate(7.09718)"/>
</clipPath>
</defs>
</svg>
