<svg width="232" height="232" viewBox="0 0 232 232" fill="none" xmlns="http://www.w3.org/2000/svg">
<path d="M129.6 217.875C185.864 210.364 225.386 158.664 217.875 102.4C210.364 46.136 158.664 6.61383 102.4 14.1248C46.136 21.6359 6.61383 73.3358 14.1248 129.6C21.6359 185.864 73.3358 225.386 129.6 217.875Z" fill="#FFBE02"/>
<mask id="mask0_3506_2093" style="mask-type:luminance" maskUnits="userSpaceOnUse" x="13" y="13" width="206" height="206">
<path d="M129.6 217.875C185.864 210.364 225.386 158.664 217.875 102.4C210.364 46.136 158.664 6.61383 102.4 14.1248C46.136 21.6359 6.61383 73.3358 14.1248 129.6C21.6359 185.864 73.3358 225.386 129.6 217.875Z" fill="white"/>
</mask>
<g mask="url(#mask0_3506_2093)">
<path opacity="0.2" d="M63.6641 240.117L-1.66017 190.18L174.908 4.44521L196.578 21.0109L63.6641 240.117Z" fill="white"/>
<path opacity="0.2" d="M103.749 254.877L33.1142 212.787L187.133 7.96746L210.564 21.9303L103.749 254.877Z" fill="white"/>
</g>
</svg>
