<svg width="240" height="223" viewBox="0 0 240 223" fill="none" xmlns="http://www.w3.org/2000/svg">
<path d="M31.3001 55.2585C31.3001 59.2427 31.8462 63.1393 32.8511 66.8826C24.8341 70.4509 0.739519 84.2422 0.826897 112.657C0.914276 141.093 25.0962 154.709 33.1569 158.234C31.6714 163.904 31.8025 171.631 31.8025 172.945C31.8025 248.666 239.173 245.645 239.173 110.687C239.173 -24.2716 31.0161 -26.4826 31.3001 55.2585ZM69.3315 168.26L68.9602 53.3102C68.9602 47.0275 72.215 41.1607 77.6543 38.0521C107.931 20.7801 202.081 27.2161 202.365 112.744C202.627 189.122 114.266 194.135 83.6616 186.561C75.2514 184.481 69.3534 176.929 69.3315 168.26Z" fill="#FFBE02"/>
</svg>
