<svg width="37" height="35" viewBox="0 0 37 35" fill="none" xmlns="http://www.w3.org/2000/svg">
<path d="M4.70786 8.4762C4.70786 9.09011 4.79223 9.69053 4.94747 10.2673C3.70892 10.8172 -0.0134625 12.6387 3.66199e-05 17.0136C0.0135358 21.3953 3.74942 23.797 4.99472 24.3401C4.76523 25.2137 4.78548 26.4044 4.78548 26.6068C4.78548 38.2745 36.8224 37.809 36.8224 17.0136C36.8224 -3.78179 4.66399 -4.1191 4.70786 8.4762ZM10.5834 25.8883L10.526 8.17599C10.526 7.2079 11.0288 6.3039 11.8692 5.82491C16.5466 3.16351 31.092 3.83476 31.1358 17.0136C31.1763 28.7825 17.5253 29.8754 12.7972 28.7083C11.4979 28.3878 10.5867 27.2241 10.5834 25.8883Z" fill="#FFBE02"/>
<path d="M14.0898 16.6156L17.8459 15.2259C17.9202 15.1989 17.9775 15.1382 18.0079 15.064L19.3983 11.3097C19.4861 11.0735 19.8202 11.0735 19.9079 11.3097L21.2983 15.064C21.3253 15.1382 21.3861 15.1955 21.4603 15.2259L25.2165 16.6156C25.4527 16.7033 25.4527 17.0372 25.2165 17.1249L21.4603 18.5147C21.3861 18.5417 21.3287 18.6024 21.2983 18.6766L19.9079 22.4309C19.8202 22.667 19.4861 22.667 19.3983 22.4309L18.0079 18.6766C17.9809 18.6024 17.9202 18.545 17.8459 18.5147L14.0898 17.1249C13.8535 17.0372 13.8535 16.7033 14.0898 16.6156Z" fill="#FFBE02"/>
</svg>
