<svg width="100" height="104" viewBox="0 0 100 104" fill="none" xmlns="http://www.w3.org/2000/svg">
<g clip-path="url(#clip0_2518_10259)">
<path d="M68.3017 29.8068L65.8243 34.4271C65.4901 35.0395 64.825 35.3985 64.1335 35.326L64.102 35.3193C55.5743 34.5979 47.878 39.9652 45.4121 47.8952C45.2373 48.4735 44.7098 48.8646 44.111 48.8323C41.2466 48.6581 32.9921 48.8951 27.776 56.7211C27.4572 57.2026 26.869 57.4159 26.324 57.2278C22.9725 56.0646 11.6106 52.2079 11.6106 52.2079C8.48271 51.1484 8.20983 46.8372 11.1869 45.4009L25.4624 38.4991C26.7274 37.8838 27.5322 36.6146 27.5495 35.2244L27.7281 19.37C27.768 16.0687 31.7892 14.4791 34.0757 16.8607L45.0584 28.3125C46.0215 29.3151 47.4766 29.691 48.8121 29.2783L63.9565 24.5501C67.1026 23.5657 69.8597 26.8949 68.3017 29.8068Z" fill="url(#paint0_linear_2518_10259)"/>
<path d="M94.8373 69.6176C94.5099 73.4553 92.709 76.9435 89.7642 79.4334C86.816 81.9149 83.0784 83.1042 79.2325 82.7801C77.7631 82.6597 76.3262 82.3055 74.9631 81.7491L73.6811 81.228L72.8504 82.3345C69.8379 86.3786 65.0612 88.5359 60.0643 88.1192C55.5699 87.7343 51.5815 85.3242 49.1366 81.497L48.4129 80.3709L47.129 80.7439C45.4132 81.2397 43.6573 81.4151 41.9176 81.267C39.6521 81.077 37.548 80.3717 35.7276 79.2661C34.1189 78.3073 32.7288 77.0508 31.6182 75.578C29.5473 72.8422 28.4482 69.3572 28.7584 65.6705C28.8753 64.2409 29.2027 62.8818 29.7072 61.6064C31.9769 55.829 37.8506 51.9508 44.3599 52.4997C45.025 52.5538 45.7163 52.6744 46.5367 52.8785L47.4715 53.1046C48.0018 53.2312 48.5225 52.8716 48.5977 52.3327L48.7326 51.386C49.7666 43.9163 56.3747 38.5181 63.8633 38.9682C63.9794 38.9703 64.0988 38.9807 64.2182 38.9912C71.3561 39.5991 76.8927 45.2206 77.3831 52.3663L77.5101 54.1701L79.3074 54.0265C80.1836 53.9587 80.9584 53.9502 81.6749 54.0128C89.6055 54.682 95.5148 61.6837 94.8373 69.6176Z" fill="url(#paint1_linear_2518_10259)"/>
</g>
<defs>
<linearGradient id="paint0_linear_2518_10259" x1="7.35217" y1="45.0037" x2="66.4778" y2="21.6307" gradientUnits="userSpaceOnUse">
<stop offset="0.11" stop-color="#D67EFF"/>
<stop offset="0.72" stop-color="#FF9C41"/>
<stop offset="1" stop-color="#EDAC0A"/>
</linearGradient>
<linearGradient id="paint1_linear_2518_10259" x1="31.5283" y1="76.7839" x2="90.1343" y2="53.6162" gradientUnits="userSpaceOnUse">
<stop offset="0.11" stop-color="#D67EFF"/>
<stop offset="0.72" stop-color="#FF9C41"/>
<stop offset="1" stop-color="#EDAC0A"/>
</linearGradient>
<clipPath id="clip0_2518_10259">
<rect width="73.8213" height="81.7011" fill="white" transform="translate(0.5 27.6743) rotate(-21.5695)"/>
</clipPath>
</defs>
</svg>
