<svg width="208" height="208" viewBox="0 0 208 208" fill="none" xmlns="http://www.w3.org/2000/svg">
<path d="M104 207.585C161.208 207.585 207.585 161.208 207.585 104C207.585 46.7916 161.208 0.415009 104 0.415009C46.7915 0.415009 0.414917 46.7916 0.414917 104C0.414917 161.208 46.7915 207.585 104 207.585Z" fill="#49724D"/>
<mask id="mask0_3567_136" style="mask-type:luminance" maskUnits="userSpaceOnUse" x="0" y="0" width="208" height="208">
<path d="M104 207.585C161.208 207.585 207.585 161.208 207.585 104C207.585 46.7916 161.208 0.415009 104 0.415009C46.7915 0.415009 0.414917 46.7916 0.414917 104C0.414917 161.208 46.7915 207.585 104 207.585Z" fill="white"/>
</mask>
<g mask="url(#mask0_3567_136)">
<path opacity="0.15" d="M3.55477 67.5428C17.8209 76.0972 31.1162 87.1883 47.298 91.0369C62.1983 94.5838 77.8683 91.5442 93.101 93.1668C109.449 94.9074 124.69 101.931 139.77 108.483C154.85 115.038 170.559 121.314 187.003 121.424C203.447 121.533 220.941 114.133 228.337 99.4514C234.228 87.7568 232.771 73.4469 227.576 61.4287C222.38 49.4105 213.83 39.2072 205.398 29.1921C193.926 15.5644 182.044 1.6 166.277 -6.69642C148.539 -16.0293 127.791 -17.2146 107.774 -18.2029C77.9908 -19.6768 46.7338 -20.8664 19.9333 -7.78978C3.61599 0.169886 -9.70551 12.901 -21.0109 26.9091C-26.7838 34.0597 -32.0844 41.5776 -37.197 49.2093C-38.9639 51.8465 -43.7178 56.0362 -39.6374 57.6019C-36.4797 58.8134 -30.1076 56.5654 -26.4995 56.8278C-15.7933 57.5976 -5.54199 62.0891 3.56352 67.5471L3.55477 67.5428Z" fill="white"/>
<path opacity="0.15" d="M97.4047 -5.93551C101.887 10.0844 103.917 27.2764 113.022 41.1971C121.41 54.0156 134.876 62.5788 144.826 74.2297C155.501 86.7334 161.747 102.307 168.189 117.431C174.635 132.554 181.733 147.918 193.599 159.298C205.464 170.677 223.259 177.329 238.724 171.749C251.039 167.305 259.821 155.908 264.304 143.61C268.791 131.308 269.596 118.021 270.357 104.949C271.393 87.1664 272.36 68.8547 266.613 51.9907C260.149 33.0187 245.892 17.8997 232.032 3.41928C211.416 -18.1243 189.531 -40.4726 161.078 -49.3988C143.754 -54.8306 125.329 -54.7431 107.49 -52.3421C98.3799 -51.1176 89.3619 -49.2982 80.4051 -47.2733C77.3087 -46.5735 70.9759 -46.7966 72.8653 -42.8561C74.326 -39.8078 80.5013 -37.0569 82.9373 -34.3891C90.1841 -26.4732 94.5444 -16.1606 97.4047 -5.93988V-5.93551Z" fill="white"/>
</g>
</svg>
