<svg width="72" height="74" viewBox="0 0 72 74" fill="none" xmlns="http://www.w3.org/2000/svg">
<path d="M71.4889 36.5945C71.4889 31.4044 68.8451 26.8529 64.8794 24.2477C65.8955 19.5238 64.6328 14.3945 61.0617 10.7148C57.4907 7.03507 52.4892 5.74767 47.8922 6.79178C45.3667 2.71671 40.9374 0 35.8767 0C30.8161 0 26.3966 2.71671 23.8613 6.79178C19.2643 5.74767 14.2727 7.04521 10.6917 10.7148C7.12067 14.3844 5.8481 19.5238 6.87405 24.2477C2.90837 26.8427 0.264587 31.3942 0.264587 36.5945C0.264587 41.7948 2.90837 46.3362 6.87405 48.9414C5.85797 53.6652 7.12067 58.8047 10.6917 62.4743C14.2628 66.1438 19.2643 67.4414 23.8613 66.3973C26.3867 70.4723 30.8161 73.189 35.8767 73.189C40.9374 73.189 45.3569 70.4723 47.8922 66.3973C52.4892 67.4414 57.4808 66.1438 61.0617 62.4743C64.6427 58.8047 65.8955 53.6652 64.8794 48.9414C68.8451 46.3463 71.4889 41.7948 71.4889 36.5945Z" fill="#FFBE02"/>
</svg>
