<svg width="23" height="21" viewBox="0 0 23 21" fill="none" xmlns="http://www.w3.org/2000/svg">
<path d="M14.0056 8.26524L12.0479 0.338824C11.9384 -0.112941 11.295 -0.112941 11.1854 0.338824L9.25518 8.16257L1.45197 2.62503C1.09603 2.37176 0.623734 2.73455 0.781167 3.14524L4.34737 12.557C4.54587 13.0772 5.03871 13.4195 5.59315 13.4195H17.8045C18.3589 13.4195 18.8518 13.0772 19.0503 12.557L22.6165 3.14524C22.7739 2.73455 22.3016 2.37176 21.9457 2.62503L13.9987 8.27209L14.0056 8.26524Z" fill="url(#paint0_linear_3084_684)"/>
<path d="M8.44068 18.7294C8.5502 18.7294 8.66656 18.7294 8.76924 18.7089C9.32367 19.7082 10.3915 20.3859 11.6167 20.3859C12.842 20.3859 13.9235 19.7014 14.4779 18.6884C14.6353 18.7089 14.7928 18.7226 14.957 18.7226C16.2713 18.7226 17.4075 17.9423 17.9209 16.8197C18.0715 16.4911 17.8388 16.1215 17.476 16.1215H5.92175C5.56581 16.1215 5.33309 16.4911 5.47683 16.8197C5.9902 17.9423 7.12645 18.7226 8.44068 18.7226V18.7294Z" fill="url(#paint1_linear_3084_684)"/>
<defs>
<linearGradient id="paint0_linear_3084_684" x1="0.75" y1="10.1929" x2="22.6476" y2="10.1929" gradientUnits="userSpaceOnUse">
<stop offset="0.11" stop-color="#D67EFF"/>
<stop offset="0.72" stop-color="#FF9C41"/>
<stop offset="1" stop-color="#EDAC0A"/>
</linearGradient>
<linearGradient id="paint1_linear_3084_684" x1="0.75" y1="10.1929" x2="22.6476" y2="10.1929" gradientUnits="userSpaceOnUse">
<stop offset="0.11" stop-color="#D67EFF"/>
<stop offset="0.72" stop-color="#FF9C41"/>
<stop offset="1" stop-color="#EDAC0A"/>
</linearGradient>
</defs>
</svg>
