<svg width="78" height="72" viewBox="0 0 78 72" fill="none" xmlns="http://www.w3.org/2000/svg">
<g clip-path="url(#clip0_2518_10269)">
<path d="M1.11 38.0324L11.0087 34.4222C15.4498 32.8023 18.937 29.3618 20.5789 24.9802L24.2381 15.2143C24.6135 14.196 26.0834 14.196 26.4587 15.2143L30.1179 24.9802C31.7599 29.3618 35.2471 32.8023 39.6882 34.4222L49.5868 38.0324C50.6189 38.4026 50.6189 39.8529 49.5868 40.2232L39.6882 43.8333C35.2471 45.4533 31.7599 48.8937 30.1179 53.2753L26.4587 63.0413C26.0834 64.0595 24.6135 64.0595 24.2381 63.0413L20.5789 53.2753C18.937 48.8937 15.4498 45.4533 11.0087 43.8333L1.11 40.2232C0.0779156 39.8529 0.0779156 38.4026 1.11 38.0324Z" fill="url(#paint0_linear_2518_10269)"/>
<path d="M46.7096 14.7514L52.8709 12.4989C55.6231 11.496 57.7967 9.35155 58.8132 6.63621L61.0963 0.557543C61.3309 -0.0750079 62.2378 -0.0750079 62.4724 0.557543L64.7555 6.63621C65.772 9.35155 67.9456 11.496 70.6978 12.4989L76.8591 14.7514C77.5002 14.9828 77.5002 15.8776 76.8591 16.109L70.6978 18.3615C67.9456 19.3644 65.772 21.5089 64.7555 24.2242L62.4724 30.3029C62.2378 30.9354 61.3309 30.9354 61.0963 30.3029L58.8132 24.2242C57.7967 21.5089 55.6231 19.3644 52.8709 18.3615L46.7096 16.109C46.0685 15.8776 46.0685 14.9828 46.7096 14.7514Z" fill="url(#paint1_linear_2518_10269)"/>
<path d="M46.5376 60.9894L50.4157 59.57C52.1515 58.9374 53.5276 57.5798 54.1688 55.8672L55.6075 52.0411C55.7638 51.64 56.3268 51.64 56.4832 52.0411L57.9218 55.8672C58.563 57.5798 59.9391 58.9374 61.6749 59.57L65.553 60.9894C65.9596 61.1437 65.9596 61.6991 65.553 61.8533L61.6749 63.2727C59.9391 63.9053 58.563 65.2629 57.9218 66.9755L56.4832 70.8016C56.3268 71.2028 55.7638 71.2028 55.6075 70.8016L54.1688 66.9755C53.5276 65.2629 52.1515 63.9053 50.4157 63.2727L46.5376 61.8533C46.131 61.6991 46.131 61.1437 46.5376 60.9894Z" fill="url(#paint2_linear_2518_10269)"/>
</g>
<defs>
<linearGradient id="paint0_linear_2518_10269" x1="0.335938" y1="39.1278" x2="50.3609" y2="39.1278" gradientUnits="userSpaceOnUse">
<stop offset="0.11" stop-color="#D67EFF"/>
<stop offset="0.72" stop-color="#FF9C41"/>
<stop offset="1" stop-color="#EDAC0A"/>
</linearGradient>
<linearGradient id="paint1_linear_2518_10269" x1="46.2288" y1="15.4302" x2="77.3399" y2="15.4302" gradientUnits="userSpaceOnUse">
<stop offset="0.11" stop-color="#D67EFF"/>
<stop offset="0.72" stop-color="#FF9C41"/>
<stop offset="1" stop-color="#EDAC0A"/>
</linearGradient>
<linearGradient id="paint2_linear_2518_10269" x1="46.2327" y1="61.4214" x2="65.858" y2="61.4214" gradientUnits="userSpaceOnUse">
<stop offset="0.11" stop-color="#D67EFF"/>
<stop offset="0.72" stop-color="#FF9C41"/>
<stop offset="1" stop-color="#EDAC0A"/>
</linearGradient>
<clipPath id="clip0_2518_10269">
<rect width="77" height="71" fill="white" transform="translate(0.34375 0.0947266)"/>
</clipPath>
</defs>
</svg>
