<svg width="34" height="35" viewBox="0 0 34 35" fill="none" xmlns="http://www.w3.org/2000/svg">
<path d="M29.4094 15.7862L29.4094 15.7862L29.4039 15.7926C28.632 16.6846 28.6235 17.9769 29.4102 18.8686C30.8233 20.4747 31.124 22.8685 29.9939 24.8272L29.993 24.8288C28.8659 26.7908 26.6349 27.7235 24.5223 27.2976C23.3342 27.0483 22.2458 27.7513 21.8744 28.8319L21.8742 28.8325C21.1769 30.8655 19.265 32.327 17.0001 32.327C14.7326 32.327 12.8141 30.8634 12.1272 28.836L12.1258 28.8319C11.7492 27.7364 10.6546 27.0658 9.48682 27.2958L9.48172 27.2968C7.37022 27.7242 5.14463 26.7939 4.00582 24.8265C2.87606 22.8675 3.17716 20.4736 4.59071 18.8677L4.59074 18.8677L4.59625 18.8613C5.3679 17.9697 5.37666 16.6779 4.59071 15.7862C3.17698 14.1801 2.87599 11.7858 4.00626 9.82669L4.00718 9.82509C5.13426 7.86314 7.36528 6.93043 9.47791 7.35633C10.666 7.60556 11.7543 6.90257 12.1258 5.82205L12.1272 5.81789C12.8141 3.79053 14.7326 2.32697 17.0001 2.32697C19.2676 2.32697 21.186 3.79053 21.873 5.81789L21.8744 5.82204C22.251 6.9175 23.3456 7.58812 24.5133 7.35813L24.5184 7.35709C26.6298 6.92979 28.8553 7.85997 29.9942 9.8272C31.1241 11.7862 30.8231 14.1803 29.4094 15.7862Z" stroke="#D4D4D4" stroke-width="2" stroke-miterlimit="10"/>
<path d="M22.1401 17.327C22.1401 20.1657 19.8389 22.467 17.0001 22.467C14.1614 22.467 11.8601 20.1657 11.8601 17.327C11.8601 14.4882 14.1614 12.187 17.0001 12.187C19.8389 12.187 22.1401 14.4882 22.1401 17.327Z" stroke="#D4D4D4" stroke-width="2" stroke-miterlimit="10"/>
</svg>
