<svg width="25" height="24" viewBox="0 0 25 24" fill="none" xmlns="http://www.w3.org/2000/svg">
<path d="M21.6613 11.0516L21.6641 11.0485C22.7188 9.85021 22.9435 8.06446 22.1006 6.6032C21.2512 5.13567 19.5908 4.44199 18.0162 4.76066L18.0137 4.76117C17.2939 4.90294 16.619 4.49145 16.3854 3.81196L16.3847 3.80988C15.8724 2.29796 14.4417 1.20589 12.75 1.20589C11.0583 1.20589 9.6276 2.29796 9.1153 3.80988L9.1146 3.81196C8.88357 4.484 8.21172 4.91376 7.48174 4.76025C5.90663 4.44236 4.24147 5.13724 3.40001 6.60201L3.39955 6.60281C2.55657 8.06396 2.78102 9.84966 3.83549 11.048L21.6613 11.0516ZM21.6613 11.0516C21.1828 11.6045 21.1785 12.4007 21.6641 12.9515C22.7189 14.1499 22.9435 15.9359 22.1004 17.3972L22.1 17.398C21.2585 18.8628 19.5933 19.5577 18.0182 19.2397C17.2882 19.0863 16.6164 19.516 16.3854 20.1881L16.3853 20.1884C15.8658 21.7031 14.4404 22.7941 12.75 22.7941C11.0583 22.7941 9.6276 21.702 9.1153 20.1901L9.11459 20.1881C8.88102 19.5086 8.20605 19.0971 7.48629 19.2388L7.48374 19.2394C5.9091 19.558 4.24858 18.8643 3.39921 17.3966C2.55653 15.9354 2.78122 14.1497 3.83589 12.9515L3.8359 12.9516M21.6613 11.0516L3.8359 12.9516M3.8359 12.9516L3.83865 12.9484M3.8359 12.9516L3.83865 12.9484M3.83865 12.9484C4.31713 12.3955 4.32151 11.5993 3.83589 11.0485L3.83865 12.9484Z" fill="#FFBE02" stroke="#FFBE02" stroke-miterlimit="10"/>
<path d="M16.584 12C16.584 14.1175 14.8674 15.8341 12.7499 15.8341C10.6324 15.8341 8.91577 14.1175 8.91577 12C8.91577 9.88247 10.6324 8.16588 12.7499 8.16588C14.8674 8.16588 16.584 9.88247 16.584 12Z" stroke="#FFFAFA" stroke-miterlimit="10"/>
</svg>
