<svg width="21" height="20" viewBox="0 0 21 20" fill="none" xmlns="http://www.w3.org/2000/svg">
<g clip-path="url(#clip0_2864_5512)">
<path d="M20.0247 9.91581C20.0247 10.158 15.7375 15.7752 10.5005 15.7752C9.70967 15.7752 8.94153 15.6466 8.20366 15.4271C7.94067 15.3495 7.8404 15.0279 8.00878 14.8084L9.00964 13.5068C9.10991 13.3762 9.28019 13.3195 9.43533 13.3687C9.8194 13.4878 10.23 13.5446 10.6538 13.5257C12.4625 13.4519 13.9666 12.0026 14.1028 10.1958C14.1615 9.42579 13.9779 8.70495 13.6242 8.09573C13.5068 7.89518 13.5144 7.64544 13.6563 7.46192L14.9391 5.79131C15.1131 5.56238 15.4348 5.50373 15.6807 5.65698C18.3711 7.33705 20.0247 9.75688 20.0247 9.91581Z" fill="#FFBE02"/>
<path d="M12.8574 5.19725L12.0609 6.23405C11.919 6.41947 11.6787 6.49136 11.4536 6.43082C11.1017 6.33244 10.7308 6.28892 10.3468 6.30595C8.53803 6.37974 7.03392 7.82898 6.8977 9.63392C6.83526 10.455 7.04716 11.2213 7.44826 11.8532C7.52772 11.98 7.52015 12.1427 7.42934 12.26L6.00279 14.1179C5.89117 14.2617 5.68873 14.3014 5.53359 14.2068C2.80536 12.5267 0.97583 10.0729 0.97583 9.91583C0.97583 9.67366 4.81653 4.0564 10.5 4.0564C11.2114 4.0564 11.8944 4.14721 12.5471 4.30614C12.9425 4.40073 13.1052 4.87562 12.8574 5.19725Z" fill="#FFBE02"/>
<path d="M15.1536 4.57668L14.7336 5.12346L13.0327 7.33706L11.1748 9.755L10.0491 11.2213L8.66039 13.0262L7.11844 15.0355L6.41084 15.9569C6.26327 16.148 5.98893 16.1839 5.79784 16.0363C5.60675 15.8888 5.5708 15.6144 5.71838 15.4214L6.31057 14.6495L7.96793 12.4946L9.21095 10.8769L10.9289 8.64252L10.9345 8.63306L12.3403 6.80542L13.9182 4.74885L14.4612 4.04125C14.6087 3.85016 14.8831 3.81421 15.0742 3.96179C15.2671 4.10936 15.3031 4.3837 15.1555 4.57668H15.1536Z" fill="#FFBE02"/>
</g>
<defs>
<clipPath id="clip0_2864_5512">
<rect width="19.0484" height="12.2581" fill="white" transform="translate(0.97583 3.87085)"/>
</clipPath>
</defs>
</svg>
