<svg width="49" height="50" viewBox="0 0 49 50" fill="none" xmlns="http://www.w3.org/2000/svg">
<path d="M21.8817 22.0618L24.0208 1.36653C24.0714 0.844383 24.8318 0.834342 24.9027 1.35649L27.7007 21.9814C27.7311 22.1822 27.8933 22.3429 28.096 22.363L48.5232 24.2809C49.0503 24.3311 49.0605 25.0942 48.5333 25.1545L28.1771 27.715C27.9744 27.7452 27.8122 27.9058 27.7919 28.1066L25.6529 48.8018C25.6022 49.324 24.8419 49.334 24.7709 48.8119L21.973 28.187C21.9426 27.9861 21.7804 27.8255 21.5776 27.8054L1.15047 25.8875C0.623317 25.8373 0.61318 25.0742 1.14033 25.0139L21.4965 22.4534C21.6993 22.4232 21.8615 22.2626 21.8817 22.0618Z" fill="#FFFAFA"/>
</svg>
