<svg width="34" height="35" viewBox="0 0 34 35" fill="none" xmlns="http://www.w3.org/2000/svg">
<path d="M16.295 32.8568L13.955 26.5248C12.905 23.684 10.675 21.4533 7.835 20.4029L1.495 18.0522C0.835 17.8121 0.835 16.8718 1.495 16.6318L7.825 14.291C10.665 13.2407 12.895 11.01 13.945 8.16911L16.295 1.82712C16.535 1.16692 17.475 1.16692 17.715 1.82712L20.055 8.1591C21.105 11 23.335 13.2307 26.175 14.281L32.505 16.6217C33.165 16.8618 33.165 17.8021 32.505 18.0422L26.175 20.3829C23.335 21.4333 21.105 23.6639 20.055 26.5048L17.715 32.8368C17.475 33.497 16.535 33.497 16.295 32.8368V32.8568Z" fill="#FFBE02"/>
</svg>
