<svg width="44" height="42" viewBox="0 0 44 42" fill="none" xmlns="http://www.w3.org/2000/svg">
<path d="M26.7551 16.941L22.8525 1.1396C22.6342 0.239008 21.3515 0.239008 21.1332 1.1396L17.2852 16.7363L1.72946 5.69716C1.0199 5.19228 0.0783657 5.91549 0.39221 6.73421L7.50145 25.4966C7.89717 26.5337 8.87964 27.2159 9.98491 27.2159H34.3283C35.4336 27.2159 36.416 26.5337 36.8117 25.4966L43.921 6.73421C44.2348 5.91549 43.2933 5.19228 42.5837 5.69716L26.7414 16.9546L26.7551 16.941Z" fill="#FFFAFA"/>
<path d="M15.6615 37.8014C15.8798 37.8014 16.1118 37.8013 16.3165 37.7604C17.4217 39.7526 19.5504 41.1035 21.9929 41.1035C24.4355 41.1035 26.5914 39.739 27.6967 37.7195C28.0106 37.7604 28.3244 37.7877 28.6519 37.7877C31.2718 37.7877 33.5369 36.2321 34.5603 33.9943C34.8605 33.3393 34.3966 32.6025 33.6734 32.6025H10.64C9.93042 32.6025 9.46648 33.3393 9.75303 33.9943C10.7764 36.2321 13.0416 37.7877 15.6615 37.7877V37.8014Z" fill="#FFFAFA"/>
</svg>
