<svg width="276" height="241" viewBox="0 0 276 241" fill="none" xmlns="http://www.w3.org/2000/svg">
<g clip-path="url(#clip0_2507_5538)">
<path d="M270.956 92.9778C266.314 62.5826 237.911 41.7069 207.518 46.3483C207.497 46.3513 207.476 46.3543 207.455 46.3604C201.617 17.407 173.99 -2.13606 144.484 2.36874C134.634 3.87439 125.782 7.87529 118.476 13.6308C111.858 12.1251 104.849 11.8124 97.7334 12.8992C73.5762 16.5874 55.4356 35.2866 51.3345 58.0626C50.348 58.1597 49.3614 58.2842 48.3688 58.4329C17.9765 63.0804 -2.90221 91.4843 1.7392 121.877C3.39359 132.72 8.07446 142.349 14.7892 150.041C7.13646 161.266 3.54537 175.303 5.75831 189.795C10.3997 220.19 38.8037 241.066 69.1959 236.424C75.7103 235.429 81.7875 233.34 87.2698 230.374C98.292 237.49 111.858 240.765 125.849 238.628C135.208 237.198 143.659 233.516 150.747 228.216C160.576 233.018 171.917 234.985 183.549 233.207C197.95 231.006 210.211 223.471 218.638 212.92C221.494 212.929 224.387 212.719 227.298 212.276C257.693 207.635 278.569 179.231 273.928 148.839C272.683 140.685 269.726 133.218 265.48 126.743C270.631 116.695 272.789 104.993 270.953 92.9748L270.956 92.9778Z" fill="white"/>
<path d="M270.956 92.9778C266.314 62.5826 237.911 41.7069 207.518 46.3483C207.497 46.3513 207.476 46.3543 207.455 46.3604C201.617 17.407 173.99 -2.13606 144.484 2.36874C134.634 3.87439 125.782 7.87529 118.476 13.6308C111.858 12.1251 104.849 11.8124 97.7334 12.8992C73.5762 16.5874 55.4356 35.2866 51.3345 58.0626C50.348 58.1597 49.3614 58.2842 48.3688 58.4329C17.9765 63.0804 -2.90221 91.4843 1.7392 121.877C3.39359 132.72 8.07446 142.349 14.7892 150.041C7.13646 161.266 3.54537 175.303 5.75831 189.795C10.3997 220.19 38.8037 241.066 69.1959 236.424C75.7103 235.429 81.7875 233.34 87.2698 230.374C98.292 237.49 111.858 240.765 125.849 238.628C135.208 237.198 143.659 233.516 150.747 228.216C160.576 233.018 171.917 234.985 183.549 233.207C197.95 231.006 210.211 223.471 218.638 212.92C221.494 212.929 224.387 212.719 227.298 212.276C257.693 207.635 278.569 179.231 273.928 148.839C272.683 140.685 269.726 133.218 265.48 126.743C270.631 116.695 272.789 104.993 270.953 92.9748L270.956 92.9778Z" stroke="#1A1A1A" stroke-width="2.18866" stroke-linecap="round" stroke-linejoin="round"/>
<path d="M51.3223 58.0654C53.9177 57.6435 56.6406 58.0533 58.9962 59.222C61.3518 60.3907 63.331 62.3031 64.5695 64.6223" stroke="#1A1A1A" stroke-width="2.18866" stroke-linecap="round" stroke-linejoin="round"/>
<path d="M207.433 46.2328C208.265 50.8529 206.474 55.8526 202.901 58.9003" stroke="#1A1A1A" stroke-width="2.18866" stroke-linecap="round" stroke-linejoin="round"/>
<path d="M150.765 228.231C156.028 223.028 159.216 215.682 159.046 208.263" stroke="#1A1A1A" stroke-width="2.18866" stroke-linecap="round" stroke-linejoin="round"/>
<path d="M14.7556 150.071C16.8653 147.87 19.5731 146.24 22.5206 145.457C26.7674 144.325 31.4574 144.965 35.2488 147.19" stroke="#1A1A1A" stroke-width="2.18866" stroke-linecap="round" stroke-linejoin="round"/>
<path d="M85.5818 231.373C87.9799 229.907 89.4856 227.287 90.1989 224.57C90.9123 221.853 90.9183 219.006 90.9244 216.198" stroke="#1A1A1A" stroke-width="2.18866" stroke-linecap="round" stroke-linejoin="round"/>
<path d="M218.589 213.002C219.363 211.812 220.14 210.619 220.744 209.332C221.348 208.048 221.773 206.657 221.81 205.24C221.843 203.792 221.467 202.356 220.905 201.02C220.34 199.684 219.591 198.437 218.847 197.192" stroke="#1A1A1A" stroke-width="2.18866" stroke-linecap="round" stroke-linejoin="round"/>
<path d="M265.492 126.746C262.095 124.244 257.948 122.778 253.732 122.59C249.518 122.402 245.256 123.495 241.65 125.686" stroke="#1A1A1A" stroke-width="2.18866" stroke-linecap="round" stroke-linejoin="round"/>
<path d="M118.017 13.5365C120.127 14.0131 122.075 15.1787 123.49 16.8119C124.905 18.4481 125.779 20.5426 125.949 22.6979" stroke="#1A1A1A" stroke-width="2.18866" stroke-linecap="round" stroke-linejoin="round"/>
<g opacity="0.15">
<path d="M136.018 34.039C142.669 30.8668 150.297 30.7606 156.772 34.206" stroke="#1A1A1A" stroke-width="2.18866" stroke-linecap="round" stroke-linejoin="round"/>
<path d="M156.669 33.8115C160.355 30.7304 165.433 29.3886 170.16 30.2477C174.886 31.1068 179.518 33.8145 181.883 37.9945" stroke="#1A1A1A" stroke-width="2.18866" stroke-linecap="round" stroke-linejoin="round"/>
</g>
<path d="M136.064 34.6218C144.791 30.4601 156.071 32.4817 162.81 39.4181" stroke="#1A1A1A" stroke-width="2.18866" stroke-linecap="round" stroke-linejoin="round"/>
<path d="M157.216 34.9254C160.901 31.8443 165.979 30.5025 170.706 31.3616C175.432 32.2207 179.715 35.2623 182.083 39.4423" stroke="#1A1A1A" stroke-width="2.18866" stroke-linecap="round" stroke-linejoin="round"/>
<g opacity="0.03">
<path d="M116.072 168.597C121.272 165.21 127.835 162.393 133.554 164.8C139.273 167.21 143.651 172.574 144.862 178.663C137.163 170.841 127.79 168.949 116.072 168.597Z" fill="#1A1A1A"/>
<path d="M171.502 174.908C169.978 168.958 163.761 165.1 157.636 164.633C151.51 164.165 145.508 166.436 140.011 169.177C151.543 168.151 162.119 169.83 171.502 174.908Z" fill="#1A1A1A"/>
<path d="M168.527 169.216C170.473 164.001 174.741 159.706 179.941 157.721C185.141 155.738 191.604 158.832 196.527 161.424C187.011 162.389 177.397 163.148 168.527 169.213V169.216Z" fill="#1A1A1A"/>
</g>
<path d="M116.155 169.131C121.354 165.744 128.254 165.124 133.973 167.535C139.692 169.945 144.07 175.309 145.281 181.398" fill="white"/>
<path d="M116.155 169.131C121.354 165.744 128.254 165.124 133.973 167.535C139.692 169.945 144.07 175.309 145.281 181.398" stroke="#1A1A1A" stroke-width="2.18866" stroke-linecap="round" stroke-linejoin="round"/>
<path d="M140.43 171.909C145.927 169.168 151.929 166.897 158.055 167.365C164.18 167.832 170.397 171.69 171.921 177.64" fill="white"/>
<path d="M140.43 171.909C145.927 169.168 151.929 166.897 158.055 167.365C164.18 167.832 170.397 171.69 171.921 177.64" stroke="#1A1A1A" stroke-width="2.18866" stroke-linecap="round" stroke-linejoin="round"/>
<path d="M168.946 171.948C170.892 166.733 175.16 162.438 180.36 160.453C185.56 158.47 191.607 158.835 196.531 161.427" fill="white"/>
<path d="M168.946 171.948C170.892 166.733 175.16 162.438 180.36 160.453C185.56 158.47 191.607 158.835 196.531 161.427" stroke="#1A1A1A" stroke-width="2.18866" stroke-linecap="round" stroke-linejoin="round"/>
<path opacity="0.15" d="M222.997 111.677C222.748 103.572 215.812 100.646 213.484 99.7107C213.729 98.6331 213.848 97.519 213.808 96.3837C213.113 73.9872 158.175 74.9222 155.058 109.561L135.448 110.238V110.287C129.999 75.8905 75.0731 78.7318 75.9231 101.134C75.9626 102.273 76.1568 103.375 76.4756 104.431C74.2201 105.527 67.5024 108.924 67.809 117.026C68.1125 125.134 75.1217 129.56 77.4591 130.485C77.0948 132.11 77.2041 134.313 77.2163 134.69C77.9418 155.763 134.325 153.252 135.852 117.378L155.143 116.713C159.131 152.396 215.554 151.021 214.828 129.948C214.816 129.572 214.774 127.368 214.297 125.771C216.565 124.688 223.255 119.788 222.997 111.68V111.677Z" fill="#606060"/>
<path d="M141.58 117.174C141.61 116.819 141.631 116.458 141.641 116.091C141.683 115.192 141.686 114.275 141.656 113.334C141.616 112.196 141.525 111.091 141.392 110.029C141.346 109.667 141.294 109.303 141.237 108.951C137.552 85.8866 111.594 79.5969 95.1901 84.7331C87.164 87.2435 81.4267 92.4921 81.709 99.8473C81.7485 100.986 81.9367 102.088 82.2615 103.144C80.003 104.24 73.2853 107.637 73.598 115.742C73.8985 123.85 80.9107 128.279 83.2481 129.201C82.8808 130.825 82.9931 133.026 83.0022 133.403C83.0477 134.684 83.2966 135.883 83.7398 136.988C84.3014 138.448 85.1878 139.75 86.3322 140.888C87.1761 141.732 88.1566 142.488 89.2555 143.15C90.0326 143.62 90.8704 144.045 91.7629 144.422C97.0327 146.68 104.087 147.33 111.224 146.234C125.57 144.027 140.275 134.744 141.58 117.171V117.174ZM97.9615 136.784C95.5422 136.268 93.7785 134.174 93.6905 131.706L92.452 98.9184C92.3852 97.1274 93.2594 95.4183 94.7894 94.4834C103.271 89.2652 130.215 89.3077 131.134 113.699C131.954 135.485 106.783 138.636 97.9615 136.784Z" fill="#FFBE02"/>
<path d="M131.134 113.702C131.954 135.485 106.78 138.639 97.9614 136.784C95.539 136.271 93.7814 134.177 93.6903 131.709L92.4518 98.9214C92.385 97.1334 93.2623 95.4213 94.7892 94.4833C103.271 89.2621 130.214 89.3107 131.137 113.702H131.134Z" fill="#333333"/>
<mask id="mask0_2507_5538" style="mask-type:luminance" maskUnits="userSpaceOnUse" x="92" y="91" width="40" height="47">
<path d="M131.134 113.702C131.954 135.485 106.78 138.639 97.9614 136.784C95.539 136.271 93.7814 134.177 93.6903 131.709L92.4518 98.9214C92.385 97.1334 93.2623 95.4213 94.7892 94.4833C103.271 89.2621 130.214 89.3107 131.137 113.702H131.134Z" fill="white"/>
</mask>
<g mask="url(#mask0_2507_5538)">
<path d="M125.042 154.011C124.79 155.486 117.656 147.315 116.16 147.366C114.663 147.418 115.061 158.959 113.564 159.011C112.068 159.062 111.67 147.521 110.174 147.573C108.677 147.624 109.075 159.166 107.578 159.217C106.082 159.269 110.35 153.638 109.995 152.181C108.286 145.165 98.3652 146.531 98.1163 139.316C97.8674 132.1 109.409 131.703 109.163 124.487C108.917 117.271 97.3726 117.669 97.1237 110.454C96.8748 103.238 108.416 102.84 108.167 95.6247C107.918 88.4091 94.9866 87.5318 96.2069 80.4134C96.4589 78.9381 103.593 87.1099 105.089 87.0583C106.586 87.0067 106.188 75.4654 107.684 75.4138C109.181 75.3622 109.579 86.9035 111.075 86.8519C112.572 86.8003 112.174 75.259 113.671 75.2074C115.167 75.1558 110.899 80.7868 111.254 82.2439C112.963 89.2591 122.884 87.8931 123.133 95.1087C123.381 102.324 111.84 102.722 112.086 109.937C112.335 117.153 123.876 116.755 124.125 123.971C124.374 131.187 111.024 133.682 113.397 140.5C116.205 148.568 126.262 146.896 125.039 154.011H125.042Z" fill="white"/>
</g>
<path d="M120.525 91.5053C120.731 91.5812 120.941 91.6602 121.144 91.7391C121.238 91.7755 121.329 91.815 121.423 91.8514C121.809 92.0062 121.096 91.7057 121.475 91.8757C121.879 92.0548 122.279 92.243 122.674 92.4433C123.445 92.8349 124.192 93.2721 124.914 93.7456C125.266 93.9793 125.613 94.2192 125.953 94.4711C126.034 94.5318 126.113 94.5925 126.192 94.6532C125.886 94.4043 126.396 94.805 126.192 94.6532C126.381 94.805 126.569 94.9568 126.754 95.1116C127.431 95.6823 128.074 96.2894 128.678 96.933C128.955 97.2244 129.222 97.5249 129.483 97.8315C129.613 97.9863 129.741 98.1411 129.865 98.2959C129.914 98.3536 130.175 98.6754 129.905 98.3415C129.981 98.4356 130.051 98.5327 130.123 98.6299C130.679 99.3796 131.189 100.166 131.647 100.979C131.86 101.359 132.063 101.744 132.254 102.133C132.361 102.348 132.461 102.564 132.561 102.783C132.607 102.883 132.649 102.983 132.695 103.08C132.767 103.25 132.764 103.241 132.682 103.047C132.707 103.107 132.731 103.168 132.755 103.229C133.107 104.097 133.405 104.983 133.648 105.888C133.784 106.392 133.903 106.902 134.006 107.412C134.058 107.667 134.103 107.925 134.146 108.183C134.167 108.31 134.185 108.441 134.206 108.568C134.267 108.954 134.176 108.292 134.218 108.65C134.34 109.734 134.404 110.815 134.382 111.907C134.367 112.767 135.15 113.589 136.025 113.55C136.899 113.51 137.649 112.827 137.667 111.907C137.749 107.743 136.738 103.578 134.798 99.8927C132.983 96.4442 130.303 93.5119 127.121 91.2777C125.358 90.0392 123.424 89.0708 121.399 88.3332C120.592 88.0387 119.566 88.664 119.377 89.4806C119.165 90.4065 119.66 91.1836 120.525 91.5023V91.5053Z" fill="white"/>
<path d="M80.9075 120.526C80.5736 119.961 80.2366 119.396 79.9392 118.81C79.8663 118.671 79.7965 118.528 79.7327 118.385C79.6933 118.303 79.6568 118.221 79.6204 118.14C79.6963 118.325 79.7024 118.331 79.6326 118.158C79.5263 117.863 79.4201 117.572 79.3411 117.271C79.2622 116.971 79.1833 116.673 79.159 116.373C79.1954 116.804 79.1651 116.352 79.159 116.288C79.1438 116.115 79.1378 115.939 79.1347 115.763C79.1287 115.456 79.1529 115.153 79.1711 114.846C79.1924 114.46 79.1135 115.113 79.1803 114.764C79.2136 114.591 79.241 114.421 79.2804 114.248C79.3472 113.95 79.4322 113.656 79.5354 113.368C79.5506 113.322 79.7449 112.861 79.6417 113.082C79.5385 113.304 79.7388 112.885 79.7601 112.845C79.8845 112.6 80.0211 112.363 80.1668 112.129C80.2518 111.996 80.3429 111.868 80.4309 111.741C80.6586 111.413 80.2032 112.005 80.4613 111.701C80.8225 111.279 81.205 110.9 81.6239 110.538C81.7635 110.426 81.7453 110.438 81.5693 110.578C81.633 110.532 81.6968 110.484 81.7605 110.438C81.8576 110.371 81.9548 110.305 82.055 110.241C82.319 110.071 82.5953 109.919 82.8776 109.783C83.6517 109.403 83.9249 108.244 83.4665 107.536C82.9565 106.744 82.0458 106.541 81.2202 106.947C78.6946 108.189 76.7396 110.63 76.1143 113.377C75.7652 114.904 75.7683 116.497 76.1416 118.018C76.515 119.539 77.2921 120.875 78.0723 122.186C78.5094 122.924 79.5718 123.258 80.3186 122.775C81.0654 122.292 81.378 121.318 80.9075 120.529V120.526Z" fill="white"/>
<path d="M228.783 110.396C228.534 102.291 221.595 99.3644 219.267 98.4234C219.513 97.3488 219.631 96.2377 219.595 95.0994C219.191 82.0585 200.391 76.9254 184.145 81.7489C172.485 85.2095 162.131 93.8002 160.835 108.28C160.707 109.691 160.665 111.158 160.719 112.681C160.75 113.619 160.817 114.539 160.92 115.432C163.4 137.625 186.164 145.484 202.853 143.177C212.995 141.781 220.888 136.626 220.611 128.664C220.599 128.287 220.56 126.084 220.083 124.487C222.351 123.403 229.038 118.501 228.783 110.396ZM171.241 112.317C170.476 87.9202 197.356 86.0169 206.174 90.6432C207.762 91.4719 208.757 93.1172 208.812 94.9051L209.835 127.705C209.914 130.173 208.302 132.385 205.922 133.062C197.253 135.521 171.918 134.104 171.241 112.314V112.317Z" fill="#FFBE02"/>
<path d="M171.237 112.32C171.917 134.11 197.252 135.524 205.922 133.065C208.302 132.388 209.914 130.179 209.835 127.708L208.815 94.9112C208.76 93.1232 207.768 91.4749 206.177 90.6462C197.356 86.023 170.479 87.9233 171.24 112.32H171.237Z" fill="#333333"/>
<mask id="mask1_2507_5538" style="mask-type:luminance" maskUnits="userSpaceOnUse" x="171" y="88" width="39" height="46">
<path d="M171.237 112.32C171.917 134.11 197.252 135.524 205.922 133.066C208.301 132.389 209.913 130.179 209.834 127.708L208.814 94.9113C208.76 93.1234 207.767 91.475 206.177 90.6463C197.355 86.0231 170.478 87.9234 171.24 112.32H171.237Z" fill="white"/>
</mask>
<g mask="url(#mask1_2507_5538)">
<path d="M191.312 149.382C191.667 150.836 187.396 156.467 188.892 156.415C190.389 156.364 189.991 144.822 191.488 144.771C192.984 144.719 193.382 156.26 194.878 156.209C196.375 156.157 195.977 144.616 197.474 144.564C198.97 144.513 206.104 152.688 206.359 151.209C207.582 144.094 194.648 143.214 194.399 136.001C194.15 128.785 205.691 128.388 205.445 121.172C205.199 113.957 193.655 114.354 193.406 107.139C193.157 99.9231 204.699 99.5254 204.45 92.3098C204.201 85.0942 194.28 86.4572 192.571 79.442C192.216 77.988 196.487 72.357 194.991 72.4086C193.494 72.4602 193.892 84.0014 192.395 84.0531C190.899 84.1047 190.501 72.5634 189.005 72.615C187.508 72.6666 187.906 84.2079 186.409 84.2595C184.913 84.3111 177.779 76.1362 177.524 77.6146C176.301 84.73 189.235 85.6103 189.484 92.8228C189.733 100.038 178.192 100.436 178.438 107.652C178.687 114.867 190.228 114.47 190.477 121.685C190.726 128.901 177.906 130.637 179.588 137.658C181.27 144.68 189.603 142.367 191.312 149.382Z" fill="white"/>
</g>
<path d="M178.92 86.4785C171.835 89.6355 166.532 96.2774 165.008 103.881C164.547 106.179 164.386 108.535 164.592 110.872C164.668 111.725 165.294 112.557 166.235 112.515C167.06 112.478 167.959 111.789 167.877 110.872C167.792 109.91 167.765 108.945 167.801 107.976C167.816 107.536 167.847 107.099 167.889 106.662C167.913 106.422 167.941 106.182 167.968 105.943C167.998 105.676 167.904 106.346 167.971 105.921C167.995 105.77 168.017 105.618 168.044 105.466C168.199 104.534 168.414 103.614 168.681 102.71C168.812 102.267 168.958 101.829 169.115 101.395C169.197 101.168 169.282 100.943 169.373 100.718C169.404 100.639 169.431 100.548 169.474 100.476C169.276 100.837 169.534 100.336 169.568 100.263C169.941 99.4283 170.363 98.6147 170.837 97.8316C171.064 97.4521 171.304 97.0818 171.556 96.7175C171.668 96.5506 171.787 96.3866 171.905 96.2258C171.963 96.1438 172.024 96.0649 172.084 95.9829C172.139 95.91 172.391 95.5306 172.157 95.8858C172.622 95.1815 173.277 94.541 173.869 93.94C174.461 93.3389 175.117 92.7439 175.788 92.1975C175.879 92.1216 175.973 92.0366 176.07 91.9729C175.724 92.2036 176.061 91.979 176.119 91.9365C176.31 91.7908 176.507 91.6511 176.704 91.5115C177.099 91.2353 177.503 90.9681 177.913 90.7162C178.769 90.191 179.661 89.7235 180.578 89.3168C181.364 88.9646 181.61 87.7595 181.167 87.0704C180.642 86.2569 179.761 86.1051 178.92 86.4815V86.4785Z" fill="white"/>
<path d="M224.706 117.232C225.414 115.83 226.139 114.385 226.394 112.821C226.649 111.258 226.582 109.689 226.103 108.192C225.186 105.323 223.04 103.162 220.277 102.033C219.479 101.708 218.438 102.385 218.256 103.18C218.037 104.133 218.55 104.853 219.403 105.202C218.975 105.026 219.467 105.235 219.549 105.275C219.655 105.326 219.758 105.381 219.862 105.436C220.101 105.566 220.338 105.712 220.563 105.867C220.626 105.912 220.69 105.958 220.754 106.003C220.897 106.11 220.881 106.097 220.702 105.961C220.711 105.997 220.942 106.161 220.973 106.189C221.179 106.368 221.379 106.559 221.564 106.759C221.671 106.875 221.777 106.99 221.877 107.111C221.953 107.202 222.208 107.397 221.911 107.148C222.096 107.303 222.244 107.624 222.366 107.834C222.515 108.083 222.639 108.341 222.764 108.599C222.839 108.769 222.833 108.76 222.751 108.568C222.776 108.629 222.8 108.69 222.821 108.754C222.873 108.896 222.921 109.042 222.967 109.188C223.055 109.479 223.128 109.78 223.182 110.08C223.213 110.253 223.274 110.438 223.201 110.162C223.243 110.323 223.237 110.517 223.246 110.684C223.261 110.991 223.261 111.297 223.246 111.601C223.237 111.732 223.225 111.862 223.213 111.993C223.192 112.181 223.192 112.166 223.219 111.947C223.207 112.032 223.192 112.12 223.173 112.205C223.052 112.839 222.845 113.456 222.6 114.054C222.709 113.787 222.587 114.072 222.542 114.178C222.475 114.327 222.405 114.476 222.332 114.624C222.181 114.943 222.02 115.256 221.862 115.572C221.476 116.336 221.634 117.387 222.451 117.818C223.198 118.212 224.284 118.049 224.697 117.229L224.706 117.232Z" fill="white"/>
<path d="M162.067 108.241L141.228 108.958L141.474 116.102L162.313 115.386L162.067 108.241Z" fill="#FFBE02"/>
</g>
<defs>
<clipPath id="clip0_2507_5538">
<rect width="275.673" height="239.741" fill="white" transform="translate(0 0.629395)"/>
</clipPath>
</defs>
</svg>
