<svg width="281" height="221" viewBox="0 0 281 221" fill="none" xmlns="http://www.w3.org/2000/svg">
<g clip-path="url(#clip0_2970_2859)">
<path d="M53.0015 55.1792C52.4967 55.1792 51.9956 55.2048 51.5017 55.2487C48.5935 49.5603 42.682 45.6644 35.856 45.6644C29.0299 45.6644 23.0562 49.6006 20.1663 55.3365C19.4127 55.2377 18.6482 55.1828 17.869 55.1828C8.16768 55.1828 0.302734 63.0478 0.302734 72.7491C0.302734 82.4504 8.16768 90.3154 17.869 90.3154C18.4726 90.3154 19.0689 90.2861 19.6578 90.2239C22.6575 95.6123 28.408 99.2631 35.0146 99.2631C41.6211 99.2631 47.4449 95.5721 50.4299 90.1252C51.2713 90.2495 52.1309 90.3154 53.0052 90.3154C62.7065 90.3154 70.5715 82.4504 70.5715 72.7491C70.5715 63.0478 62.7065 55.1828 53.0052 55.1828L53.0015 55.1792Z" fill="#FFBE02"/>
<path d="M274.994 123.802C274.716 123.644 274.431 123.505 274.146 123.377C274.292 119.335 272.225 115.359 268.45 113.255C264.675 111.152 260.161 111.485 256.795 113.764C256.411 113.479 256.005 113.212 255.573 112.97C250.211 109.978 243.436 111.902 240.443 117.265C237.451 122.628 239.375 129.402 244.738 132.395C245.071 132.581 245.411 132.75 245.755 132.896C245.751 136.799 247.807 140.593 251.458 142.63C255.109 144.668 259.469 144.423 262.798 142.334C263.226 142.659 263.68 142.963 264.163 143.234C269.525 146.226 276.3 144.302 279.293 138.939C282.285 133.576 280.361 126.801 274.998 123.809L274.994 123.802Z" fill="#FFBE02"/>
<path d="M204.843 25.9655L220.427 18.3969C220.734 18.2469 220.964 17.9689 221.052 17.636L225.449 0.878146C225.727 -0.179049 227.169 -0.318058 227.644 0.662317L235.213 16.2459C235.363 16.5532 235.641 16.7836 235.974 16.8714L252.731 21.2685C253.789 21.5465 253.928 22.9878 252.947 23.4634L237.364 31.032C237.056 31.182 236.826 31.46 236.738 31.7929L232.341 48.5507C232.063 49.6079 230.622 49.7469 230.146 48.7665L222.578 33.183C222.428 32.8757 222.15 32.6452 221.817 32.5574L205.059 28.1604C204.002 27.8824 203.863 26.4411 204.843 25.9655Z" fill="#FFBE02"/>
<path d="M54.6516 220.061L57.3878 212.822C57.4427 212.679 57.4317 212.518 57.3586 212.383L53.6456 205.594C53.4115 205.166 53.8358 204.679 54.2931 204.851L61.5325 207.587C61.6751 207.642 61.8361 207.631 61.9715 207.558L68.7609 203.845C69.1889 203.611 69.6754 204.035 69.5035 204.492L66.7672 211.732C66.7124 211.874 66.7233 212.035 66.7965 212.171L70.5095 218.96C70.7436 219.388 70.3193 219.875 69.862 219.703L62.6226 216.967C62.4799 216.912 62.319 216.923 62.1836 216.996L55.3942 220.709C54.9662 220.943 54.4796 220.519 54.6516 220.061Z" fill="#FFBE02"/>
<path d="M196.127 71.0133C195.055 69.9414 193.632 69.3525 192.118 69.3525C190.603 69.3525 189.18 69.9414 188.109 71.0133L121.385 137.734L92.8952 109.244C91.8234 108.172 90.4004 107.583 88.8859 107.583C87.3714 107.583 85.9484 108.172 84.8766 109.244C83.8048 110.316 83.2158 111.739 83.2158 113.254C83.2158 114.768 83.8048 116.191 84.8766 117.263L117.375 149.762C118.447 150.833 119.87 151.422 121.385 151.422C122.899 151.422 124.322 150.833 125.394 149.762L196.124 79.0319C197.195 77.96 197.784 76.537 197.784 75.0226C197.784 73.5081 197.195 72.0851 196.124 71.0133H196.127Z" fill="#FFBE02"/>
</g>
<defs>
<clipPath id="clip0_2970_2859">
<rect width="280.402" height="220.775" fill="white" transform="translate(0.298828)"/>
</clipPath>
</defs>
</svg>
