<svg width="25" height="24" viewBox="0 0 25 24" fill="none" xmlns="http://www.w3.org/2000/svg">
<path d="M17.2248 14.6965H8.27539V17.5624H17.2248V14.6965Z" stroke="#FFBE02" stroke-miterlimit="10"/>
<path d="M8.27539 17.5624H17.2248V18.5718C17.2248 19.5953 16.3827 20.4212 15.355 20.4212H10.1452C9.11038 20.4212 8.27539 19.5882 8.27539 18.5718V17.5624Z" stroke="#FFBE02" stroke-miterlimit="10"/>
<path d="M10.6377 20.4282H14.8626V22.0235C14.8626 22.7294 14.2845 23.2941 13.578 23.2941H11.9223C11.2086 23.2941 10.6377 22.7224 10.6377 22.0235V20.4282Z" stroke="#FFBE02" stroke-miterlimit="10"/>
<path d="M17.1819 14.6965C19.1945 13.3059 20.5148 10.9977 20.5148 8.38589C20.5148 4.15059 17.0392 0.705883 12.7501 0.705883C8.46091 0.705883 4.98535 4.15059 4.98535 8.38589C4.98535 10.9977 6.30564 13.3059 8.33245 14.6965" fill="#FFBE02"/>
<path d="M17.1819 14.6965C19.1945 13.3059 20.5148 10.9977 20.5148 8.38589C20.5148 4.15059 17.0392 0.705883 12.7501 0.705883C8.46091 0.705883 4.98535 4.15059 4.98535 8.38589C4.98535 10.9977 6.30564 13.3059 8.33245 14.6965" stroke="#FFBE02" stroke-miterlimit="10"/>
</svg>
