<svg width="24" height="24" viewBox="0 0 24 24" fill="none" xmlns="http://www.w3.org/2000/svg">
<path d="M16.4748 14.6965H7.52539V17.5624H16.4748V14.6965Z" stroke="#FFFAFA" stroke-miterlimit="10"/>
<path d="M7.52539 17.5623H16.4748V18.5717C16.4748 19.5953 15.6327 20.4211 14.605 20.4211H9.3952C8.36038 20.4211 7.52539 19.5882 7.52539 18.5717V17.5623Z" stroke="#FFFAFA" stroke-miterlimit="10"/>
<path d="M9.8877 20.4282H14.1126V22.0235C14.1126 22.7294 13.5345 23.2941 12.828 23.2941H11.1723C10.4586 23.2941 9.8877 22.7223 9.8877 22.0235V20.4282Z" stroke="#FFFAFA" stroke-miterlimit="10"/>
<path d="M16.4319 14.6965C18.4445 13.3059 19.7648 10.9976 19.7648 8.38588C19.7648 4.15058 16.2892 0.705872 12.0001 0.705872C7.71091 0.705872 4.23535 4.15058 4.23535 8.38588C4.23535 10.9976 5.55564 13.3059 7.58245 14.6965" fill="#FFFAFA"/>
<path d="M16.4319 14.6965C18.4445 13.3059 19.7648 10.9976 19.7648 8.38588C19.7648 4.15058 16.2892 0.705872 12.0001 0.705872C7.71091 0.705872 4.23535 4.15058 4.23535 8.38588C4.23535 10.9976 5.55564 13.3059 7.58245 14.6965" stroke="#FFFAFA" stroke-miterlimit="10"/>
</svg>
