<svg width="34" height="35" viewBox="0 0 34 35" fill="none" xmlns="http://www.w3.org/2000/svg">
<path d="M4.53847 18.0918L5.09106 17.7156L4.95474 17.0612C4.5517 15.1263 5.05754 13.0395 6.4224 11.5616C7.7758 10.0961 9.66119 9.58836 11.3745 9.99927L12.0937 10.1717L12.4692 9.53469C13.4462 7.87744 15.1209 6.827 16.9998 6.827C18.8746 6.827 20.5527 7.89154 21.5324 9.53816L21.9089 10.171L22.625 9.99927C24.3434 9.58714 26.2248 10.0824 27.5737 11.5578L27.5737 11.5579L27.5805 11.5652C28.9547 13.0385 29.4488 15.1216 29.0448 17.0612L28.9091 17.7127L29.4576 18.0894C30.9595 19.121 31.9998 20.9682 31.9998 23.0814V23.0991V23.1698C31.9998 25.8199 30.025 27.827 27.7678 27.827H19.4558V19.3866C19.4558 18.4416 18.7367 17.5733 17.7038 17.5733H16.3118C15.2652 17.5733 14.5598 18.474 14.5598 19.3866V27.7486C14.5598 27.7776 14.5504 27.7979 14.5419 27.8093H6.31176C4.0049 27.8093 1.99976 25.7651 1.99976 23.0814C1.99976 20.9478 3.02594 19.1214 4.53847 18.0918Z" stroke="#D4D4D4" stroke-width="2" stroke-miterlimit="10"/>
</svg>
