<svg width="20" height="15" viewBox="0 0 20 15" fill="none" xmlns="http://www.w3.org/2000/svg">
<path d="M14.6754 4.20073C14.4323 4.20073 14.1946 4.22479 13.9624 4.2622C13.6383 2.18831 11.8315 0.598145 9.644 0.598145C7.30792 0.598145 5.40395 2.4128 5.27972 4.69516C5.06096 4.66308 4.83951 4.63903 4.61265 4.63903C2.19285 4.63903 0.234863 6.57663 0.234863 8.96855C0.234863 11.3605 2.19285 13.2981 4.60995 13.2981C5.16089 13.2981 5.68482 13.1938 6.17094 13.0094C6.97034 14.041 8.22615 14.7119 9.6413 14.7119C11.2131 14.7119 12.585 13.8914 13.3574 12.662C13.7733 12.793 14.2162 12.8625 14.6754 12.8625C17.0925 12.8625 19.0504 10.9249 19.0504 8.53293C19.0504 6.141 17.0925 4.20341 14.6754 4.20341V4.20073Z" fill="#FFFAFA"/>
</svg>
