<svg width="92" height="70" viewBox="0 0 92 70" fill="none" xmlns="http://www.w3.org/2000/svg">
<g clip-path="url(#clip0_2518_10273)">
<g filter="url(#filter0_d_2518_10273)">
<path d="M91.2939 23.8948C91.0139 25.8448 90.1339 27.6248 88.7839 29.0248C88.4439 29.3948 88.0539 29.7448 87.6339 30.0548C85.6239 31.5548 83.1539 32.1748 80.6739 31.8248C79.7239 31.6848 78.8139 31.4048 77.9539 30.9848L77.1439 30.5948L76.5539 31.2848C74.4539 33.7848 71.2739 35.0048 68.0439 34.5348C65.1539 34.1148 62.6639 32.3948 61.2239 29.8248L60.7939 29.0648L59.9539 29.2548C58.8239 29.5148 57.6739 29.5548 56.5539 29.3948C55.0939 29.1848 53.7539 28.6448 52.6239 27.8548C51.6139 27.1748 50.7639 26.3048 50.1039 25.3148C48.8639 23.4548 48.2839 21.1548 48.6339 18.7748C48.7639 17.8548 49.0239 16.9848 49.4039 16.1848C51.0939 12.5248 55.0539 10.2448 59.2539 10.8448C59.6839 10.9048 60.1239 11.0148 60.6439 11.1748L61.2439 11.3548C61.5839 11.4648 61.9339 11.2548 62.0039 10.9048L62.1239 10.2948C62.6839 7.48477 64.4539 5.20477 66.8039 3.91477C68.4639 3.01477 70.4039 2.59477 72.4139 2.83477C72.4839 2.84477 72.5639 2.85477 72.6439 2.86477C77.2439 3.53477 80.6139 7.39477 80.6539 12.0448V13.2148L81.8339 13.1948C82.4039 13.1848 82.9139 13.2048 83.3739 13.2748C88.4839 14.0148 92.0439 18.7848 91.2939 23.8948Z" fill="url(#paint0_linear_2518_10273)"/>
</g>
<g filter="url(#filter1_d_2518_10273)">
<path d="M82.7839 58.3547C82.5039 60.3047 81.6239 62.0847 80.2739 63.4847C79.9339 63.8547 79.5439 64.2047 79.1239 64.5147C77.1139 66.0147 74.6439 66.6347 72.1639 66.2847C71.2139 66.1447 70.3039 65.8647 69.4439 65.4447L68.6339 65.0547L68.0439 65.7447C65.9439 68.2447 62.7639 69.4647 59.5339 68.9947C56.6439 68.5747 54.1539 66.8547 52.7139 64.2847L52.2839 63.5247L51.4439 63.7147C50.3139 63.9747 49.1639 64.0147 48.0439 63.8547C46.5839 63.6447 45.2439 63.1047 44.1139 62.3147C43.1039 61.6347 42.2539 60.7647 41.5939 59.7747C40.3539 57.9147 39.7739 55.6147 40.1239 53.2347C40.2539 52.3147 40.5139 51.4447 40.8939 50.6447C42.5839 46.9847 46.5439 44.7047 50.7439 45.3047C51.1739 45.3647 51.6139 45.4747 52.1339 45.6347L52.7339 45.8147C53.0739 45.9247 53.4239 45.7147 53.4939 45.3647L53.6139 44.7547C54.1739 41.9447 55.9439 39.6647 58.2939 38.3747C59.9539 37.4747 61.8939 37.0547 63.9039 37.2947C63.9739 37.3047 64.0539 37.3147 64.1339 37.3247C68.7339 37.9947 72.1039 41.8547 72.1439 46.5047V47.6747L73.3239 47.6547C73.8939 47.6447 74.4039 47.6647 74.8639 47.7347C79.9739 48.4747 83.5339 53.2447 82.7839 58.3547Z" fill="url(#paint1_linear_2518_10273)"/>
</g>
<g filter="url(#filter2_d_2518_10273)">
<path d="M43.1037 34.7347C42.8237 36.6847 41.9437 38.4647 40.5937 39.8647C40.2537 40.2347 39.8637 40.5847 39.4437 40.8947C37.4337 42.3947 34.9637 43.0147 32.4837 42.6647C31.5337 42.5247 30.6237 42.2447 29.7637 41.8247L28.9537 41.4347L28.3637 42.1247C26.2637 44.6247 23.0837 45.8447 19.8537 45.3747C16.9637 44.9547 14.4737 43.2347 13.0337 40.6647L12.6037 39.9047L11.7637 40.0947C10.6337 40.3547 9.48369 40.3947 8.36369 40.2347C6.90369 40.0247 5.56368 39.4847 4.43368 38.6947C3.42368 38.0147 2.57368 37.1447 1.91368 36.1547C0.673685 34.2947 0.0936849 31.9947 0.443685 29.6147C0.573685 28.6947 0.833685 27.8247 1.21368 27.0247C2.90369 23.3647 6.86369 21.0847 11.0637 21.6847C11.4937 21.7447 11.9337 21.8547 12.4537 22.0147L13.0537 22.1947C13.3937 22.3047 13.7437 22.0947 13.8137 21.7447L13.9337 21.1347C14.4937 18.3247 16.2637 16.0447 18.6137 14.7547C20.2737 13.8547 22.2137 13.4347 24.2237 13.6747C24.2937 13.6847 24.3737 13.6947 24.4537 13.7047C29.0537 14.3747 32.4237 18.2347 32.4637 22.8847V24.0547L33.6437 24.0347C34.2137 24.0247 34.7237 24.0447 35.1837 24.1147C40.2937 24.8547 43.8537 29.6247 43.1037 34.7347Z" fill="url(#paint2_linear_2518_10273)"/>
</g>
</g>
<defs>
<filter id="filter0_d_2518_10273" x="18.5332" y="-27.2318" width="102.86" height="91.8657" filterUnits="userSpaceOnUse" color-interpolation-filters="sRGB">
<feFlood flood-opacity="0" result="BackgroundImageFix"/>
<feColorMatrix in="SourceAlpha" type="matrix" values="0 0 0 0 0 0 0 0 0 0 0 0 0 0 0 0 0 0 127 0" result="hardAlpha"/>
<feOffset/>
<feGaussianBlur stdDeviation="15"/>
<feColorMatrix type="matrix" values="0 0 0 0 0 0 0 0 0 0 0 0 0 0 0 0 0 0 0.07 0"/>
<feBlend mode="normal" in2="BackgroundImageFix" result="effect1_dropShadow_2518_10273"/>
<feBlend mode="normal" in="SourceGraphic" in2="effect1_dropShadow_2518_10273" result="shape"/>
</filter>
<filter id="filter1_d_2518_10273" x="10.0232" y="7.22815" width="102.86" height="91.8657" filterUnits="userSpaceOnUse" color-interpolation-filters="sRGB">
<feFlood flood-opacity="0" result="BackgroundImageFix"/>
<feColorMatrix in="SourceAlpha" type="matrix" values="0 0 0 0 0 0 0 0 0 0 0 0 0 0 0 0 0 0 127 0" result="hardAlpha"/>
<feOffset/>
<feGaussianBlur stdDeviation="15"/>
<feColorMatrix type="matrix" values="0 0 0 0 0 0 0 0 0 0 0 0 0 0 0 0 0 0 0.07 0"/>
<feBlend mode="normal" in2="BackgroundImageFix" result="effect1_dropShadow_2518_10273"/>
<feBlend mode="normal" in="SourceGraphic" in2="effect1_dropShadow_2518_10273" result="shape"/>
</filter>
<filter id="filter2_d_2518_10273" x="-29.657" y="-16.3918" width="102.86" height="91.8657" filterUnits="userSpaceOnUse" color-interpolation-filters="sRGB">
<feFlood flood-opacity="0" result="BackgroundImageFix"/>
<feColorMatrix in="SourceAlpha" type="matrix" values="0 0 0 0 0 0 0 0 0 0 0 0 0 0 0 0 0 0 127 0" result="hardAlpha"/>
<feOffset/>
<feGaussianBlur stdDeviation="15"/>
<feColorMatrix type="matrix" values="0 0 0 0 0 0 0 0 0 0 0 0 0 0 0 0 0 0 0.07 0"/>
<feBlend mode="normal" in2="BackgroundImageFix" result="effect1_dropShadow_2518_10273"/>
<feBlend mode="normal" in="SourceGraphic" in2="effect1_dropShadow_2518_10273" result="shape"/>
</filter>
<linearGradient id="paint0_linear_2518_10273" x1="48.5332" y1="18.7011" x2="91.3936" y2="18.7011" gradientUnits="userSpaceOnUse">
<stop offset="0.11" stop-color="#D67EFF"/>
<stop offset="0.72" stop-color="#FF9C41"/>
<stop offset="1" stop-color="#EDAC0A"/>
</linearGradient>
<linearGradient id="paint1_linear_2518_10273" x1="40.0232" y1="53.161" x2="82.8836" y2="53.161" gradientUnits="userSpaceOnUse">
<stop offset="0.11" stop-color="#D67EFF"/>
<stop offset="0.72" stop-color="#FF9C41"/>
<stop offset="1" stop-color="#EDAC0A"/>
</linearGradient>
<linearGradient id="paint2_linear_2518_10273" x1="0.343018" y1="29.541" x2="43.2035" y2="29.541" gradientUnits="userSpaceOnUse">
<stop offset="0.11" stop-color="#D67EFF"/>
<stop offset="0.72" stop-color="#FF9C41"/>
<stop offset="1" stop-color="#EDAC0A"/>
</linearGradient>
<clipPath id="clip0_2518_10273">
<rect width="91.05" height="68.64" fill="white" transform="translate(0.34375 0.454712)"/>
</clipPath>
</defs>
</svg>
